NotoSans-CondensedItalic.ufo
<glyph name="quotedbl" format="2">
  <advance width="338"/>
  <unicode hex="0022"/>
  <outline>
    <contour>
      <point x="250" y="456" type="line"/>
      <point x="309" y="456" type="line"/>
      <point x="378" y="714" type="line"/>
      <point x="292" y="714" type="line"/>
    </contour>
    <contour>
      <point x="99" y="456" type="line"/>
      <point x="158" y="456" type="line"/>
      <point x="226" y="714" type="line"/>
      <point x="140" y="714" type="line"/>
    </contour>
  </outline>
</glyph>
<glyph name="underscore" format="2">
  <advance width="303"/>
  <unicode hex="005F"/>
  <outline>
    <contour>
      <point x="-87" y="-144" type="line"/>
      <point x="217" y="-144" type="line"/>
      <point x="229" y="-83" type="line"/>
      <point x="-75" y="-83" type="line"/>
    </contour>
  </outline>
</glyph>
<glyph name="a" format="2">
  <advance width="423"/>
  <unicode hex="0061"/>
  <anchor x="155" y="0" name="bottom"/>
  <anchor x="268" y="536" name="top"/>
  <anchor x="459" y="536" name="topright"/>
  <outline>
    <contour>
      <point x="129" y="-10" type="curve" smooth="yes"/>
      <point x="176" y="-10"/>
      <point x="213" y="22"/>
      <point x="248" y="76" type="curve"/>
      <point x="250" y="76" type="line"/>
      <point x="244" y="0" type="line"/>
      <point x="306" y="0" type="line"/>
      <point x="420" y="536" type="line"/>
      <point x="354" y="536" type="line"/>
      <point x="332" y="468" type="line"/>
      <point x="329" y="468" type="line"/>
      <point x="316" y="520"/>
      <point x="285" y="546"/>
      <point x="240" y="546" type="curve" smooth="yes"/>
      <point x="91" y="546"/>
      <point x="24" y="288"/>
      <point x="24" y="139" type="curve" smooth="yes"/>
      <point x="24" y="43"/>
      <point x="61" y="-10"/>
    </contour>
    <contour>
      <point x="154" y="58" type="curve" smooth="yes"/>
      <point x="120" y="58"/>
      <point x="104" y="86"/>
      <point x="104" y="145" type="curve" smooth="yes"/>
      <point x="104" y="267"/>
      <point x="158" y="477"/>
      <point x="249" y="477" type="curve" smooth="yes"/>
      <point x="284" y="477"/>
      <point x="305" y="448"/>
      <point x="305" y="398" type="curve" smooth="yes"/>
      <point x="305" y="353"/>
      <point x="297" y="304"/>
      <point x="281" y="240" type="curve" smooth="yes"/>
      <point x="258" y="151"/>
      <point x="221" y="58"/>
    </contour>
  </outline>
</glyph>
<glyph name="x" format="2">
  <advance width="344"/>
  <unicode hex="0078"/>
  <anchor x="116" y="0" name="bottom"/>
  <anchor x="228" y="529" name="top"/>
  <anchor x="380" y="529" name="topright"/>
  <outline>
    <contour>
      <point x="-46" y="0" type="line"/>
      <point x="38" y="0" type="line"/>
      <point x="157" y="205" type="line"/>
      <point x="193" y="0" type="line"/>
      <point x="274" y="0" type="line"/>
      <point x="217" y="272" type="line"/>
      <point x="382" y="536" type="line"/>
      <point x="297" y="536" type="line"/>
      <point x="187" y="345" type="line"/>
      <point x="156" y="536" type="line"/>
      <point x="75" y="536" type="line"/>
      <point x="126" y="279" type="line"/>
    </contour>
  </outline>
</glyph>
<glyph name="bar" format="2">
  <advance width="366"/>
  <unicode hex="007C"/>
  <outline>
    <contour>
      <point x="146" y="-237" type="line"/>
      <point x="216" y="-237" type="line"/>
      <point x="216" y="764" type="line"/>
      <point x="146" y="764" type="line"/>
    </contour>
  </outline>
</glyph>
<glyph name="brokenbar" format="2">
  <advance width="366"/>
  <unicode hex="00A6"/>
  <outline>
    <contour>
      <point x="146" y="382" type="line"/>
      <point x="216" y="382" type="line"/>
      <point x="216" y="763" type="line"/>
      <point x="146" y="763" type="line"/>
    </contour>
    <contour>
      <point x="146" y="-237" type="line"/>
      <point x="216" y="-237" type="line"/>
      <point x="216" y="144" type="line"/>
      <point x="146" y="144" type="line"/>
    </contour>
  </outline>
</glyph>
<glyph name="overscore" format="2">
  <advance width="395"/>
  <unicode hex="00AF"/>
  <outline>
    <contour>
      <point x="92" y="760" type="line"/>
      <point x="493" y="760" type="line"/>
      <point x="506" y="821" type="line"/>
      <point x="106" y="821" type="line"/>
    </contour>
  </outline>
</glyph>
<glyph name="plusminus" format="2">
  <advance width="430"/>
  <unicode hex="00B1"/>
  <outline>
    <contour>
      <point x="40" y="0" type="line"/>
      <point x="409" y="0" type="line"/>
      <point x="409" y="68" type="line"/>
      <point x="40" y="68" type="line"/>
    </contour>
    <component base="plus" yOffset="18"/>
  </outline>
</glyph>
<glyph name="Eth" format="2">
  <advance width="465"/>
  <unicode hex="00D0"/>
  <anchor x="177" y="0" name="bottom"/>
  <anchor x="328" y="714" name="top"/>
  <outline>
    <contour>
      <point x="0" y="0" type="line"/>
      <point x="118" y="0" type="line" smooth="yes"/>
      <point x="358" y="0"/>
      <point x="450" y="283"/>
      <point x="450" y="503" type="curve" smooth="yes"/>
      <point x="450" y="642"/>
      <point x="386" y="714"/>
      <point x="268" y="714" type="curve" smooth="yes"/>
      <point x="151" y="714" type="line"/>
      <point x="85" y="404" type="line"/>
      <point x="37" y="404" type="line"/>
      <point x="23" y="338" type="line"/>
      <point x="71" y="338" type="line"/>
    </contour>
    <contour>
      <point x="95" y="73" type="line"/>
      <point x="150" y="338" type="line"/>
      <point x="236" y="338" type="line"/>
      <point x="250" y="404" type="line"/>
      <point x="165" y="404" type="line"/>
      <point x="216" y="641" type="line"/>
      <point x="259" y="641" type="line" smooth="yes"/>
      <point x="330" y="641"/>
      <point x="365" y="597"/>
      <point x="365" y="498" type="curve" smooth="yes"/>
      <point x="365" y="345"/>
      <point x="307" y="73"/>
      <point x="130" y="73" type="curve" smooth="yes"/>
    </contour>
  </outline>
</glyph>
<glyph name="multiply" format="2">
  <advance width="430"/>
  <unicode hex="00D7"/>
  <outline>
    <contour>
      <point x="361" y="537" type="line"/>
      <point x="224" y="400" type="line"/>
      <point x="88" y="535" type="line"/>
      <point x="42" y="488" type="line"/>
      <point x="177" y="353" type="line"/>
      <point x="42" y="217" type="line"/>
      <point x="88" y="170" type="line"/>
      <point x="224" y="306" type="line"/>
      <point x="360" y="171" type="line"/>
      <point x="406" y="217" type="line"/>
      <point x="272" y="353" type="line"/>
      <point x="409" y="491" type="line"/>
    </contour>
  </outline>
</glyph>
<glyph name="idotless" format="2">
  <advance width="192"/>
  <unicode hex="0131"/>
  <anchor x="39" y="0" name="bottom"/>
  <anchor x="153" y="536" name="top"/>
  <outline>
    <contour>
      <point x="-1" y="0" type="line"/>
      <point x="76" y="0" type="line"/>
      <point x="190" y="536" type="line"/>
      <point x="113" y="536" type="line"/>
    </contour>
  </outline>
</glyph>
<glyph name="uni018E" format="2">
  <advance width="366"/>
  <unicode hex="018E"/>
  <anchor x="127" y="0" name="bottom"/>
  <anchor x="278" y="714" name="top"/>
  <outline>
    <contour>
      <point x="-25" y="0" type="line"/>
      <point x="235" y="0" type="line"/>
      <point x="386" y="714" type="line"/>
      <point x="127" y="714" type="line"/>
      <point x="112" y="642" type="line"/>
      <point x="291" y="642" type="line"/>
      <point x="241" y="409" type="line"/>
      <point x="74" y="409" type="line"/>
      <point x="59" y="337" type="line"/>
      <point x="226" y="337" type="line"/>
      <point x="170" y="72" type="line"/>
      <point x="-9" y="72" type="line"/>
    </contour>
  </outline>
</glyph>
<glyph name="uni0191" format="2">
  <advance width="479"/>
  <unicode hex="0191"/>
  <anchor x="82" y="0" name="bottom"/>
  <anchor x="411" y="714" name="top"/>
  <anchor x="563" y="714" name="topright"/>
  <outline>
    <contour>
      <point x="108" y="-11" type="curve" smooth="yes"/>
      <point x="193" y="-11"/>
      <point x="234" y="45"/>
      <point x="252" y="134" type="curve" smooth="yes"/>
      <point x="294" y="338" type="line"/>
      <point x="452" y="338" type="line"/>
      <point x="467" y="410" type="line"/>
      <point x="310" y="410" type="line"/>
      <point x="359" y="642" type="line"/>
      <point x="529" y="642" type="line"/>
      <point x="544" y="714" type="line"/>
      <point x="294" y="714" type="line"/>
      <point x="171" y="137" type="line" smooth="yes"/>
      <point x="160" y="87"/>
      <point x="144" y="57"/>
      <point x="107" y="57" type="curve" smooth="yes"/>
      <point x="72" y="57"/>
      <point x="56" y="85"/>
      <point x="56" y="118" type="curve" smooth="yes"/>
      <point x="56" y="132"/>
      <point x="58" y="147"/>
      <point x="64" y="158" type="curve"/>
      <point x="0" y="180" type="line"/>
      <point x="-9" y="162"/>
      <point x="-14" y="140"/>
      <point x="-14" y="116" type="curve" smooth="yes"/>
      <point x="-14" y="44"/>
      <point x="28" y="-11"/>
    </contour>
  </outline>
</glyph>
<glyph name="florin" format="2">
  <advance width="341"/>
  <unicode hex="0192"/>
  <anchor x="71" y="0" name="bottom"/>
  <anchor x="392" y="765" name="top"/>
  <anchor x="467" y="765" name="topright"/>
  <outline>
    <contour>
      <point x="85" y="-10" type="curve" smooth="yes"/>
      <point x="163" y="-10"/>
      <point x="203" y="46"/>
      <point x="222" y="135" type="curve" smooth="yes"/>
      <point x="295" y="470" type="line"/>
      <point x="368" y="470" type="line"/>
      <point x="382" y="536" type="line"/>
      <point x="309" y="536" type="line"/>
      <point x="320" y="591" type="line" smooth="yes"/>
      <point x="334" y="660"/>
      <point x="350" y="697"/>
      <point x="388" y="697" type="curve" smooth="yes"/>
      <point x="401" y="697"/>
      <point x="415" y="694"/>
      <point x="428" y="687" type="curve"/>
      <point x="457" y="749" type="line"/>
      <point x="436" y="760"/>
      <point x="410" y="765"/>
      <point x="384" y="765" type="curve" smooth="yes"/>
      <point x="295" y="765"/>
      <point x="269" y="702"/>
      <point x="244" y="593" type="curve" smooth="yes"/>
      <point x="231" y="537" type="line"/>
      <point x="168" y="513" type="line"/>
      <point x="160" y="470" type="line"/>
      <point x="217" y="470" type="line"/>
      <point x="146" y="143" type="line" smooth="yes"/>
      <point x="135" y="92"/>
      <point x="122" y="58"/>
      <point x="85" y="58" type="curve" smooth="yes"/>
      <point x="50" y="58"/>
      <point x="39" y="81"/>
      <point x="39" y="110" type="curve" smooth="yes"/>
      <point x="39" y="121"/>
      <point x="41" y="134"/>
      <point x="45" y="146" type="curve"/>
      <point x="-21" y="162" type="line"/>
      <point x="-28" y="146"/>
      <point x="-31" y="129"/>
      <point x="-31" y="108" type="curve" smooth="yes"/>
      <point x="-31" y="46"/>
      <point x="4" y="-10"/>
    </contour>
  </outline>
</glyph>
<glyph name="uni01C0" format="2">
  <advance width="274"/>
  <unicode hex="01C0"/>
  <anchor x="80" y="0" name="bottom"/>
  <anchor x="242" y="763" name="top"/>
  <outline>
    <contour>
      <point x="45" y="0" type="line"/>
      <point x="115" y="0" type="line"/>
      <point x="277" y="763" type="line"/>
      <point x="207" y="763" type="line"/>
    </contour>
  </outline>
</glyph>
<glyph name="uni023B" format="2">
  <advance width="386"/>
  <unicode hex="023B"/>
  <anchor x="148" y="0" name="bottom"/>
  <anchor x="300" y="714" name="top"/>
  <anchor x="462" y="714" name="topright"/>
  <outline>
    <contour>
      <point x="66" y="-76" type="line"/>
      <point x="116" y="-76" type="line"/>
      <point x="414" y="761" type="line"/>
      <point x="364" y="761" type="line"/>
    </contour>
    <component base="C"/>
  </outline>
</glyph>
<glyph name="uni023C" format="2">
  <advance width="317"/>
  <unicode hex="023C"/>
  <anchor x="71" y="-145" name="bottom"/>
  <anchor x="249" y="690" name="top"/>
  <anchor x="354" y="536" name="topright"/>
  <outline>
    <contour>
      <point x="57" y="-145" type="line"/>
      <point x="107" y="-145" type="line"/>
      <point x="350" y="690" type="line"/>
      <point x="300" y="690" type="line"/>
    </contour>
    <component base="c"/>
  </outline>
</glyph>
<glyph name="uni023E" format="2">
  <advance width="344"/>
  <unicode hex="023E"/>
  <anchor x="116" y="0" name="bottom"/>
  <anchor x="267" y="714" name="top"/>
  <anchor x="197" y="357" name="center"/>
  <anchor x="419" y="714" name="topright"/>
  <outline>
    <contour>
      <point x="-45" y="-42" type="line"/>
      <point x="8" y="-42" type="line"/>
      <point x="412" y="794" type="line"/>
      <point x="359" y="794" type="line"/>
    </contour>
    <component base="T"/>
  </outline>
</glyph>
<glyph name="uni0246" format="2">
  <advance width="366"/>
  <unicode hex="0246"/>
  <anchor x="128" y="0" name="bottom"/>
  <anchor x="279" y="714" name="top"/>
  <anchor x="442" y="714" name="topright"/>
  <outline>
    <contour>
      <point x="71" y="-76" type="line"/>
      <point x="124" y="-76" type="line"/>
      <point x="390" y="761" type="line"/>
      <point x="337" y="761" type="line"/>
    </contour>
    <component base="E"/>
  </outline>
</glyph>
<glyph name="uni024F" format="2">
  <advance width="340"/>
  <unicode hex="024F"/>
  <anchor x="63" y="-241" name="bottom"/>
  <anchor x="227" y="529" name="top"/>
  <anchor x="376" y="529" name="topright"/>
  <outline>
    <contour>
      <point x="-1" y="247" type="line"/>
      <point x="332" y="247" type="line"/>
      <point x="346" y="310" type="line"/>
      <point x="13" y="310" type="line"/>
    </contour>
    <component base="y"/>
  </outline>
</glyph>
<glyph name="uni0289" format="2">
  <advance width="413"/>
  <unicode hex="0289"/>
  <anchor x="150" y="0" name="bottom"/>
  <anchor x="262" y="529" name="top"/>
  <anchor x="450" y="536" name="topright"/>
  <outline>
    <contour>
      <point x="-3" y="247" type="line"/>
      <point x="407" y="247" type="line"/>
      <point x="421" y="310" type="line"/>
      <point x="11" y="310" type="line"/>
    </contour>
    <component base="u"/>
  </outline>
</glyph>
<glyph name="kturned" format="2">
  <advance width="358"/>
  <unicode hex="029E"/>
  <anchor x="75" y="-224" name="bottom"/>
  <anchor x="235" y="536" name="top"/>
  <outline>
    <contour>
      <point x="120" y="-224" type="line"/>
      <point x="197" y="-224" type="line"/>
      <point x="359" y="536" type="line"/>
      <point x="282" y="536" type="line"/>
      <point x="243" y="347" type="line"/>
      <point x="183" y="281" type="line"/>
      <point x="140" y="536" type="line"/>
      <point x="58" y="536" type="line"/>
      <point x="115" y="217" type="line"/>
      <point x="-46" y="0" type="line"/>
      <point x="38" y="0" type="line"/>
      <point x="223" y="250" type="line"/>
      <point x="225" y="250" type="line"/>
      <point x="214" y="206"/>
      <point x="205" y="170"/>
      <point x="200" y="143" type="curve" smooth="yes"/>
    </contour>
  </outline>
</glyph>
<glyph name="macron" format="2">
  <advance width="320"/>
  <unicode hex="02C9"/>
  <outline>
    <contour>
      <point x="113" y="610" type="line"/>
      <point x="352" y="610" type="line"/>
      <point x="365" y="670" type="line"/>
      <point x="125" y="670" type="line"/>
    </contour>
  </outline>
</glyph>
<glyph name="uni02DF" format="2">
  <advance width="258"/>
  <unicode hex="02DF"/>
  <outline>
    <contour>
      <point x="144" y="579" type="line"/>
      <point x="210" y="637" type="line"/>
      <point x="253" y="579" type="line"/>
      <point x="290" y="607" type="line"/>
      <point x="246" y="668" type="line"/>
      <point x="314" y="727" type="line"/>
      <point x="285" y="762" type="line"/>
      <point x="219" y="705" type="line"/>
      <point x="177" y="762" type="line"/>
      <point x="139" y="734" type="line"/>
      <point x="182" y="675" type="line"/>
      <point x="114" y="614" type="line"/>
    </contour>
  </outline>
</glyph>
<glyph name="uni02EF" format="2">
  <advance width="299"/>
  <unicode hex="02EF"/>
  <outline>
    <contour>
      <point x="33" y="-220" type="line"/>
      <point x="60" y="-220" type="line"/>
      <point x="196" y="-29" type="line"/>
      <point x="151" y="-29" type="line"/>
      <point x="56" y="-163" type="line"/>
      <point x="17" y="-29" type="line"/>
      <point x="-23" y="-29" type="line"/>
    </contour>
  </outline>
</glyph>
<glyph name="uni02F0" format="2">
  <advance width="300"/>
  <unicode hex="02F0"/>
  <outline>
    <contour>
      <point x="-64" y="-220" type="line"/>
      <point x="-18" y="-220" type="line"/>
      <point x="76" y="-86" type="line"/>
      <point x="114" y="-220" type="line"/>
      <point x="156" y="-220" type="line"/>
      <point x="99" y="-30" type="line"/>
      <point x="72" y="-30" type="line"/>
    </contour>
  </outline>
</glyph>
<glyph name="uni02FD" format="2">
  <advance width="359"/>
  <unicode hex="02FD"/>
  <outline>
    <contour>
      <point x="-27" y="-195" type="line"/>
      <point x="221" y="-195" type="line"/>
      <point x="221" y="-46" type="line"/>
      <point x="175" y="-46" type="line"/>
      <point x="175" y="-148" type="line"/>
      <point x="19" y="-148" type="line"/>
      <point x="19" y="-46" type="line"/>
      <point x="-27" y="-46" type="line"/>
    </contour>
  </outline>
</glyph>
<glyph name="dblverticallineabovecomb" format="2">
  <unicode hex="030E"/>
  <anchor x="57" y="529" name="_top"/>
  <anchor x="88" y="750" name="top"/>
  <outline>
    <contour>
      <point x="109" y="596" type="line"/>
      <point x="172" y="596" type="line"/>
      <point x="208" y="765" type="line"/>
      <point x="146" y="765" type="line"/>
    </contour>
    <contour>
      <point x="-30" y="596" type="line"/>
      <point x="33" y="596" type="line"/>
      <point x="69" y="765" type="line"/>
      <point x="7" y="765" type="line"/>
    </contour>
  </outline>
</glyph>
<glyph name="leftangleabovecomb" format="2">
  <unicode hex="031A"/>
  <anchor x="212" y="650" name="_topright"/>
  <outline>
    <contour>
      <point x="154" y="679" type="line"/>
      <point x="201" y="679" type="line"/>
      <point x="247" y="887" type="line"/>
      <point x="45" y="887" type="line"/>
      <point x="35" y="841" type="line"/>
      <point x="191" y="841" type="line"/>
    </contour>
  </outline>
</glyph>
<glyph name="uptackbelowcomb" format="2">
  <unicode hex="031D"/>
  <anchor x="-67" y="0" name="_bottom"/>
  <anchor x="-104" y="-200" name="bottom"/>
  <outline>
    <contour>
      <point x="-170" y="-200" type="line"/>
      <point x="-27" y="-200" type="line"/>
      <point x="-18" y="-154" type="line"/>
      <point x="-64" y="-154" type="line"/>
      <point x="-41" y="-48" type="line"/>
      <point x="-90" y="-48" type="line"/>
      <point x="-113" y="-154" type="line"/>
      <point x="-160" y="-154" type="line"/>
    </contour>
  </outline>
</glyph>
<glyph name="plusbelowcomb" format="2">
  <unicode hex="031F"/>
  <anchor x="-56" y="0" name="_bottom"/>
  <anchor x="-93" y="-204" name="bottom"/>
  <outline>
    <contour>
      <point x="-123" y="-204" type="line"/>
      <point x="-74" y="-204" type="line"/>
      <point x="-61" y="-144" type="line"/>
      <point x="-12" y="-144" type="line"/>
      <point x="-3" y="-98" type="line"/>
      <point x="-52" y="-98" type="line"/>
      <point x="-39" y="-38" type="line"/>
      <point x="-88" y="-38" type="line"/>
      <point x="-101" y="-98" type="line"/>
      <point x="-150" y="-98" type="line"/>
      <point x="-159" y="-144" type="line"/>
      <point x="-110" y="-144" type="line"/>
    </contour>
  </outline>
</glyph>
<glyph name="dotbelowcomb" format="2">
  <unicode hex="0323"/>
  <anchor x="-287" y="0" name="_bottom"/>
  <anchor x="-318" y="-177" name="bottom"/>
  <outline>
    <contour>
      <point x="-321" y="-176" type="curve" smooth="yes"/>
      <point x="-286" y="-176"/>
      <point x="-265" y="-143"/>
      <point x="-265" y="-105" type="curve" smooth="yes"/>
      <point x="-265" y="-78"/>
      <point x="-278" y="-65"/>
      <point x="-304" y="-65" type="curve" smooth="yes"/>
      <point x="-340" y="-65"/>
      <point x="-360" y="-99"/>
      <point x="-360" y="-135" type="curve" smooth="yes"/>
      <point x="-360" y="-161"/>
      <point x="-347" y="-176"/>
    </contour>
  </outline>
</glyph>
<glyph name="lowlinecomb" format="2">
  <unicode hex="0332"/>
  <anchor x="-57" y="0" name="_bottom"/>
  <anchor x="-83" y="-145" name="bottom"/>
  <outline>
    <contour>
      <point x="-238" y="-145" type="line"/>
      <point x="63" y="-145" type="line"/>
      <point x="76" y="-83" type="line"/>
      <point x="-226" y="-83" type="line"/>
    </contour>
  </outline>
</glyph>
<glyph name="strokelongoverlaycomb" format="2">
  <unicode hex="0336"/>
  <anchor x="3" y="277" name="_center"/>
  <outline>
    <contour>
      <point x="-321" y="246" type="line"/>
      <point x="313" y="246" type="line"/>
      <point x="326" y="308" type="line"/>
      <point x="-309" y="308" type="line"/>
    </contour>
  </outline>
</glyph>
<glyph name="slashlongoverlaycomb" format="2">
  <unicode hex="0338"/>
  <anchor x="13" y="351" name="_center"/>
  <outline>
    <contour>
      <point x="-212" y="-58" type="line"/>
      <point x="-158" y="-58" type="line"/>
      <point x="238" y="760" type="line"/>
      <point x="184" y="760" type="line"/>
    </contour>
  </outline>
</glyph>
<glyph name="bridgeinvertedbelowcomb" format="2">
  <unicode hex="033A"/>
  <anchor x="-58" y="0" name="_bottom"/>
  <anchor x="-98" y="-217" name="bottom"/>
  <outline>
    <contour>
      <point x="-229" y="-217" type="line"/>
      <point x="21" y="-217" type="line"/>
      <point x="52" y="-69" type="line"/>
      <point x="7" y="-69" type="line"/>
      <point x="-14" y="-172" type="line"/>
      <point x="-175" y="-172" type="line"/>
      <point x="-153" y="-69" type="line"/>
      <point x="-197" y="-69" type="line"/>
    </contour>
  </outline>
</glyph>
<glyph name="ypogegrammenicomb" format="2">
  <unicode hex="0345"/>
  <anchor x="-30" y="0" name="_bottom"/>
  <anchor x="-71" y="-225" name="bottom"/>
  <outline>
    <contour>
      <point x="-64" y="-225" type="curve" smooth="yes"/>
      <point x="-42" y="-225"/>
      <point x="-19" y="-220"/>
      <point x="-6" y="-215" type="curve"/>
      <point x="5" y="-162" type="line"/>
      <point x="-3" y="-164"/>
      <point x="-18" y="-168"/>
      <point x="-30" y="-168" type="curve" smooth="yes"/>
      <point x="-46" y="-168"/>
      <point x="-56" y="-160"/>
      <point x="-56" y="-143" type="curve" smooth="yes"/>
      <point x="-56" y="-139"/>
      <point x="-55" y="-132"/>
      <point x="-53" y="-125" type="curve" smooth="yes"/>
      <point x="-39" y="-59" type="line"/>
      <point x="-105" y="-59" type="line"/>
      <point x="-123" y="-140" type="line" smooth="yes"/>
      <point x="-125" y="-150"/>
      <point x="-126" y="-160"/>
      <point x="-126" y="-168" type="curve" smooth="yes"/>
      <point x="-126" y="-205"/>
      <point x="-103" y="-225"/>
    </contour>
  </outline>
</glyph>
<glyph name="arrowleftrightbelowcomb" format="2">
  <unicode hex="034D"/>
  <anchor x="-56" y="0" name="_bottom"/>
  <anchor x="-92" y="-201" name="bottom"/>
  <outline>
    <contour>
      <point x="-143" y="-217" type="line"/>
      <point x="-130" y="-156" type="line"/>
      <point x="-49" y="-156" type="line"/>
      <point x="-62" y="-217" type="line"/>
      <point x="61" y="-127" type="line"/>
      <point x="-24" y="-37" type="line"/>
      <point x="-37" y="-98" type="line"/>
      <point x="-118" y="-98" type="line"/>
      <point x="-105" y="-37" type="line"/>
      <point x="-227" y="-127" type="line"/>
    </contour>
  </outline>
</glyph>
<glyph name="zigzagabovecomb" format="2">
  <unicode hex="035B"/>
  <anchor x="56" y="529" name="_top"/>
  <anchor x="104" y="782" name="top"/>
  <outline>
    <contour>
      <point x="93" y="593" type="line"/>
      <point x="138" y="593" type="line"/>
      <point x="176" y="710" type="line"/>
      <point x="65" y="710" type="line"/>
      <point x="88" y="782" type="line"/>
      <point x="43" y="782" type="line"/>
      <point x="5" y="665" type="line"/>
      <point x="115" y="665" type="line"/>
    </contour>
  </outline>
</glyph>
<glyph name="doublemacroncomb" format="2">
  <unicode hex="035E"/>
  <anchor x="182" y="529" name="_top"/>
  <anchor x="207" y="666" name="top"/>
  <outline>
    <contour>
      <point x="-11" y="605" type="line"/>
      <point x="407" y="605" type="line"/>
      <point x="421" y="666" type="line"/>
      <point x="2" y="666" type="line"/>
    </contour>
  </outline>
</glyph>
<glyph name="tildedoublecomb" format="2">
  <unicode hex="0360"/>
  <anchor x="223" y="529" name="_top"/>
  <anchor x="262" y="733" name="top"/>
  <outline>
    <contour>
      <point x="-35" y="607" type="curve"/>
      <point x="13" y="607" type="line"/>
      <point x="27" y="646"/>
      <point x="53" y="671"/>
      <point x="104" y="671" type="curve" smooth="yes"/>
      <point x="210" y="671"/>
      <point x="279" y="608"/>
      <point x="383" y="608" type="curve" smooth="yes"/>
      <point x="456" y="608"/>
      <point x="513" y="645"/>
      <point x="541" y="733" type="curve"/>
      <point x="493" y="733" type="line"/>
      <point x="481" y="696"/>
      <point x="456" y="669"/>
      <point x="405" y="669" type="curve" smooth="yes"/>
      <point x="297" y="669"/>
      <point x="227" y="732"/>
      <point x="122" y="732" type="curve" smooth="yes"/>
      <point x="50" y="732"/>
      <point x="-7" y="695"/>
    </contour>
  </outline>
</glyph>
<glyph name="arrowdoublerightbelowcomb" format="2">
  <unicode hex="0362"/>
  <anchor x="213" y="0" name="_bottom"/>
  <anchor x="177" y="-209" name="bottom"/>
  <outline>
    <contour>
      <point x="372" y="-209" type="line"/>
      <point x="459" y="-128" type="line"/>
      <point x="372" y="-46" type="line"/>
      <point x="372" y="-103" type="line"/>
      <point x="-85" y="-103" type="line"/>
      <point x="-85" y="-151" type="line"/>
      <point x="372" y="-151" type="line"/>
    </contour>
  </outline>
</glyph>
<glyph name="Heta" format="2">
  <advance width="317"/>
  <unicode hex="0370"/>
  <anchor x="103" y="0" name="bottom"/>
  <anchor x="254" y="714" name="top"/>
  <outline>
    <contour>
      <point x="0" y="0" type="line"/>
      <point x="80" y="0" type="line"/>
      <point x="151" y="337" type="line"/>
      <point x="304" y="337" type="line"/>
      <point x="320" y="410" type="line"/>
      <point x="167" y="410" type="line"/>
      <point x="231" y="714" type="line"/>
      <point x="151" y="714" type="line"/>
    </contour>
  </outline>
</glyph>
<glyph name="heta" format="2">
  <advance width="270"/>
  <unicode hex="0371"/>
  <anchor x="79" y="0" name="bottom"/>
  <anchor x="191" y="529" name="top"/>
  <outline>
    <contour>
      <point x="0" y="0" type="line"/>
      <point x="77" y="0" type="line"/>
      <point x="130" y="245" type="line"/>
      <point x="248" y="245" type="line"/>
      <point x="262" y="312" type="line"/>
      <point x="144" y="312" type="line"/>
      <point x="191" y="536" type="line"/>
      <point x="114" y="536" type="line"/>
    </contour>
  </outline>
</glyph>
<glyph name="Archaicsampi" format="2">
  <advance width="444"/>
  <unicode hex="0372"/>
  <anchor x="169" y="0" name="bottom"/>
  <anchor x="320" y="714" name="top"/>
  <outline>
    <contour>
      <point x="118" y="0" type="line"/>
      <point x="198" y="0" type="line"/>
      <point x="334" y="641" type="line"/>
      <point x="457" y="641" type="line"/>
      <point x="473" y="714" type="line"/>
      <point x="147" y="714" type="line"/>
      <point x="131" y="641" type="line"/>
      <point x="254" y="641" type="line"/>
    </contour>
    <contour>
      <point x="51" y="450" type="line"/>
      <point x="129" y="450" type="line"/>
      <point x="186" y="714" type="line"/>
      <point x="107" y="714" type="line"/>
    </contour>
    <contour>
      <point x="377" y="450" type="line"/>
      <point x="455" y="450" type="line"/>
      <point x="512" y="714" type="line"/>
      <point x="433" y="714" type="line"/>
    </contour>
  </outline>
</glyph>
<glyph name="archaicsampi" format="2">
  <advance width="428"/>
  <unicode hex="0373"/>
  <anchor x="159" y="0" name="bottom"/>
  <anchor x="320" y="760" name="top"/>
  <outline>
    <contour>
      <point x="111" y="0" type="line"/>
      <point x="188" y="0" type="line"/>
      <point x="333" y="688" type="line"/>
      <point x="454" y="688" type="line"/>
      <point x="469" y="760" type="line"/>
      <point x="151" y="760" type="line"/>
      <point x="136" y="688" type="line"/>
      <point x="257" y="688" type="line"/>
    </contour>
    <contour>
      <point x="59" y="496" type="line"/>
      <point x="134" y="496" type="line"/>
      <point x="191" y="760" type="line"/>
      <point x="115" y="760" type="line"/>
    </contour>
    <contour>
      <point x="374" y="496" type="line"/>
      <point x="449" y="496" type="line"/>
      <point x="506" y="760" type="line"/>
      <point x="430" y="760" type="line"/>
    </contour>
  </outline>
</glyph>
<glyph name="uni0375" format="2">
  <advance width="420"/>
  <unicode hex="0375"/>
  <outline>
    <contour>
      <point x="33" y="-221" type="line"/>
      <point x="109" y="-221" type="line"/>
      <point x="122" y="-179"/>
      <point x="158" y="-108"/>
      <point x="179" y="-75" type="curve"/>
      <point x="179" y="-61" type="line"/>
      <point x="133" y="-61" type="line"/>
      <point x="99" y="-95"/>
      <point x="47" y="-169"/>
      <point x="33" y="-211" type="curve"/>
    </contour>
  </outline>
</glyph>
<glyph name="pamphyliandigamma" format="2">
  <advance width="416"/>
  <unicode hex="0377"/>
  <anchor x="152" y="0" name="bottom"/>
  <anchor x="264" y="529" name="top"/>
  <outline>
    <contour>
      <point x="0" y="0" type="line"/>
      <point x="77" y="0" type="line"/>
      <point x="300" y="361" type="line"/>
      <point x="295" y="343"/>
      <point x="290" y="322"/>
      <point x="287" y="304" type="curve" smooth="yes"/>
      <point x="223" y="0" type="line"/>
      <point x="298" y="0" type="line"/>
      <point x="412" y="536" type="line"/>
      <point x="336" y="536" type="line"/>
      <point x="113" y="178" type="line"/>
      <point x="118" y="197"/>
      <point x="124" y="220"/>
      <point x="128" y="240" type="curve" smooth="yes"/>
      <point x="190" y="536" type="line"/>
      <point x="114" y="536" type="line"/>
    </contour>
  </outline>
</glyph>
<glyph name="tonos" format="2">
  <advance width="483"/>
  <unicode hex="0384"/>
  <anchor x="282" y="529" name="_top"/>
  <outline>
    <contour>
      <point x="238" y="606" type="line"/>
      <point x="285" y="606" type="line"/>
      <point x="310" y="639"/>
      <point x="374" y="736"/>
      <point x="393" y="770" type="curve"/>
      <point x="395" y="780" type="line"/>
      <point x="317" y="780" type="line"/>
      <point x="302" y="741"/>
      <point x="262" y="655"/>
      <point x="240" y="617" type="curve"/>
    </contour>
  </outline>
</glyph>
<glyph name="dieresistonos" format="2">
  <advance width="488"/>
  <unicode hex="0385"/>
  <anchor x="248" y="529" name="_top"/>
  <outline>
    <contour>
      <point x="261" y="682" type="line"/>
      <point x="300" y="682" type="line"/>
      <point x="325" y="712"/>
      <point x="377" y="794"/>
      <point x="393" y="829" type="curve"/>
      <point x="394" y="838" type="line"/>
      <point x="323" y="838" type="line"/>
      <point x="313" y="804"/>
      <point x="280" y="727"/>
      <point x="261" y="692" type="curve"/>
    </contour>
    <contour>
      <point x="187" y="631" type="curve" smooth="yes"/>
      <point x="215" y="631"/>
      <point x="236" y="659"/>
      <point x="236" y="698" type="curve" smooth="yes"/>
      <point x="236" y="721"/>
      <point x="225" y="733"/>
      <point x="205" y="733" type="curve" smooth="yes"/>
      <point x="173" y="733"/>
      <point x="154" y="702"/>
      <point x="154" y="668" type="curve" smooth="yes"/>
      <point x="154" y="643"/>
      <point x="165" y="631"/>
    </contour>
    <contour>
      <point x="380" y="631" type="curve" smooth="yes"/>
      <point x="408" y="631"/>
      <point x="429" y="659"/>
      <point x="429" y="698" type="curve" smooth="yes"/>
      <point x="429" y="721"/>
      <point x="417" y="733"/>
      <point x="398" y="733" type="curve" smooth="yes"/>
      <point x="366" y="733"/>
      <point x="347" y="702"/>
      <point x="347" y="668" type="curve" smooth="yes"/>
      <point x="347" y="643"/>
      <point x="358" y="631"/>
    </contour>
  </outline>
</glyph>
<glyph name="Delta" format="2">
  <advance width="401"/>
  <unicode hex="0394"/>
  <anchor x="145" y="0" name="bottom"/>
  <anchor x="296" y="714" name="top"/>
  <outline>
    <contour>
      <point x="-42" y="0" type="line"/>
      <point x="337" y="0" type="line"/>
      <point x="347" y="57" type="line"/>
      <point x="340" y="716" type="line"/>
      <point x="240" y="716" type="line"/>
      <point x="-41" y="58" type="line"/>
    </contour>
    <contour>
      <point x="49" y="74" type="line"/>
      <point x="223" y="501" type="line" smooth="yes"/>
      <point x="246" y="556"/>
      <point x="262" y="607"/>
      <point x="270" y="634" type="curve"/>
      <point x="269" y="578"/>
      <point x="268" y="543"/>
      <point x="268" y="503" type="curve" smooth="yes"/>
      <point x="266" y="74" type="line"/>
    </contour>
  </outline>
</glyph>
<glyph name="Theta" format="2">
  <advance width="512"/>
  <unicode hex="0398"/>
  <anchor x="201" y="0" name="bottom"/>
  <anchor x="352" y="714" name="top"/>
  <outline>
    <contour>
      <point x="195" y="-10" type="curve" smooth="yes"/>
      <point x="389" y="-10"/>
      <point x="494" y="292"/>
      <point x="494" y="522" type="curve" smooth="yes"/>
      <point x="494" y="661"/>
      <point x="437" y="724"/>
      <point x="335" y="724" type="curve" smooth="yes"/>
      <point x="121" y="724"/>
      <point x="35" y="384"/>
      <point x="35" y="200" type="curve" smooth="yes"/>
      <point x="35" y="57"/>
      <point x="87" y="-10"/>
    </contour>
    <contour>
      <point x="201" y="63" type="curve" smooth="yes"/>
      <point x="146" y="63"/>
      <point x="117" y="103"/>
      <point x="117" y="199" type="curve" smooth="yes"/>
      <point x="117" y="326"/>
      <point x="177" y="652"/>
      <point x="329" y="652" type="curve" smooth="yes"/>
      <point x="385" y="652"/>
      <point x="413" y="611"/>
      <point x="413" y="523" type="curve" smooth="yes"/>
      <point x="413" y="378"/>
      <point x="343" y="63"/>
    </contour>
    <contour>
      <point x="198" y="331" type="line"/>
      <point x="317" y="331" type="line"/>
      <point x="333" y="402" type="line"/>
      <point x="214" y="402" type="line"/>
    </contour>
  </outline>
</glyph>
<glyph name="Lambda" format="2">
  <advance width="401"/>
  <unicode hex="039B"/>
  <anchor x="145" y="0" name="bottom"/>
  <anchor x="296" y="714" name="top"/>
  <outline>
    <contour>
      <point x="-66" y="0" type="line"/>
      <point x="19" y="0" type="line"/>
      <point x="196" y="430" type="line" smooth="yes"/>
      <point x="222" y="497"/>
      <point x="245" y="553"/>
      <point x="261" y="603" type="curve"/>
      <point x="259" y="559"/>
      <point x="257" y="513"/>
      <point x="257" y="471" type="curve" smooth="yes"/>
      <point x="254" y="0" type="line"/>
      <point x="337" y="0" type="line"/>
      <point x="333" y="716" type="line"/>
      <point x="238" y="716" type="line"/>
    </contour>
  </outline>
</glyph>
<glyph name="Xi" format="2">
  <advance width="361"/>
  <unicode hex="039E"/>
  <anchor x="125" y="0" name="bottom"/>
  <anchor x="276" y="714" name="top"/>
  <outline>
    <contour>
      <point x="-25" y="0" type="line"/>
      <point x="261" y="0" type="line"/>
      <point x="276" y="72" type="line"/>
      <point x="-10" y="72" type="line"/>
    </contour>
    <contour>
      <point x="74" y="338" type="line"/>
      <point x="305" y="338" type="line"/>
      <point x="321" y="410" type="line"/>
      <point x="89" y="410" type="line"/>
    </contour>
    <contour>
      <point x="120" y="642" type="line"/>
      <point x="389" y="642" type="line"/>
      <point x="404" y="714" type="line"/>
      <point x="135" y="714" type="line"/>
    </contour>
  </outline>
</glyph>
<glyph name="Pi" format="2">
  <advance width="478"/>
  <unicode hex="03A0"/>
  <anchor x="183" y="0" name="bottom"/>
  <anchor x="334" y="714" name="top"/>
  <outline>
    <contour>
      <point x="0" y="0" type="line"/>
      <point x="80" y="0" type="line"/>
      <point x="215" y="641" type="line"/>
      <point x="405" y="641" type="line"/>
      <point x="269" y="0" type="line"/>
      <point x="349" y="0" type="line"/>
      <point x="500" y="714" type="line"/>
      <point x="151" y="714" type="line"/>
    </contour>
  </outline>
</glyph>
<glyph name="Sigma" format="2">
  <advance width="363"/>
  <unicode hex="03A3"/>
  <anchor x="126" y="0" name="bottom"/>
  <anchor x="277" y="714" name="top"/>
  <outline>
    <contour>
      <point x="-36" y="0" type="line"/>
      <point x="276" y="0" type="line"/>
      <point x="290" y="72" type="line"/>
      <point x="69" y="72" type="line"/>
      <point x="276" y="372" type="line"/>
      <point x="194" y="642" type="line"/>
      <point x="398" y="642" type="line"/>
      <point x="412" y="714" type="line"/>
      <point x="120" y="714" type="line"/>
      <point x="106" y="647" type="line"/>
      <point x="190" y="374" type="line"/>
      <point x="-23" y="66" type="line"/>
    </contour>
  </outline>
</glyph>
<glyph name="Psi" format="2">
  <advance width="565"/>
  <unicode hex="03A8"/>
  <anchor x="227" y="0" name="bottom"/>
  <anchor x="378" y="714" name="top"/>
  <outline>
    <contour>
      <point x="176" y="0" type="line"/>
      <point x="255" y="0" type="line"/>
      <point x="300" y="213" type="line"/>
      <point x="302" y="213" type="line" smooth="yes"/>
      <point x="461" y="213"/>
      <point x="510" y="314"/>
      <point x="542" y="460" type="curve" smooth="yes"/>
      <point x="595" y="714" type="line"/>
      <point x="515" y="714" type="line"/>
      <point x="463" y="470" type="line" smooth="yes"/>
      <point x="440" y="362"/>
      <point x="413" y="286"/>
      <point x="317" y="286" type="curve" smooth="yes"/>
      <point x="315" y="286" type="line"/>
      <point x="406" y="714" type="line"/>
      <point x="327" y="714" type="line"/>
      <point x="237" y="286" type="line"/>
      <point x="235" y="286" type="line" smooth="yes"/>
      <point x="186" y="286"/>
      <point x="154" y="308"/>
      <point x="154" y="376" type="curve" smooth="yes"/>
      <point x="154" y="403"/>
      <point x="158" y="436"/>
      <point x="167" y="479" type="curve" smooth="yes"/>
      <point x="217" y="714" type="line"/>
      <point x="137" y="714" type="line"/>
      <point x="89" y="485" type="line" smooth="yes"/>
      <point x="79" y="441"/>
      <point x="74" y="400"/>
      <point x="74" y="367" type="curve" smooth="yes"/>
      <point x="74" y="265"/>
      <point x="125" y="218"/>
      <point x="220" y="213" type="curve" smooth="yes"/>
      <point x="221" y="213" type="line"/>
    </contour>
  </outline>
</glyph>
<glyph name="Omega" format="2">
  <advance width="502"/>
  <unicode hex="03A9"/>
  <anchor x="195" y="0" name="bottom"/>
  <anchor x="347" y="714" name="top"/>
  <anchor x="115" y="714" name="topleft"/>
  <outline>
    <contour>
      <point x="-38" y="0" type="line"/>
      <point x="153" y="0" type="line"/>
      <point x="167" y="67" type="line"/>
      <point x="136" y="115"/>
      <point x="122" y="173"/>
      <point x="122" y="246" type="curve" smooth="yes"/>
      <point x="122" y="385"/>
      <point x="185" y="652"/>
      <point x="319" y="652" type="curve" smooth="yes"/>
      <point x="376" y="652"/>
      <point x="405" y="607"/>
      <point x="405" y="519" type="curve" smooth="yes"/>
      <point x="405" y="356"/>
      <point x="340" y="165"/>
      <point x="230" y="67" type="curve"/>
      <point x="216" y="0" type="line"/>
      <point x="412" y="0" type="line"/>
      <point x="428" y="72" type="line"/>
      <point x="307" y="72" type="line"/>
      <point x="420" y="174"/>
      <point x="489" y="353"/>
      <point x="489" y="529" type="curve" smooth="yes"/>
      <point x="489" y="645"/>
      <point x="437" y="724"/>
      <point x="327" y="724" type="curve" smooth="yes"/>
      <point x="145" y="724"/>
      <point x="44" y="473"/>
      <point x="44" y="266" type="curve" smooth="yes"/>
      <point x="44" y="192"/>
      <point x="62" y="117"/>
      <point x="96" y="72" type="curve"/>
      <point x="-23" y="72" type="line"/>
    </contour>
  </outline>
</glyph>
<glyph name="beta" format="2">
  <advance width="421"/>
  <unicode hex="03B2"/>
  <anchor x="200" y="0" name="bottom"/>
  <anchor x="317" y="765" name="top"/>
  <anchor x="507" y="765" name="topright"/>
  <outline>
    <contour>
      <point x="-51" y="-240" type="line"/>
      <point x="23" y="-240" type="line"/>
      <point x="81" y="23" type="line"/>
      <point x="104" y="3"/>
      <point x="141" y="-10"/>
      <point x="182" y="-10" type="curve" smooth="yes"/>
      <point x="317" y="-10"/>
      <point x="378" y="134"/>
      <point x="378" y="256" type="curve" smooth="yes"/>
      <point x="378" y="327"/>
      <point x="346" y="390"/>
      <point x="288" y="401" type="curve"/>
      <point x="385" y="421"/>
      <point x="430" y="518"/>
      <point x="430" y="629" type="curve" smooth="yes"/>
      <point x="430" y="712"/>
      <point x="382" y="765"/>
      <point x="302" y="765" type="curve" smooth="yes"/>
      <point x="193" y="765"/>
      <point x="148" y="696"/>
      <point x="122" y="575" type="curve" smooth="yes"/>
    </contour>
    <contour>
      <point x="172" y="60" type="curve" smooth="yes"/>
      <point x="144" y="60"/>
      <point x="114" y="73"/>
      <point x="96" y="94" type="curve"/>
      <point x="198" y="578" type="line" smooth="yes"/>
      <point x="216" y="658"/>
      <point x="242" y="697"/>
      <point x="290" y="697" type="curve" smooth="yes"/>
      <point x="330" y="697"/>
      <point x="350" y="671"/>
      <point x="350" y="623" type="curve" smooth="yes"/>
      <point x="350" y="536"/>
      <point x="315" y="432"/>
      <point x="233" y="432" type="curve" smooth="yes"/>
      <point x="219" y="432" type="line"/>
      <point x="204" y="364" type="line"/>
      <point x="223" y="364" type="line" smooth="yes"/>
      <point x="271" y="364"/>
      <point x="299" y="323"/>
      <point x="299" y="255" type="curve" smooth="yes"/>
      <point x="299" y="175"/>
      <point x="268" y="60"/>
    </contour>
  </outline>
</glyph>
<glyph name="gamma" format="2">
  <advance width="337"/>
  <unicode hex="03B3"/>
  <anchor x="62" y="-240" name="bottom"/>
  <anchor x="225" y="529" name="top"/>
  <anchor x="373" y="529" name="topright"/>
  <outline>
    <contour>
      <point x="-7" y="-240" type="curve"/>
      <point x="73" y="-240" type="line"/>
      <point x="88" y="-172"/>
      <point x="124" y="-63"/>
      <point x="165" y="31" type="curve" smooth="yes"/>
      <point x="386" y="536" type="line"/>
      <point x="304" y="536" type="line"/>
      <point x="191" y="264" type="line" smooth="yes"/>
      <point x="167" y="209"/>
      <point x="152" y="167"/>
      <point x="135" y="113" type="curve"/>
      <point x="131" y="113" type="line"/>
      <point x="136" y="161"/>
      <point x="137" y="225"/>
      <point x="137" y="265" type="curve" smooth="yes"/>
      <point x="138" y="536" type="line"/>
      <point x="60" y="536" type="line"/>
      <point x="68" y="-3" type="line"/>
      <point x="37" y="-82"/>
      <point x="10" y="-161"/>
    </contour>
  </outline>
</glyph>
<glyph name="delta" format="2">
  <advance width="418"/>
  <unicode hex="03B4"/>
  <anchor x="153" y="0" name="bottom"/>
  <anchor x="315" y="762" name="top"/>
  <outline>
    <contour>
      <point x="166" y="-10" type="curve" smooth="yes"/>
      <point x="307" y="-10"/>
      <point x="372" y="121"/>
      <point x="372" y="265" type="curve" smooth="yes"/>
      <point x="372" y="344"/>
      <point x="353" y="408"/>
      <point x="308" y="474" type="curve" smooth="yes"/>
      <point x="275" y="521"/>
      <point x="241" y="563"/>
      <point x="241" y="612" type="curve" smooth="yes"/>
      <point x="241" y="661"/>
      <point x="272" y="694"/>
      <point x="323" y="694" type="curve" smooth="yes"/>
      <point x="360" y="694"/>
      <point x="389" y="682"/>
      <point x="417" y="660" type="curve"/>
      <point x="456" y="723" type="line"/>
      <point x="432" y="743"/>
      <point x="386" y="762"/>
      <point x="326" y="762" type="curve" smooth="yes"/>
      <point x="229" y="762"/>
      <point x="163" y="700"/>
      <point x="163" y="607" type="curve" smooth="yes"/>
      <point x="163" y="552"/>
      <point x="186" y="507"/>
      <point x="221" y="457" type="curve"/>
      <point x="97" y="405"/>
      <point x="22" y="288"/>
      <point x="22" y="151" type="curve" smooth="yes"/>
      <point x="22" y="53"/>
      <point x="72" y="-10"/>
    </contour>
    <contour>
      <point x="173" y="57" type="curve" smooth="yes"/>
      <point x="126" y="57"/>
      <point x="101" y="97"/>
      <point x="101" y="154" type="curve" smooth="yes"/>
      <point x="101" y="259"/>
      <point x="159" y="372"/>
      <point x="250" y="414" type="curve"/>
      <point x="280" y="371"/>
      <point x="293" y="322"/>
      <point x="293" y="261" type="curve" smooth="yes"/>
      <point x="293" y="184"/>
      <point x="261" y="57"/>
    </contour>
  </outline>
</glyph>
<glyph name="epsilon" format="2">
  <advance width="320"/>
  <unicode hex="03B5"/>
  <anchor x="104" y="0" name="bottom"/>
  <anchor x="216" y="529" name="top"/>
  <outline>
    <contour>
      <point x="132" y="-10" type="curve" smooth="yes"/>
      <point x="173" y="-10"/>
      <point x="213" y="0"/>
      <point x="246" y="19" type="curve"/>
      <point x="246" y="87" type="line"/>
      <point x="212" y="67"/>
      <point x="183" y="58"/>
      <point x="150" y="58" type="curve" smooth="yes"/>
      <point x="103" y="58"/>
      <point x="81" y="85"/>
      <point x="81" y="133" type="curve" smooth="yes"/>
      <point x="81" y="199"/>
      <point x="122" y="251"/>
      <point x="193" y="251" type="curve" smooth="yes"/>
      <point x="226" y="251" type="line"/>
      <point x="239" y="313" type="line"/>
      <point x="213" y="313" type="line" smooth="yes"/>
      <point x="170" y="313"/>
      <point x="150" y="336"/>
      <point x="150" y="383" type="curve" smooth="yes"/>
      <point x="150" y="439"/>
      <point x="182" y="479"/>
      <point x="234" y="479" type="curve" smooth="yes"/>
      <point x="260" y="479"/>
      <point x="286" y="470"/>
      <point x="306" y="453" type="curve"/>
      <point x="343" y="512" type="line"/>
      <point x="312" y="536"/>
      <point x="275" y="546"/>
      <point x="232" y="546" type="curve" smooth="yes"/>
      <point x="134" y="546"/>
      <point x="76" y="477"/>
      <point x="76" y="388" type="curve" smooth="yes"/>
      <point x="76" y="341"/>
      <point x="94" y="306"/>
      <point x="125" y="289" type="curve"/>
      <point x="124" y="285" type="line"/>
      <point x="44" y="268"/>
      <point x="1" y="201"/>
      <point x="1" y="120" type="curve" smooth="yes"/>
      <point x="1" y="39"/>
      <point x="46" y="-10"/>
    </contour>
  </outline>
</glyph>
<glyph name="zeta" format="2">
  <advance width="307"/>
  <unicode hex="03B6"/>
  <anchor x="55" y="-198" name="bottom"/>
  <anchor x="259" y="760" name="top"/>
  <outline>
    <contour>
      <point x="64" y="-198" type="curve"/>
      <point x="146" y="-198" type="line"/>
      <point x="193" y="-147"/>
      <point x="227" y="-92"/>
      <point x="227" y="-33" type="curve" smooth="yes"/>
      <point x="227" y="11"/>
      <point x="200" y="39"/>
      <point x="167" y="63" type="curve" smooth="yes"/>
      <point x="125" y="97"/>
      <point x="96" y="122"/>
      <point x="96" y="178" type="curve" smooth="yes"/>
      <point x="96" y="336"/>
      <point x="245" y="547"/>
      <point x="386" y="704" type="curve"/>
      <point x="398" y="760" type="line"/>
      <point x="158" y="760" type="line"/>
      <point x="144" y="693" type="line"/>
      <point x="221" y="693" type="line" smooth="yes"/>
      <point x="251" y="693"/>
      <point x="276" y="694"/>
      <point x="296" y="697" type="curve"/>
      <point x="153" y="535"/>
      <point x="14" y="340"/>
      <point x="14" y="156" type="curve" smooth="yes"/>
      <point x="14" y="81"/>
      <point x="44" y="50"/>
      <point x="92" y="14" type="curve" smooth="yes"/>
      <point x="120" y="-7"/>
      <point x="143" y="-26"/>
      <point x="143" y="-55" type="curve" smooth="yes"/>
      <point x="143" y="-104"/>
      <point x="98" y="-161"/>
    </contour>
  </outline>
</glyph>
<glyph name="theta" format="2">
  <advance width="417"/>
  <unicode hex="03B8"/>
  <anchor x="153" y="0" name="bottom"/>
  <anchor x="316" y="771" name="top"/>
  <anchor x="505" y="771" name="topright"/>
  <outline>
    <contour>
      <point x="153" y="-10" type="curve" smooth="yes"/>
      <point x="240" y="-10"/>
      <point x="303" y="76"/>
      <point x="353" y="212" type="curve" smooth="yes"/>
      <point x="396" y="322"/>
      <point x="425" y="484"/>
      <point x="425" y="588" type="curve" smooth="yes"/>
      <point x="425" y="717"/>
      <point x="380" y="771"/>
      <point x="302" y="771" type="curve" smooth="yes"/>
      <point x="173" y="771"/>
      <point x="102" y="590"/>
      <point x="62" y="421" type="curve" smooth="yes"/>
      <point x="41" y="329"/>
      <point x="30" y="243"/>
      <point x="30" y="175" type="curve" smooth="yes"/>
      <point x="30" y="50"/>
      <point x="72" y="-10"/>
    </contour>
    <contour>
      <point x="158" y="56" type="curve" smooth="yes"/>
      <point x="123" y="56"/>
      <point x="104" y="89"/>
      <point x="104" y="167" type="curve" smooth="yes"/>
      <point x="104" y="209"/>
      <point x="112" y="274"/>
      <point x="128" y="356" type="curve"/>
      <point x="316" y="356" type="line"/>
      <point x="277" y="183"/>
      <point x="226" y="56"/>
    </contour>
    <contour>
      <point x="142" y="421" type="line"/>
      <point x="181" y="591"/>
      <point x="231" y="705"/>
      <point x="295" y="705" type="curve" smooth="yes"/>
      <point x="332" y="705"/>
      <point x="348" y="671"/>
      <point x="348" y="597" type="curve" smooth="yes"/>
      <point x="348" y="553"/>
      <point x="341" y="493"/>
      <point x="329" y="421" type="curve"/>
    </contour>
  </outline>
</glyph>
<glyph name="iota" format="2">
  <advance width="228"/>
  <unicode hex="03B9"/>
  <anchor x="58" y="0" name="bottom"/>
  <anchor x="162" y="531" name="top"/>
  <anchor x="76" y="531" name="topleft"/>
  <outline>
    <contour>
      <point x="98" y="-10" type="curve" smooth="yes"/>
      <point x="120" y="-10"/>
      <point x="145" y="-4"/>
      <point x="166" y="6" type="curve"/>
      <point x="166" y="69" type="line"/>
      <point x="151" y="63"/>
      <point x="136" y="59"/>
      <point x="123" y="59" type="curve" smooth="yes"/>
      <point x="108" y="59"/>
      <point x="99" y="70"/>
      <point x="99" y="88" type="curve" smooth="yes"/>
      <point x="99" y="100"/>
      <point x="101" y="113"/>
      <point x="105" y="129" type="curve" smooth="yes"/>
      <point x="192" y="536" type="line"/>
      <point x="115" y="536" type="line"/>
      <point x="30" y="135" type="line" smooth="yes"/>
      <point x="25" y="111"/>
      <point x="21" y="86"/>
      <point x="21" y="71" type="curve" smooth="yes"/>
      <point x="21" y="20"/>
      <point x="47" y="-10"/>
    </contour>
  </outline>
</glyph>
<glyph name="lambda" format="2">
  <advance width="362"/>
  <unicode hex="03BB"/>
  <anchor x="125" y="0" name="bottom"/>
  <anchor x="288" y="767" name="top"/>
  <outline>
    <contour>
      <point x="279" y="-10" type="curve" smooth="yes"/>
      <point x="293" y="-10"/>
      <point x="313" y="-7"/>
      <point x="325" y="-3" type="curve"/>
      <point x="325" y="65" type="line"/>
      <point x="315" y="61"/>
      <point x="307" y="60"/>
      <point x="297" y="60" type="curve" smooth="yes"/>
      <point x="276" y="60"/>
      <point x="268" y="76"/>
      <point x="268" y="118" type="curve" smooth="yes"/>
      <point x="269" y="641" type="line" smooth="yes"/>
      <point x="268" y="719"/>
      <point x="248" y="767"/>
      <point x="179" y="767" type="curve" smooth="yes"/>
      <point x="160" y="767"/>
      <point x="138" y="763"/>
      <point x="125" y="759" type="curve"/>
      <point x="125" y="694" type="line"/>
      <point x="136" y="698"/>
      <point x="145" y="700"/>
      <point x="155" y="700" type="curve" smooth="yes"/>
      <point x="181" y="700"/>
      <point x="192" y="684"/>
      <point x="192" y="642" type="curve" smooth="yes"/>
      <point x="191" y="532" type="line"/>
      <point x="-51" y="0" type="line"/>
      <point x="29" y="0" type="line"/>
      <point x="174" y="336" type="line" smooth="yes"/>
      <point x="183" y="357"/>
      <point x="191" y="381"/>
      <point x="198" y="403" type="curve"/>
      <point x="197" y="370"/>
      <point x="197" y="339"/>
      <point x="196" y="306" type="curve" smooth="yes"/>
      <point x="194" y="108" type="line" smooth="yes"/>
      <point x="194" y="32"/>
      <point x="213" y="-10"/>
    </contour>
  </outline>
</glyph>
<glyph name="nu" format="2">
  <advance width="359"/>
  <unicode hex="03BD"/>
  <anchor x="123" y="0" name="bottom"/>
  <anchor x="235" y="529" name="top"/>
  <outline>
    <contour>
      <point x="61" y="0" type="line"/>
      <point x="143" y="0" type="line"/>
      <point x="270" y="160"/>
      <point x="349" y="337"/>
      <point x="391" y="536" type="curve"/>
      <point x="312" y="536" type="line"/>
      <point x="276" y="367"/>
      <point x="211" y="208"/>
      <point x="135" y="97" type="curve"/>
      <point x="136" y="135"/>
      <point x="137" y="178"/>
      <point x="138" y="220" type="curve" smooth="yes"/>
      <point x="143" y="536" type="line"/>
      <point x="65" y="536" type="line"/>
    </contour>
  </outline>
</glyph>
<glyph name="xi" format="2">
  <advance width="319"/>
  <unicode hex="03BE"/>
  <anchor x="61" y="-198" name="bottom"/>
  <anchor x="265" y="760" name="top"/>
  <outline>
    <contour>
      <point x="63" y="-198" type="curve"/>
      <point x="145" y="-198" type="line"/>
      <point x="196" y="-142"/>
      <point x="227" y="-87"/>
      <point x="227" y="-30" type="curve" smooth="yes"/>
      <point x="227" y="21"/>
      <point x="202" y="45"/>
      <point x="163" y="71" type="curve" smooth="yes"/>
      <point x="117" y="102"/>
      <point x="96" y="121"/>
      <point x="96" y="182" type="curve" smooth="yes"/>
      <point x="96" y="288"/>
      <point x="152" y="365"/>
      <point x="250" y="365" type="curve" smooth="yes"/>
      <point x="289" y="365" type="line"/>
      <point x="303" y="434" type="line"/>
      <point x="269" y="434" type="line" smooth="yes"/>
      <point x="214" y="434"/>
      <point x="188" y="459"/>
      <point x="188" y="515" type="curve" smooth="yes"/>
      <point x="188" y="603"/>
      <point x="249" y="695"/>
      <point x="349" y="695" type="curve" smooth="yes"/>
      <point x="375" y="695" type="line"/>
      <point x="389" y="760" type="line"/>
      <point x="151" y="760" type="line"/>
      <point x="136" y="693" type="line"/>
      <point x="179" y="693" type="line" smooth="yes"/>
      <point x="197" y="693"/>
      <point x="216" y="694"/>
      <point x="239" y="697" type="curve"/>
      <point x="156" y="670"/>
      <point x="109" y="591"/>
      <point x="109" y="510" type="curve" smooth="yes"/>
      <point x="109" y="460"/>
      <point x="127" y="426"/>
      <point x="173" y="405" type="curve"/>
      <point x="172" y="402" type="line"/>
      <point x="66" y="377"/>
      <point x="15" y="274"/>
      <point x="15" y="171" type="curve" smooth="yes"/>
      <point x="15" y="89"/>
      <point x="45" y="50"/>
      <point x="100" y="14" type="curve" smooth="yes"/>
      <point x="129" y="-5"/>
      <point x="146" y="-21"/>
      <point x="147" y="-51" type="curve" smooth="yes"/>
      <point x="149" y="-99"/>
      <point x="99" y="-158"/>
    </contour>
  </outline>
</glyph>
<glyph name="pi" format="2">
  <advance width="432"/>
  <unicode hex="03C0"/>
  <anchor x="160" y="0" name="bottom"/>
  <anchor x="272" y="529" name="top"/>
  <outline>
    <contour>
      <point x="304" y="-7" type="curve" smooth="yes"/>
      <point x="323" y="-7"/>
      <point x="345" y="-2"/>
      <point x="362" y="7" type="curve"/>
      <point x="362" y="70" type="line"/>
      <point x="354" y="67"/>
      <point x="343" y="63"/>
      <point x="333" y="63" type="curve" smooth="yes"/>
      <point x="315" y="63"/>
      <point x="305" y="72"/>
      <point x="305" y="92" type="curve" smooth="yes"/>
      <point x="305" y="106"/>
      <point x="307" y="120"/>
      <point x="310" y="135" type="curve" smooth="yes"/>
      <point x="382" y="470" type="line"/>
      <point x="449" y="470" type="line"/>
      <point x="462" y="536" type="line"/>
      <point x="101" y="536" type="line"/>
      <point x="49" y="503" type="line"/>
      <point x="42" y="470" type="line"/>
      <point x="112" y="470" type="line"/>
      <point x="11" y="0" type="line"/>
      <point x="88" y="0" type="line"/>
      <point x="188" y="470" type="line"/>
      <point x="305" y="470" type="line"/>
      <point x="235" y="142" type="line" smooth="yes"/>
      <point x="230" y="117"/>
      <point x="227" y="93"/>
      <point x="227" y="76" type="curve" smooth="yes"/>
      <point x="227" y="19"/>
      <point x="256" y="-7"/>
    </contour>
  </outline>
</glyph>
<glyph name="rho" format="2">
  <advance width="415"/>
  <unicode hex="03C1"/>
  <anchor x="101" y="-240" name="bottom"/>
  <anchor x="264" y="529" name="top"/>
  <outline>
    <contour>
      <point x="64" y="305" type="curve" smooth="yes"/>
      <point x="-50" y="-240" type="line"/>
      <point x="26" y="-240" type="line"/>
      <point x="68" y="-39" type="line" smooth="yes"/>
      <point x="73" y="-13"/>
      <point x="79" y="12"/>
      <point x="81" y="33" type="curve"/>
      <point x="101" y="7"/>
      <point x="134" y="-10"/>
      <point x="179" y="-10" type="curve" smooth="yes"/>
      <point x="328" y="-10"/>
      <point x="394" y="238"/>
      <point x="394" y="388" type="curve" smooth="yes"/>
      <point x="394" y="487"/>
      <point x="348" y="546"/>
      <point x="262" y="546" type="curve" smooth="yes"/>
      <point x="152" y="546"/>
      <point x="98" y="467"/>
    </contour>
    <contour>
      <point x="169" y="58" type="curve" smooth="yes"/>
      <point x="136" y="58"/>
      <point x="112" y="76"/>
      <point x="99" y="102" type="curve"/>
      <point x="137" y="285" type="line" smooth="yes"/>
      <point x="165" y="423"/>
      <point x="197" y="478"/>
      <point x="254" y="478" type="curve" smooth="yes"/>
      <point x="294" y="478"/>
      <point x="314" y="445"/>
      <point x="314" y="386" type="curve" smooth="yes"/>
      <point x="314" y="268"/>
      <point x="269" y="58"/>
    </contour>
  </outline>
</glyph>
<glyph name="sigma1" format="2">
  <advance width="316"/>
  <unicode hex="03C2"/>
  <anchor x="60" y="-198" name="bottom"/>
  <anchor x="214" y="529" name="top"/>
  <outline>
    <contour>
      <point x="76" y="-198" type="curve"/>
      <point x="159" y="-198" type="line"/>
      <point x="209" y="-143"/>
      <point x="236" y="-90"/>
      <point x="236" y="-43" type="curve" smooth="yes"/>
      <point x="236" y="12"/>
      <point x="208" y="40"/>
      <point x="166" y="71" type="curve" smooth="yes"/>
      <point x="126" y="103"/>
      <point x="105" y="129"/>
      <point x="105" y="191" type="curve" smooth="yes"/>
      <point x="105" y="286"/>
      <point x="158" y="477"/>
      <point x="261" y="477" type="curve" smooth="yes"/>
      <point x="281" y="477"/>
      <point x="302" y="470"/>
      <point x="320" y="460" type="curve"/>
      <point x="350" y="523" type="line"/>
      <point x="326" y="538"/>
      <point x="295" y="546"/>
      <point x="259" y="546" type="curve" smooth="yes"/>
      <point x="99" y="546"/>
      <point x="24" y="332"/>
      <point x="24" y="182" type="curve" smooth="yes"/>
      <point x="25" y="95"/>
      <point x="45" y="60"/>
      <point x="106" y="14" type="curve" smooth="yes"/>
      <point x="137" y="-9"/>
      <point x="153" y="-29"/>
      <point x="153" y="-59" type="curve" smooth="yes"/>
      <point x="153" y="-96"/>
      <point x="127" y="-140"/>
    </contour>
  </outline>
</glyph>
<glyph name="sigma" format="2">
  <advance width="420"/>
  <unicode hex="03C3"/>
  <anchor x="154" y="0" name="bottom"/>
  <anchor x="266" y="529" name="top"/>
  <outline>
    <contour>
      <point x="153" y="-10" type="curve" smooth="yes"/>
      <point x="306" y="-10"/>
      <point x="374" y="211"/>
      <point x="374" y="367" type="curve" smooth="yes"/>
      <point x="374" y="408"/>
      <point x="367" y="441"/>
      <point x="358" y="469" type="curve"/>
      <point x="441" y="469" type="line"/>
      <point x="455" y="536" type="line"/>
      <point x="283" y="536" type="line" smooth="yes"/>
      <point x="95" y="536"/>
      <point x="25" y="314"/>
      <point x="25" y="152" type="curve" smooth="yes"/>
      <point x="25" y="50"/>
      <point x="73" y="-10"/>
    </contour>
    <contour>
      <point x="162" y="57" type="curve" smooth="yes"/>
      <point x="122" y="57"/>
      <point x="104" y="90"/>
      <point x="104" y="153" type="curve" smooth="yes"/>
      <point x="104" y="285"/>
      <point x="154" y="469"/>
      <point x="273" y="469" type="curve" smooth="yes"/>
      <point x="293" y="469" type="line"/>
      <point x="296" y="449"/>
      <point x="298" y="423"/>
      <point x="298" y="391" type="curve" smooth="yes"/>
      <point x="298" y="255"/>
      <point x="258" y="57"/>
    </contour>
  </outline>
</glyph>
<glyph name="tau" format="2">
  <advance width="280"/>
  <unicode hex="03C4"/>
  <anchor x="84" y="0" name="bottom"/>
  <anchor x="196" y="529" name="top"/>
  <outline>
    <contour>
      <point x="139" y="-11" type="curve" smooth="yes"/>
      <point x="162" y="-11"/>
      <point x="188" y="-6"/>
      <point x="209" y="5" type="curve"/>
      <point x="209" y="68" type="line"/>
      <point x="195" y="63"/>
      <point x="179" y="58"/>
      <point x="165" y="58" type="curve" smooth="yes"/>
      <point x="141" y="58"/>
      <point x="128" y="71"/>
      <point x="128" y="97" type="curve" smooth="yes"/>
      <point x="128" y="113"/>
      <point x="131" y="129"/>
      <point x="136" y="150" type="curve" smooth="yes"/>
      <point x="203" y="469" type="line"/>
      <point x="308" y="469" type="line"/>
      <point x="322" y="536" type="line"/>
      <point x="97" y="536" type="line"/>
      <point x="45" y="503" type="line"/>
      <point x="38" y="469" type="line"/>
      <point x="126" y="469" type="line"/>
      <point x="60" y="160" type="line" smooth="yes"/>
      <point x="52" y="127"/>
      <point x="49" y="101"/>
      <point x="49" y="80" type="curve" smooth="yes"/>
      <point x="49" y="20"/>
      <point x="82" y="-11"/>
    </contour>
  </outline>
</glyph>
<glyph name="upsilon" format="2">
  <advance width="411"/>
  <unicode hex="03C5"/>
  <anchor x="150" y="0" name="bottom"/>
  <anchor x="262" y="529" name="top"/>
  <outline>
    <contour>
      <point x="146" y="-9" type="curve" smooth="yes"/>
      <point x="337" y="-9"/>
      <point x="385" y="296"/>
      <point x="388" y="536" type="curve"/>
      <point x="312" y="536" type="line"/>
      <point x="309" y="375"/>
      <point x="273" y="60"/>
      <point x="154" y="60" type="curve" smooth="yes"/>
      <point x="123" y="60"/>
      <point x="105" y="82"/>
      <point x="105" y="121" type="curve" smooth="yes"/>
      <point x="105" y="150"/>
      <point x="112" y="185"/>
      <point x="120" y="222" type="curve" smooth="yes"/>
      <point x="187" y="536" type="line"/>
      <point x="110" y="536" type="line"/>
      <point x="44" y="232" type="line" smooth="yes"/>
      <point x="35" y="185"/>
      <point x="28" y="142"/>
      <point x="28" y="112" type="curve" smooth="yes"/>
      <point x="28" y="35"/>
      <point x="65" y="-9"/>
    </contour>
  </outline>
</glyph>
<glyph name="chi" format="2">
  <advance width="349"/>
  <unicode hex="03C7"/>
  <anchor x="67" y="-240" name="bottom"/>
  <anchor x="230" y="529" name="top"/>
  <anchor x="385" y="529" name="topright"/>
  <outline>
    <contour>
      <point x="-119" y="-240" type="line"/>
      <point x="-36" y="-240" type="line"/>
      <point x="115" y="56" type="line"/>
      <point x="115" y="-124" type="line" smooth="yes"/>
      <point x="117" y="-207"/>
      <point x="139" y="-240"/>
      <point x="192" y="-240" type="curve" smooth="yes"/>
      <point x="211" y="-240"/>
      <point x="232" y="-236"/>
      <point x="250" y="-228" type="curve"/>
      <point x="250" y="-163" type="line"/>
      <point x="241" y="-168"/>
      <point x="228" y="-171"/>
      <point x="219" y="-171" type="curve" smooth="yes"/>
      <point x="197" y="-171"/>
      <point x="190" y="-152"/>
      <point x="190" y="-108" type="curve" smooth="yes"/>
      <point x="186" y="162" type="line"/>
      <point x="389" y="536" type="line"/>
      <point x="306" y="536" type="line"/>
      <point x="181" y="286" type="line"/>
      <point x="182" y="437" type="line" smooth="yes"/>
      <point x="180" y="505"/>
      <point x="162" y="543"/>
      <point x="105" y="543" type="curve" smooth="yes"/>
      <point x="86" y="543"/>
      <point x="66" y="541"/>
      <point x="54" y="536" type="curve"/>
      <point x="47" y="469" type="line"/>
      <point x="56" y="472"/>
      <point x="67" y="475"/>
      <point x="78" y="475" type="curve" smooth="yes"/>
      <point x="101" y="475"/>
      <point x="107" y="452"/>
      <point x="107" y="409" type="curve" smooth="yes"/>
      <point x="110" y="177" type="line"/>
    </contour>
  </outline>
</glyph>
<glyph name="psi" format="2">
  <advance width="507"/>
  <unicode hex="03C8"/>
  <anchor x="147" y="-240" name="bottom"/>
  <anchor x="359" y="761" name="top"/>
  <outline>
    <contour>
      <point x="104" y="-240" type="line"/>
      <point x="180" y="-240" type="line"/>
      <point x="229" y="-10" type="line"/>
      <point x="441" y="-8"/>
      <point x="486" y="297"/>
      <point x="488" y="536" type="curve"/>
      <point x="412" y="536" type="line"/>
      <point x="411" y="363"/>
      <point x="376" y="61"/>
      <point x="244" y="61" type="curve"/>
      <point x="392" y="761" type="line"/>
      <point x="317" y="761" type="line"/>
      <point x="168" y="60" type="line"/>
      <point x="124" y="65"/>
      <point x="103" y="89"/>
      <point x="103" y="147" type="curve" smooth="yes"/>
      <point x="103" y="178"/>
      <point x="109" y="213"/>
      <point x="118" y="252" type="curve" smooth="yes"/>
      <point x="178" y="536" type="line"/>
      <point x="101" y="536" type="line"/>
      <point x="42" y="261" type="line" smooth="yes"/>
      <point x="33" y="215"/>
      <point x="27" y="175"/>
      <point x="27" y="143" type="curve" smooth="yes"/>
      <point x="27" y="51"/>
      <point x="70" y="1"/>
      <point x="154" y="-9" type="curve"/>
    </contour>
  </outline>
</glyph>
<glyph name="omega" format="2">
  <advance width="498"/>
  <unicode hex="03C9"/>
  <anchor x="194" y="0" name="bottom"/>
  <anchor x="306" y="529" name="top"/>
  <outline>
    <contour>
      <point x="103" y="-10" type="curve" smooth="yes"/>
      <point x="150" y="-10"/>
      <point x="183" y="19"/>
      <point x="207" y="74" type="curve"/>
      <point x="207" y="27"/>
      <point x="228" y="-10"/>
      <point x="284" y="-10" type="curve" smooth="yes"/>
      <point x="424" y="-10"/>
      <point x="477" y="271"/>
      <point x="477" y="441" type="curve" smooth="yes"/>
      <point x="477" y="482"/>
      <point x="475" y="513"/>
      <point x="473" y="536" type="curve"/>
      <point x="396" y="536" type="line"/>
      <point x="398" y="510"/>
      <point x="400" y="479"/>
      <point x="400" y="442" type="curve" smooth="yes"/>
      <point x="400" y="320"/>
      <point x="359" y="62"/>
      <point x="287" y="62" type="curve" smooth="yes"/>
      <point x="269" y="62"/>
      <point x="260" y="76"/>
      <point x="260" y="108" type="curve" smooth="yes"/>
      <point x="260" y="135"/>
      <point x="265" y="170"/>
      <point x="276" y="223" type="curve" smooth="yes"/>
      <point x="303" y="346" type="line"/>
      <point x="227" y="346" type="line"/>
      <point x="201" y="223" type="line" smooth="yes"/>
      <point x="178" y="112"/>
      <point x="161" y="62"/>
      <point x="124" y="62" type="curve" smooth="yes"/>
      <point x="105" y="62"/>
      <point x="93" y="81"/>
      <point x="93" y="123" type="curve" smooth="yes"/>
      <point x="93" y="245"/>
      <point x="145" y="406"/>
      <point x="213" y="536" type="curve"/>
      <point x="135" y="536" type="line"/>
      <point x="69" y="413"/>
      <point x="15" y="251"/>
      <point x="15" y="124" type="curve" smooth="yes"/>
      <point x="15" y="38"/>
      <point x="45" y="-10"/>
    </contour>
  </outline>
</glyph>
<glyph name="KaiSymbol" format="2">
  <advance width="403"/>
  <unicode hex="03CF"/>
  <outline>
    <contour>
      <point x="79" y="-240" type="curve" smooth="yes"/>
      <point x="206.994" y="-240"/>
      <point x="291" y="-173"/>
      <point x="343" y="0" type="curve"/>
      <point x="261" y="387" type="line"/>
      <point x="486" y="714" type="line"/>
      <point x="399" y="714" type="line"/>
      <point x="211" y="444" type="line"/>
      <point x="156" y="359" type="line"/>
      <point x="231" y="714" type="line"/>
      <point x="151" y="714" type="line"/>
      <point x="0" y="0" type="line"/>
      <point x="80" y="0" type="line"/>
      <point x="137" y="270" type="line"/>
      <point x="192" y="326" type="line"/>
      <point x="255" y="0" type="line"/>
      <point x="216" y="-128"/>
      <point x="158" y="-167"/>
      <point x="82" y="-167" type="curve" smooth="yes"/>
      <point x="27" y="-167"/>
      <point x="-13" y="-148"/>
      <point x="-44" y="-126" type="curve"/>
      <point x="-60" y="-203" type="line"/>
      <point x="-39" y="-218"/>
      <point x="14" y="-240"/>
    </contour>
  </outline>
</glyph>
<glyph name="uni03D0" format="2">
  <advance width="405"/>
  <unicode hex="03D0"/>
  <anchor x="145" y="-10" name="bottom"/>
  <anchor x="309" y="765" name="top"/>
  <outline>
    <contour>
      <point x="160" y="-10" type="curve" smooth="yes"/>
      <point x="288" y="-10"/>
      <point x="368" y="139"/>
      <point x="368" y="300" type="curve" smooth="yes"/>
      <point x="368" y="401"/>
      <point x="327" y="444"/>
      <point x="257" y="444" type="curve" smooth="yes"/>
      <point x="211" y="444"/>
      <point x="164" y="415"/>
      <point x="131" y="363" type="curve"/>
      <point x="149" y="449"/>
      <point x="167" y="508"/>
      <point x="196" y="571" type="curve"/>
      <point x="220" y="558"/>
      <point x="257" y="547"/>
      <point x="293" y="547" type="curve" smooth="yes"/>
      <point x="388" y="547"/>
      <point x="437" y="595"/>
      <point x="437" y="664" type="curve" smooth="yes"/>
      <point x="437" y="727"/>
      <point x="393" y="765"/>
      <point x="327" y="765" type="curve" smooth="yes"/>
      <point x="191" y="765"/>
      <point x="95" y="565"/>
      <point x="55" y="373" type="curve" smooth="yes"/>
      <point x="39" y="300"/>
      <point x="32" y="225"/>
      <point x="32" y="159" type="curve" smooth="yes"/>
      <point x="32" y="35"/>
      <point x="88" y="-10"/>
    </contour>
    <contour>
      <point x="165" y="58" type="curve" smooth="yes"/>
      <point x="133" y="58"/>
      <point x="109" y="85"/>
      <point x="109" y="156" type="curve" smooth="yes"/>
      <point x="109" y="201"/>
      <point x="113" y="251"/>
      <point x="120" y="289" type="curve"/>
      <point x="150" y="341"/>
      <point x="193" y="382"/>
      <point x="232" y="382" type="curve" smooth="yes"/>
      <point x="276" y="382"/>
      <point x="288" y="341"/>
      <point x="288" y="296" type="curve" smooth="yes"/>
      <point x="288" y="179"/>
      <point x="238" y="58"/>
    </contour>
    <contour>
      <point x="299" y="601" type="curve" smooth="yes"/>
      <point x="272" y="601"/>
      <point x="243" y="608"/>
      <point x="223" y="622" type="curve"/>
      <point x="251" y="670"/>
      <point x="287" y="709"/>
      <point x="327" y="709" type="curve" smooth="yes"/>
      <point x="359" y="709"/>
      <point x="378" y="692"/>
      <point x="378" y="661" type="curve" smooth="yes"/>
      <point x="378" y="625"/>
      <point x="355" y="601"/>
    </contour>
  </outline>
</glyph>
<glyph name="uni03D2" format="2">
  <advance width="352"/>
  <unicode hex="03D2"/>
  <anchor x="272" y="714" name="top"/>
  <outline>
    <contour>
      <point x="73" y="0" type="line"/>
      <point x="153" y="0" type="line"/>
      <point x="211" y="271" type="line"/>
      <point x="266" y="396"/>
      <point x="316" y="505"/>
      <point x="358" y="586" type="curve" smooth="yes"/>
      <point x="383" y="631"/>
      <point x="396" y="648"/>
      <point x="416" y="648" type="curve" smooth="yes"/>
      <point x="424" y="648"/>
      <point x="431" y="646"/>
      <point x="438" y="643" type="curve"/>
      <point x="449" y="711" type="line"/>
      <point x="439" y="717"/>
      <point x="425" y="720"/>
      <point x="408" y="720" type="curve" smooth="yes"/>
      <point x="369" y="720"/>
      <point x="349" y="700"/>
      <point x="325" y="659" type="curve" smooth="yes"/>
      <point x="294" y="609"/>
      <point x="245" y="507"/>
      <point x="192" y="383" type="curve"/>
      <point x="167" y="714" type="line"/>
      <point x="85" y="714" type="line"/>
      <point x="131" y="275" type="line"/>
    </contour>
  </outline>
</glyph>
<glyph name="uni03D6" format="2">
  <advance width="523"/>
  <unicode hex="03D6"/>
  <outline>
    <contour>
      <point x="114" y="-10" type="curve" smooth="yes"/>
      <point x="164" y="-10"/>
      <point x="193" y="19"/>
      <point x="219" y="81" type="curve"/>
      <point x="219" y="20"/>
      <point x="243" y="-10"/>
      <point x="295" y="-10" type="curve" smooth="yes"/>
      <point x="425" y="-10"/>
      <point x="485" y="252"/>
      <point x="485" y="416" type="curve" smooth="yes"/>
      <point x="485" y="436"/>
      <point x="484" y="453"/>
      <point x="483" y="469" type="curve"/>
      <point x="551" y="469" type="line"/>
      <point x="566" y="536" type="line"/>
      <point x="104" y="536" type="line"/>
      <point x="50" y="503" type="line"/>
      <point x="43" y="469" type="line"/>
      <point x="115" y="469" type="line"/>
      <point x="67" y="367"/>
      <point x="26" y="231"/>
      <point x="26" y="124" type="curve" smooth="yes"/>
      <point x="26" y="38"/>
      <point x="56" y="-10"/>
    </contour>
    <contour>
      <point x="135" y="62" type="curve" smooth="yes"/>
      <point x="115" y="62"/>
      <point x="104" y="81"/>
      <point x="104" y="123" type="curve" smooth="yes"/>
      <point x="104" y="229"/>
      <point x="143" y="360"/>
      <point x="194" y="469" type="curve"/>
      <point x="407" y="469" type="line"/>
      <point x="408" y="452"/>
      <point x="409" y="434"/>
      <point x="409" y="417" type="curve" smooth="yes"/>
      <point x="409" y="305"/>
      <point x="367" y="62"/>
      <point x="298" y="62" type="curve" smooth="yes"/>
      <point x="280" y="62"/>
      <point x="270" y="76"/>
      <point x="270" y="108" type="curve" smooth="yes"/>
      <point x="270" y="135"/>
      <point x="276" y="170"/>
      <point x="288" y="223" type="curve" smooth="yes"/>
      <point x="309" y="326" type="line"/>
      <point x="234" y="326" type="line"/>
      <point x="212" y="223" type="line" smooth="yes"/>
      <point x="193" y="136"/>
      <point x="177" y="62"/>
    </contour>
  </outline>
</glyph>
<glyph name="uni03D7" format="2">
  <advance width="451"/>
  <unicode hex="03D7"/>
  <outline>
    <contour>
      <point x="266" y="-240" type="curve" smooth="yes"/>
      <point x="322" y="-240"/>
      <point x="354" y="-210"/>
      <point x="369" y="-143" type="curve" smooth="yes"/>
      <point x="413" y="62" type="line"/>
      <point x="404" y="59"/>
      <point x="391" y="57"/>
      <point x="381" y="57" type="curve" smooth="yes"/>
      <point x="349" y="57"/>
      <point x="334" y="82"/>
      <point x="334" y="123" type="curve" smooth="yes"/>
      <point x="334" y="240"/>
      <point x="379" y="373"/>
      <point x="476" y="537" type="curve"/>
      <point x="399" y="536" type="line"/>
      <point x="136" y="203" type="line"/>
      <point x="165" y="268"/>
      <point x="188" y="347"/>
      <point x="188" y="421" type="curve" smooth="yes"/>
      <point x="188" y="498"/>
      <point x="157" y="547"/>
      <point x="83" y="547" type="curve" smooth="yes"/>
      <point x="67" y="547"/>
      <point x="46" y="544"/>
      <point x="34" y="539" type="curve"/>
      <point x="37" y="475" type="line"/>
      <point x="45" y="478"/>
      <point x="57" y="480"/>
      <point x="66" y="480" type="curve" smooth="yes"/>
      <point x="98" y="480"/>
      <point x="112" y="456"/>
      <point x="112" y="414" type="curve" smooth="yes"/>
      <point x="112" y="299"/>
      <point x="69" y="166"/>
      <point x="-30" y="0" type="curve"/>
      <point x="49" y="0" type="line"/>
      <point x="308" y="328" type="line"/>
      <point x="277" y="256"/>
      <point x="259" y="184"/>
      <point x="259" y="116" type="curve" smooth="yes"/>
      <point x="259" y="55"/>
      <point x="279" y="12"/>
      <point x="325" y="-1" type="curve"/>
      <point x="298" y="-124" type="line" smooth="yes"/>
      <point x="290" y="-160"/>
      <point x="274" y="-173"/>
      <point x="250" y="-173" type="curve" smooth="yes"/>
      <point x="237" y="-173"/>
      <point x="224" y="-170"/>
      <point x="213" y="-164" type="curve"/>
      <point x="213" y="-231" type="line"/>
      <point x="226" y="-236"/>
      <point x="245" y="-240"/>
    </contour>
  </outline>
</glyph>
<glyph name="uni03D8" format="2">
  <advance width="444"/>
  <unicode hex="03D8"/>
  <anchor x="166" y="0" name="bottom"/>
  <anchor x="317" y="714" name="top"/>
  <outline>
    <contour>
      <point x="154" y="169" type="curve"/>
      <point x="119" y="0" type="line"/>
      <point x="198" y="0" type="line"/>
      <point x="234" y="166" type="line"/>
      <point x="376" y="188"/>
      <point x="446" y="378"/>
      <point x="446" y="538" type="curve" smooth="yes"/>
      <point x="446" y="664"/>
      <point x="389" y="724"/>
      <point x="302" y="724" type="curve" smooth="yes"/>
      <point x="123" y="724"/>
      <point x="54" y="491"/>
      <point x="54" y="354" type="curve" smooth="yes"/>
      <point x="54" y="239"/>
      <point x="94" y="184"/>
    </contour>
    <contour>
      <point x="209" y="235" type="curve" smooth="yes"/>
      <point x="166" y="235"/>
      <point x="136" y="266"/>
      <point x="136" y="345" type="curve" smooth="yes"/>
      <point x="136" y="457"/>
      <point x="188" y="652"/>
      <point x="291" y="652" type="curve" smooth="yes"/>
      <point x="334" y="652"/>
      <point x="364" y="622"/>
      <point x="364" y="543" type="curve" smooth="yes"/>
      <point x="364" y="409"/>
      <point x="306" y="235"/>
    </contour>
  </outline>
</glyph>
<glyph name="uni03DA" format="2">
  <advance width="379"/>
  <unicode hex="03DA"/>
  <anchor x="134" y="0" name="bottom"/>
  <anchor x="285" y="714" name="top"/>
  <outline>
    <contour>
      <point x="177" y="144" type="curve"/>
      <point x="146" y="0" type="line"/>
      <point x="226" y="0" type="line"/>
      <point x="272" y="214" type="line"/>
      <point x="220" y="214" type="line" smooth="yes"/>
      <point x="150" y="214"/>
      <point x="128" y="263"/>
      <point x="128" y="339" type="curve" smooth="yes"/>
      <point x="128" y="460"/>
      <point x="194" y="652"/>
      <point x="334" y="652" type="curve" smooth="yes"/>
      <point x="364" y="652"/>
      <point x="395" y="642"/>
      <point x="418" y="623" type="curve"/>
      <point x="459" y="689" type="line"/>
      <point x="428" y="713"/>
      <point x="381" y="725"/>
      <point x="335" y="725" type="curve" smooth="yes"/>
      <point x="144" y="725"/>
      <point x="45" y="510"/>
      <point x="45" y="336" type="curve" smooth="yes"/>
      <point x="45" y="226"/>
      <point x="86" y="153"/>
    </contour>
  </outline>
</glyph>
<glyph name="uni03DB" format="2">
  <advance width="313"/>
  <unicode hex="03DB"/>
  <anchor x="62" y="-185" name="bottom"/>
  <anchor x="213" y="529" name="top"/>
  <outline>
    <contour>
      <point x="73" y="-185" type="curve" smooth="yes"/>
      <point x="176" y="-185"/>
      <point x="231" y="-125"/>
      <point x="231" y="-51" type="curve" smooth="yes"/>
      <point x="231" y="14"/>
      <point x="207" y="45"/>
      <point x="166" y="77" type="curve" smooth="yes"/>
      <point x="126" y="108"/>
      <point x="105" y="133"/>
      <point x="105" y="197" type="curve" smooth="yes"/>
      <point x="105" y="295"/>
      <point x="159" y="477"/>
      <point x="261" y="477" type="curve" smooth="yes"/>
      <point x="281" y="477"/>
      <point x="302" y="470"/>
      <point x="320" y="460" type="curve"/>
      <point x="350" y="523" type="line"/>
      <point x="325" y="538"/>
      <point x="295" y="546"/>
      <point x="259" y="546" type="curve" smooth="yes"/>
      <point x="99" y="546"/>
      <point x="24" y="338"/>
      <point x="24" y="187" type="curve" smooth="yes"/>
      <point x="24" y="100"/>
      <point x="46" y="64"/>
      <point x="109" y="20" type="curve" smooth="yes"/>
      <point x="136" y="0"/>
      <point x="148" y="-20"/>
      <point x="148" y="-51" type="curve" smooth="yes"/>
      <point x="148" y="-85"/>
      <point x="120" y="-116"/>
      <point x="65" y="-116" type="curve" smooth="yes"/>
      <point x="47" y="-116"/>
      <point x="26" y="-113"/>
      <point x="9" y="-107" type="curve"/>
      <point x="9" y="-179" type="line"/>
      <point x="27" y="-183"/>
      <point x="50" y="-185"/>
    </contour>
  </outline>
</glyph>
<glyph name="uni03DC" format="2">
  <advance width="327"/>
  <unicode hex="03DC"/>
  <anchor x="107" y="0" name="bottom"/>
  <anchor x="259" y="714" name="top"/>
  <outline>
    <contour>
      <point x="0" y="0" type="line"/>
      <point x="80" y="0" type="line"/>
      <point x="149" y="329" type="line"/>
      <point x="234" y="329" type="line"/>
      <point x="211" y="223" type="line"/>
      <point x="275" y="223" type="line"/>
      <point x="314" y="401" type="line"/>
      <point x="165" y="401" type="line"/>
      <point x="215" y="641" type="line"/>
      <point x="378" y="641" type="line"/>
      <point x="393" y="714" type="line"/>
      <point x="151" y="714" type="line"/>
    </contour>
  </outline>
</glyph>
<glyph name="uni03DD" format="2">
  <advance width="372"/>
  <unicode hex="03DD"/>
  <anchor x="80" y="-240" name="bottom"/>
  <anchor x="243" y="529" name="top"/>
  <outline>
    <contour>
      <point x="-51" y="-240" type="line"/>
      <point x="27" y="-240" type="line"/>
      <point x="115" y="173" type="line"/>
      <point x="244" y="173" type="line"/>
      <point x="217" y="48" type="line"/>
      <point x="281" y="48" type="line"/>
      <point x="323" y="240" type="line"/>
      <point x="129" y="240" type="line"/>
      <point x="178" y="469" type="line"/>
      <point x="380" y="469" type="line"/>
      <point x="394" y="536" type="line"/>
      <point x="115" y="536" type="line"/>
    </contour>
  </outline>
</glyph>
<glyph name="uni03DE" format="2">
  <advance width="443"/>
  <unicode hex="03DE"/>
  <anchor x="166" y="0" name="bottom"/>
  <anchor x="317" y="714" name="top"/>
  <outline>
    <contour>
      <point x="335" y="-11" type="curve" smooth="yes"/>
      <point x="358" y="-11"/>
      <point x="378" y="-8"/>
      <point x="390" y="-4" type="curve"/>
      <point x="392" y="63" type="line"/>
      <point x="383" y="60"/>
      <point x="371" y="58"/>
      <point x="359" y="58" type="curve" smooth="yes"/>
      <point x="331" y="58"/>
      <point x="315" y="72"/>
      <point x="315" y="106" type="curve" smooth="yes"/>
      <point x="315" y="137"/>
      <point x="325" y="171"/>
      <point x="335" y="209" type="curve" smooth="yes"/>
      <point x="387" y="410" type="line"/>
      <point x="183" y="410" type="line"/>
      <point x="208" y="511" type="line" smooth="yes"/>
      <point x="216" y="544"/>
      <point x="227" y="583"/>
      <point x="227" y="622" type="curve" smooth="yes"/>
      <point x="227" y="680"/>
      <point x="195" y="724"/>
      <point x="128" y="724" type="curve" smooth="yes"/>
      <point x="103.998" y="724"/>
      <point x="78" y="719"/>
      <point x="64" y="714" type="curve"/>
      <point x="70" y="649" type="line"/>
      <point x="79" y="652"/>
      <point x="91" y="655"/>
      <point x="104" y="655" type="curve" smooth="yes"/>
      <point x="132" y="655"/>
      <point x="147" y="641"/>
      <point x="147" y="607" type="curve" smooth="yes"/>
      <point x="147" y="576"/>
      <point x="136" y="537"/>
      <point x="127" y="502" type="curve" smooth="yes"/>
      <point x="85" y="336" type="line"/>
      <point x="288" y="336" type="line"/>
      <point x="256" y="208" type="line" smooth="yes"/>
      <point x="245" y="169"/>
      <point x="235" y="130"/>
      <point x="235" y="91" type="curve" smooth="yes"/>
      <point x="235" y="32"/>
      <point x="268" y="-11"/>
    </contour>
  </outline>
</glyph>
<glyph name="uni03DF" format="2">
  <advance width="380"/>
  <unicode hex="03DF"/>
  <anchor x="83" y="-240" name="bottom"/>
  <anchor x="297" y="765" name="top"/>
  <outline>
    <contour>
      <point x="243" y="-240" type="curve" smooth="yes"/>
      <point x="259" y="-240"/>
      <point x="278" y="-237"/>
      <point x="290" y="-232" type="curve"/>
      <point x="290" y="-167" type="line"/>
      <point x="281" y="-170"/>
      <point x="269" y="-172"/>
      <point x="259" y="-172" type="curve" smooth="yes"/>
      <point x="228" y="-172"/>
      <point x="216" y="-155"/>
      <point x="216" y="-123" type="curve" smooth="yes"/>
      <point x="216" y="-89"/>
      <point x="231" y="-42"/>
      <point x="246" y="-1" type="curve" smooth="yes"/>
      <point x="345" y="280" type="line"/>
      <point x="345" y="332" type="line"/>
      <point x="117" y="280" type="line"/>
      <point x="203" y="519" type="line" smooth="yes"/>
      <point x="218" y="561"/>
      <point x="237" y="616"/>
      <point x="237" y="655" type="curve" smooth="yes"/>
      <point x="237" y="720"/>
      <point x="207" y="765"/>
      <point x="133" y="765" type="curve" smooth="yes"/>
      <point x="116" y="765"/>
      <point x="94" y="761"/>
      <point x="82" y="756" type="curve"/>
      <point x="85" y="692" type="line"/>
      <point x="93" y="695"/>
      <point x="105" y="697"/>
      <point x="117" y="697" type="curve" smooth="yes"/>
      <point x="147" y="697"/>
      <point x="159" y="680"/>
      <point x="159" y="648" type="curve" smooth="yes"/>
      <point x="159" y="615"/>
      <point x="143" y="567"/>
      <point x="129" y="527" type="curve" smooth="yes"/>
      <point x="30" y="248" type="line"/>
      <point x="30" y="197" type="line"/>
      <point x="258" y="247" type="line"/>
      <point x="172" y="7" type="line" smooth="yes"/>
      <point x="157" y="-36"/>
      <point x="138" y="-90"/>
      <point x="138" y="-131" type="curve" smooth="yes"/>
      <point x="138" y="-196"/>
      <point x="169" y="-240"/>
    </contour>
  </outline>
</glyph>
<glyph name="uni03FA" format="2">
  <advance width="554"/>
  <unicode hex="03FA"/>
  <anchor x="221" y="0" name="bottom"/>
  <anchor x="372" y="714" name="top"/>
  <outline>
    <contour>
      <point x="0" y="0" type="line"/>
      <point x="76" y="0" type="line"/>
      <point x="178" y="482" type="line" smooth="yes"/>
      <point x="186" y="518"/>
      <point x="191" y="555"/>
      <point x="199" y="596" type="curve"/>
      <point x="201" y="596" type="line"/>
      <point x="221" y="233" type="line"/>
      <point x="299" y="233" type="line"/>
      <point x="469" y="597" type="line"/>
      <point x="471" y="597" type="line"/>
      <point x="464" y="566"/>
      <point x="456" y="536"/>
      <point x="449" y="503" type="curve" smooth="yes"/>
      <point x="343" y="0" type="line"/>
      <point x="422" y="0" type="line"/>
      <point x="573" y="714" type="line"/>
      <point x="454" y="714" type="line"/>
      <point x="282" y="351" type="line"/>
      <point x="280" y="351" type="line"/>
      <point x="266" y="714" type="line"/>
      <point x="151" y="714" type="line"/>
    </contour>
  </outline>
</glyph>
<glyph name="uni03FB" format="2">
  <advance width="454"/>
  <unicode hex="03FB"/>
  <anchor x="120" y="-240" name="bottom"/>
  <anchor x="283" y="529" name="top"/>
  <outline>
    <contour>
      <point x="-50" y="-240" type="line"/>
      <point x="23" y="-240" type="line"/>
      <point x="140" y="313" type="line" smooth="yes"/>
      <point x="148" y="351"/>
      <point x="155" y="388"/>
      <point x="162" y="424" type="curve"/>
      <point x="174" y="182" type="line"/>
      <point x="241" y="182" type="line"/>
      <point x="356" y="424" type="line"/>
      <point x="346" y="385"/>
      <point x="337" y="345"/>
      <point x="328" y="304" type="curve" smooth="yes"/>
      <point x="263" y="0" type="line"/>
      <point x="337" y="0" type="line"/>
      <point x="451" y="536" type="line"/>
      <point x="350" y="536" type="line"/>
      <point x="224" y="274" type="line"/>
      <point x="214" y="536" type="line"/>
      <point x="115" y="536" type="line"/>
    </contour>
  </outline>
</glyph>
<glyph name="uni03FC" format="2">
  <advance width="415"/>
  <unicode hex="03FC"/>
  <anchor x="101" y="-240" name="bottom"/>
  <anchor x="264" y="529" name="top"/>
  <outline>
    <contour>
      <point x="-85" y="-144" type="line"/>
      <point x="162" y="-144" type="line"/>
      <point x="174" y="-84" type="line"/>
      <point x="-73" y="-84" type="line"/>
    </contour>
    <component base="rho"/>
  </outline>
</glyph>
<glyph name="afii10145" format="2">
  <advance width="478"/>
  <unicode hex="040F"/>
  <anchor x="143" y="-191" name="bottom"/>
  <anchor x="334" y="714" name="top"/>
  <outline>
    <contour>
      <point x="96" y="-191" type="line"/>
      <point x="174" y="-191" type="line"/>
      <point x="215" y="0" type="line"/>
      <point x="350" y="0" type="line"/>
      <point x="502" y="714" type="line"/>
      <point x="422" y="714" type="line"/>
      <point x="285" y="72" type="line"/>
      <point x="96" y="72" type="line"/>
      <point x="233" y="714" type="line"/>
      <point x="153" y="714" type="line"/>
      <point x="1" y="0" type="line"/>
      <point x="136" y="0" type="line"/>
    </contour>
  </outline>
</glyph>
<glyph name="afii10040" format="2">
  <advance width="500"/>
  <unicode hex="0426"/>
  <anchor x="153" y="-191" name="bottom"/>
  <anchor x="345" y="714" name="top"/>
  <outline>
    <contour>
      <point x="295" y="-191" type="line"/>
      <point x="373" y="-191" type="line"/>
      <point x="430" y="72" type="line"/>
      <point x="370" y="72" type="line"/>
      <point x="506" y="714" type="line"/>
      <point x="426" y="714" type="line"/>
      <point x="290" y="72" type="line"/>
      <point x="99" y="72" type="line"/>
      <point x="236" y="714" type="line"/>
      <point x="156" y="714" type="line"/>
      <point x="4" y="0" type="line"/>
      <point x="336" y="0" type="line"/>
    </contour>
  </outline>
</glyph>
<glyph name="afii10041" format="2">
  <advance width="463"/>
  <unicode hex="0427"/>
  <anchor x="176" y="0" name="bottom"/>
  <anchor x="249" y="0" name="bottomright"/>
  <anchor x="324" y="714" name="top"/>
  <outline>
    <contour>
      <point x="249" y="0" type="line"/>
      <point x="329" y="0" type="line"/>
      <point x="480" y="714" type="line"/>
      <point x="400" y="714" type="line"/>
      <point x="325" y="361" type="line"/>
      <point x="291" y="340"/>
      <point x="253" y="323"/>
      <point x="214" y="323" type="curve" smooth="yes"/>
      <point x="173" y="323"/>
      <point x="152" y="344"/>
      <point x="152" y="390" type="curve" smooth="yes"/>
      <point x="152" y="407"/>
      <point x="154" y="424"/>
      <point x="159" y="447" type="curve" smooth="yes"/>
      <point x="216" y="714" type="line"/>
      <point x="136" y="714" type="line"/>
      <point x="77" y="439" type="line" smooth="yes"/>
      <point x="72" y="417"/>
      <point x="69" y="391"/>
      <point x="69" y="369" type="curve" smooth="yes"/>
      <point x="69" y="293"/>
      <point x="109" y="250"/>
      <point x="183" y="250" type="curve" smooth="yes"/>
      <point x="223" y="250"/>
      <point x="270" y="268"/>
      <point x="311" y="292" type="curve"/>
    </contour>
  </outline>
</glyph>
<glyph name="uni0460" format="2">
  <advance width="669"/>
  <unicode hex="0460"/>
  <anchor x="279" y="0" name="bottom"/>
  <anchor x="430" y="714" name="top"/>
  <outline>
    <contour>
      <point x="113" y="0" type="curve"/>
      <point x="189" y="0" type="line"/>
      <point x="330" y="340" type="line"/>
      <point x="330" y="239"/>
      <point x="336" y="122"/>
      <point x="354" y="0" type="curve"/>
      <point x="425" y="0" type="line"/>
      <point x="587" y="247"/>
      <point x="676" y="476"/>
      <point x="720" y="714" type="curve"/>
      <point x="638" y="714" type="line"/>
      <point x="604" y="518"/>
      <point x="528" y="314"/>
      <point x="412" y="121" type="curve"/>
      <point x="409" y="121" type="line"/>
      <point x="387" y="316"/>
      <point x="397" y="521"/>
      <point x="435" y="714" type="curve"/>
      <point x="365" y="714" type="line"/>
      <point x="352" y="651"/>
      <point x="342" y="584"/>
      <point x="335" y="515" type="curve"/>
      <point x="227" y="267" type="line" smooth="yes"/>
      <point x="205" y="215"/>
      <point x="186" y="168"/>
      <point x="171" y="121" type="curve"/>
      <point x="168" y="121" type="line"/>
      <point x="133" y="314"/>
      <point x="141" y="521"/>
      <point x="192" y="714" type="curve"/>
      <point x="114.006" y="714" type="line"/>
      <point x="58" y="492"/>
      <point x="54" y="281"/>
    </contour>
  </outline>
</glyph>
<glyph name="uni0461" format="2">
  <advance width="573"/>
  <unicode hex="0461"/>
  <anchor x="231" y="0" name="bottom"/>
  <anchor x="343" y="529" name="top"/>
  <outline>
    <contour>
      <point x="83" y="0" type="curve"/>
      <point x="147" y="0" type="line"/>
      <point x="269" y="214" type="line"/>
      <point x="270" y="143"/>
      <point x="277" y="71"/>
      <point x="289" y="0" type="curve"/>
      <point x="351" y="0" type="line"/>
      <point x="484" y="150"/>
      <point x="555" y="325"/>
      <point x="600" y="536" type="curve"/>
      <point x="523" y="536" type="line"/>
      <point x="487" y="368"/>
      <point x="438" y="234"/>
      <point x="348" y="100" type="curve"/>
      <point x="345" y="100" type="line"/>
      <point x="327" y="246"/>
      <point x="334" y="390"/>
      <point x="363" y="536" type="curve"/>
      <point x="288" y="536" type="line"/>
      <point x="276" y="468"/>
      <point x="269" y="396"/>
      <point x="266" y="326" type="curve"/>
      <point x="191" y="196" type="line" smooth="yes"/>
      <point x="173" y="164"/>
      <point x="156" y="134"/>
      <point x="141" y="100" type="curve"/>
      <point x="138" y="100" type="line"/>
      <point x="113" y="243"/>
      <point x="118" y="396"/>
      <point x="148" y="536" type="curve"/>
      <point x="69" y="536" type="line"/>
      <point x="40" y="369"/>
      <point x="44" y="186"/>
    </contour>
  </outline>
</glyph>
<glyph name="uni0463" format="2">
  <advance width="384"/>
  <unicode hex="0463"/>
  <anchor x="138" y="0" name="bottom"/>
  <anchor x="274" y="644" name="top"/>
  <outline>
    <contour>
      <point x="159" y="-10" type="curve" smooth="yes"/>
      <point x="269" y="-10"/>
      <point x="335" y="76"/>
      <point x="335" y="176" type="curve" smooth="yes"/>
      <point x="335" y="263"/>
      <point x="290" y="309"/>
      <point x="204" y="309" type="curve" smooth="yes"/>
      <point x="183" y="309"/>
      <point x="164" y="307"/>
      <point x="151" y="305" type="curve"/>
      <point x="188" y="477" type="line"/>
      <point x="270" y="477" type="line"/>
      <point x="283" y="536" type="line"/>
      <point x="200" y="536" type="line"/>
      <point x="224" y="644" type="line"/>
      <point x="147" y="644" type="line"/>
      <point x="123" y="536" type="line"/>
      <point x="54" y="536" type="line"/>
      <point x="41" y="477" type="line"/>
      <point x="111" y="477" type="line"/>
      <point x="47" y="179" type="line" smooth="yes"/>
      <point x="42" y="156"/>
      <point x="38" y="130"/>
      <point x="38" y="107" type="curve" smooth="yes"/>
      <point x="38" y="32"/>
      <point x="76" y="-10"/>
    </contour>
    <contour>
      <point x="167" y="52" type="curve" smooth="yes"/>
      <point x="132" y="52"/>
      <point x="114" y="74"/>
      <point x="114" y="113" type="curve" smooth="yes"/>
      <point x="114" y="137"/>
      <point x="120" y="174"/>
      <point x="138" y="242" type="curve"/>
      <point x="157" y="245"/>
      <point x="174" y="247"/>
      <point x="190" y="247" type="curve" smooth="yes"/>
      <point x="234" y="247"/>
      <point x="256" y="222"/>
      <point x="256" y="170" type="curve" smooth="yes"/>
      <point x="255" y="118"/>
      <point x="228" y="52"/>
    </contour>
  </outline>
</glyph>
<glyph name="psilipneumatacomb-cy" format="2">
  <unicode hex="0486"/>
  <anchor x="-218" y="529" name="_top"/>
  <anchor x="-171" y="783" name="top"/>
  <outline>
    <contour>
      <point x="-241" y="604" type="line"/>
      <point x="-169" y="612"/>
      <point x="-127" y="652"/>
      <point x="-127" y="713" type="curve" smooth="yes"/>
      <point x="-127" y="758"/>
      <point x="-150" y="783"/>
      <point x="-184" y="783" type="curve" smooth="yes"/>
      <point x="-212" y="783"/>
      <point x="-228" y="765"/>
      <point x="-228" y="745" type="curve" smooth="yes"/>
      <point x="-228" y="726"/>
      <point x="-220" y="715"/>
      <point x="-202" y="708" type="curve" smooth="yes"/>
      <point x="-187" y="702"/>
      <point x="-180" y="694"/>
      <point x="-180" y="681" type="curve" smooth="yes"/>
      <point x="-180" y="657"/>
      <point x="-212" y="643"/>
      <point x="-241" y="638" type="curve"/>
    </contour>
  </outline>
</glyph>
<glyph name="uni0488" format="2">
  <advance width="927"/>
  <unicode hex="0488"/>
  <outline>
    <contour>
      <point x="601" y="460" type="curve"/>
      <point x="641" y="460" type="line"/>
      <point x="645" y="494"/>
      <point x="665" y="508"/>
      <point x="704" y="508" type="curve" smooth="yes"/>
      <point x="745" y="508"/>
      <point x="764" y="493"/>
      <point x="768" y="460" type="curve"/>
      <point x="807" y="460" type="line"/>
      <point x="804" y="524"/>
      <point x="766" y="557"/>
      <point x="706" y="557" type="curve" smooth="yes"/>
      <point x="643" y="557"/>
      <point x="604" y="520"/>
    </contour>
    <contour>
      <point x="85" y="-20" type="curve"/>
      <point x="125" y="-20" type="line"/>
      <point x="129" y="14"/>
      <point x="150" y="28"/>
      <point x="188" y="28" type="curve" smooth="yes"/>
      <point x="229" y="28"/>
      <point x="248" y="12"/>
      <point x="252" y="-20" type="curve"/>
      <point x="292" y="-20" type="line"/>
      <point x="288" y="43"/>
      <point x="253" y="77"/>
      <point x="190" y="77" type="curve" smooth="yes"/>
      <point x="127" y="77"/>
      <point x="88" y="40"/>
    </contour>
    <contour>
      <point x="339" y="-156" type="curve"/>
      <point x="379" y="-156" type="line"/>
      <point x="383" y="-123"/>
      <point x="404" y="-108"/>
      <point x="442" y="-108" type="curve" smooth="yes"/>
      <point x="483" y="-108"/>
      <point x="502" y="-124"/>
      <point x="506" y="-156" type="curve"/>
      <point x="546" y="-156" type="line"/>
      <point x="542" y="-92"/>
      <point x="504" y="-59"/>
      <point x="444" y="-59" type="curve" smooth="yes"/>
      <point x="381" y="-59"/>
      <point x="342" y="-97"/>
    </contour>
    <contour>
      <point x="2" y="222" type="curve"/>
      <point x="42" y="222" type="line"/>
      <point x="46" y="257"/>
      <point x="67" y="270"/>
      <point x="105" y="270" type="curve" smooth="yes"/>
      <point x="146" y="270"/>
      <point x="165" y="255"/>
      <point x="169" y="222" type="curve"/>
      <point x="208" y="222" type="line"/>
      <point x="206" y="285"/>
      <point x="170" y="319"/>
      <point x="107" y="319" type="curve" smooth="yes"/>
      <point x="45" y="319"/>
      <point x="4" y="281"/>
    </contour>
    <contour>
      <point x="85" y="460" type="curve"/>
      <point x="125" y="460" type="line"/>
      <point x="129" y="494"/>
      <point x="149" y="508"/>
      <point x="188" y="508" type="curve" smooth="yes"/>
      <point x="229" y="508"/>
      <point x="248" y="493"/>
      <point x="252" y="460" type="curve"/>
      <point x="292" y="460" type="line"/>
      <point x="288" y="523"/>
      <point x="253" y="557"/>
      <point x="190" y="557" type="curve" smooth="yes"/>
      <point x="128" y="557"/>
      <point x="88" y="520"/>
    </contour>
    <contour>
      <point x="601" y="-20" type="curve"/>
      <point x="641" y="-20" type="line"/>
      <point x="645" y="14"/>
      <point x="666" y="28"/>
      <point x="704" y="28" type="curve" smooth="yes"/>
      <point x="745" y="28"/>
      <point x="764" y="12"/>
      <point x="768" y="-20" type="curve"/>
      <point x="807" y="-20" type="line"/>
      <point x="804" y="44"/>
      <point x="766" y="77"/>
      <point x="706" y="77" type="curve" smooth="yes"/>
      <point x="643" y="77"/>
      <point x="604" y="40"/>
    </contour>
    <contour>
      <point x="685" y="222" type="curve"/>
      <point x="725" y="222" type="line"/>
      <point x="729" y="257"/>
      <point x="750" y="270"/>
      <point x="788" y="270" type="curve" smooth="yes"/>
      <point x="829" y="270"/>
      <point x="848" y="255"/>
      <point x="852" y="222" type="curve"/>
      <point x="891" y="222" type="line"/>
      <point x="889" y="285"/>
      <point x="853" y="319"/>
      <point x="790" y="319" type="curve" smooth="yes"/>
      <point x="728" y="319"/>
      <point x="687" y="281"/>
    </contour>
    <contour>
      <point x="339" y="599" type="curve"/>
      <point x="379" y="599" type="line"/>
      <point x="383" y="633"/>
      <point x="404" y="647"/>
      <point x="442" y="647" type="curve" smooth="yes"/>
      <point x="483" y="647"/>
      <point x="502" y="632"/>
      <point x="506" y="599" type="curve"/>
      <point x="546" y="599" type="line"/>
      <point x="542" y="663"/>
      <point x="506" y="696"/>
      <point x="444" y="696" type="curve" smooth="yes"/>
      <point x="382" y="696"/>
      <point x="342" y="660"/>
    </contour>
  </outline>
</glyph>
<glyph name="uni0489" format="2">
  <advance width="935"/>
  <unicode hex="0489"/>
  <outline>
    <contour>
      <point x="669" y="460" type="line"/>
      <point x="694" y="480"/>
      <point x="778" y="540"/>
      <point x="803" y="557" type="curve"/>
      <point x="779" y="581" type="line"/>
      <point x="731" y="568"/>
      <point x="665" y="540"/>
      <point x="627" y="515" type="curve"/>
      <point x="622" y="508" type="line"/>
    </contour>
    <contour>
      <point x="132" y="-42" type="line"/>
      <point x="179" y="-29"/>
      <point x="249" y="1"/>
      <point x="283" y="24" type="curve"/>
      <point x="289" y="32" type="line"/>
      <point x="241" y="79" type="line"/>
      <point x="195" y="41"/>
      <point x="152" y="11"/>
      <point x="105" y="-16" type="curve"/>
    </contour>
    <contour>
      <point x="169" y="218" type="curve"/>
      <point x="178" y="220" type="line"/>
      <point x="178" y="287" type="line"/>
      <point x="127" y="292"/>
      <point x="74" y="300"/>
      <point x="15" y="316" type="curve"/>
      <point x="15" y="279" type="line"/>
      <point x="54" y="257"/>
      <point x="126" y="227"/>
    </contour>
    <contour>
      <point x="410" y="-180" type="curve"/>
      <point x="446" y="-180" type="line"/>
      <point x="467" y="-142"/>
      <point x="498" y="-65"/>
      <point x="506" y="-26" type="curve"/>
      <point x="505" y="-17" type="line"/>
      <point x="438" y="-17" type="line"/>
      <point x="435" y="-46"/>
      <point x="426" y="-95"/>
    </contour>
    <contour>
      <point x="738" y="-79" type="curve"/>
      <point x="765" y="-54" type="line"/>
      <point x="754" y="-13"/>
      <point x="721" y="63"/>
      <point x="699" y="96" type="curve"/>
      <point x="691" y="102" type="line"/>
      <point x="644" y="55" type="line"/>
      <point x="675" y="18"/>
      <point x="702" y="-21"/>
    </contour>
    <contour>
      <point x="218" y="437" type="line"/>
      <point x="265" y="485" type="line"/>
      <point x="235" y="520"/>
      <point x="205" y="562"/>
      <point x="171" y="620" type="curve"/>
      <point x="144" y="594" type="line"/>
      <point x="155" y="554"/>
      <point x="187" y="477"/>
      <point x="210" y="443" type="curve"/>
    </contour>
    <contour>
      <point x="895" y="226" type="curve"/>
      <point x="895" y="262" type="line"/>
      <point x="861" y="282"/>
      <point x="782" y="312"/>
      <point x="741" y="321" type="curve"/>
      <point x="732" y="319" type="line"/>
      <point x="732" y="252" type="line"/>
      <point x="760" y="250"/>
      <point x="823" y="241"/>
    </contour>
    <contour>
      <point x="405" y="557" type="line"/>
      <point x="472" y="557" type="line"/>
      <point x="477" y="611"/>
      <point x="486" y="660"/>
      <point x="501" y="720" type="curve"/>
      <point x="465" y="720" type="line"/>
      <point x="442" y="682"/>
      <point x="413" y="608"/>
      <point x="404" y="566" type="curve"/>
    </contour>
  </outline>
</glyph>
<glyph name="uni048F" format="2">
  <advance width="417"/>
  <unicode hex="048F"/>
  <anchor x="103" y="-233" name="bottom"/>
  <anchor x="265" y="529" name="top"/>
  <anchor x="453" y="529" name="topright"/>
  <outline>
    <contour>
      <point x="257" y="-76" type="line"/>
      <point x="304" y="-59" type="line"/>
      <point x="215" y="188" type="line"/>
      <point x="168" y="171" type="line"/>
    </contour>
    <component base="p"/>
  </outline>
</glyph>
<glyph name="afii10098" format="2">
  <advance width="288"/>
  <unicode hex="0491"/>
  <anchor x="88" y="0" name="bottom"/>
  <anchor x="235" y="691" name="top"/>
  <outline>
    <contour>
      <point x="-6" y="0" type="line"/>
      <point x="71" y="0" type="line"/>
      <point x="170" y="468" type="line"/>
      <point x="306" y="468" type="line"/>
      <point x="353" y="691" type="line"/>
      <point x="279" y="691" type="line"/>
      <point x="246" y="536" type="line"/>
      <point x="108" y="536" type="line"/>
    </contour>
  </outline>
</glyph>
<glyph name="uni049F" format="2">
  <advance width="355"/>
  <unicode hex="049F"/>
  <anchor x="122" y="0" name="bottom"/>
  <anchor x="285" y="761" name="top"/>
  <outline>
    <contour>
      <point x="0" y="0" type="line"/>
      <point x="77" y="0" type="line"/>
      <point x="135" y="274" type="line"/>
      <point x="215" y="0" type="line"/>
      <point x="298" y="0" type="line"/>
      <point x="212" y="278" type="line"/>
      <point x="402" y="536" type="line"/>
      <point x="316" y="536" type="line"/>
      <point x="138" y="285" type="line"/>
      <point x="206" y="611" type="line"/>
      <point x="306" y="611" type="line"/>
      <point x="319" y="671" type="line"/>
      <point x="219" y="671" type="line"/>
      <point x="239" y="761" type="line"/>
      <point x="162" y="761" type="line"/>
      <point x="143" y="671" type="line"/>
      <point x="84" y="671" type="line"/>
      <point x="71" y="611" type="line"/>
      <point x="130" y="611" type="line"/>
    </contour>
  </outline>
</glyph>
<glyph name="uni04BE" format="2">
  <advance width="568"/>
  <unicode hex="04BE"/>
  <anchor x="188" y="-191" name="bottom"/>
  <anchor x="380" y="714" name="top"/>
  <outline>
    <contour>
      <point x="218" y="-191" type="line"/>
      <point x="296" y="-191" type="line"/>
      <point x="336" y="-6" type="line"/>
      <point x="377" y="-2"/>
      <point x="416" y="11"/>
      <point x="451" y="33" type="curve"/>
      <point x="451" y="107" type="line"/>
      <point x="408" y="82"/>
      <point x="365" y="62"/>
      <point x="314" y="62" type="curve" smooth="yes"/>
      <point x="242" y="62"/>
      <point x="206" y="111"/>
      <point x="206" y="214" type="curve" smooth="yes"/>
      <point x="206" y="251"/>
      <point x="209" y="288"/>
      <point x="214" y="326" type="curve"/>
      <point x="223" y="326" type="line" smooth="yes"/>
      <point x="412" y="326"/>
      <point x="561" y="403"/>
      <point x="561" y="580" type="curve" smooth="yes"/>
      <point x="561" y="671"/>
      <point x="506" y="725"/>
      <point x="422" y="725" type="curve" smooth="yes"/>
      <point x="277" y="725"/>
      <point x="185" y="571"/>
      <point x="144" y="393" type="curve"/>
      <point x="140" y="393" type="line" smooth="yes"/>
      <point x="111" y="393"/>
      <point x="98" y="404"/>
      <point x="98" y="428" type="curve" smooth="yes"/>
      <point x="98" y="450"/>
      <point x="107" y="474"/>
      <point x="121" y="499" type="curve"/>
      <point x="53" y="499" type="line"/>
      <point x="35" y="471"/>
      <point x="25" y="440"/>
      <point x="25" y="410" type="curve" smooth="yes"/>
      <point x="25" y="355"/>
      <point x="58" y="326"/>
      <point x="130" y="326" type="curve"/>
      <point x="125" y="288"/>
      <point x="122" y="251"/>
      <point x="122" y="215" type="curve" smooth="yes"/>
      <point x="122" y="83"/>
      <point x="169" y="11"/>
      <point x="258" y="-5" type="curve"/>
    </contour>
    <contour>
      <point x="227" y="393" type="line"/>
      <point x="253" y="516"/>
      <point x="318" y="656"/>
      <point x="414" y="656" type="curve" smooth="yes"/>
      <point x="457" y="656"/>
      <point x="484" y="626"/>
      <point x="484" y="573" type="curve" smooth="yes"/>
      <point x="484" y="447"/>
      <point x="378" y="393"/>
      <point x="235" y="393" type="curve" smooth="yes"/>
    </contour>
  </outline>
</glyph>
<glyph name="uni04BF" format="2">
  <advance width="470"/>
  <unicode hex="04BF"/>
  <anchor x="140" y="-186" name="bottom"/>
  <anchor x="291" y="529" name="top"/>
  <outline>
    <contour>
      <point x="168" y="-186" type="line"/>
      <point x="243" y="-186" type="line"/>
      <point x="280" y="-7" type="line"/>
      <point x="314" y="-4"/>
      <point x="344" y="5"/>
      <point x="370" y="20" type="curve"/>
      <point x="370" y="86" type="line"/>
      <point x="334" y="65"/>
      <point x="304" y="55"/>
      <point x="268" y="55" type="curve" smooth="yes"/>
      <point x="210" y="55"/>
      <point x="187" y="94"/>
      <point x="187" y="163" type="curve" smooth="yes"/>
      <point x="187" y="188"/>
      <point x="189" y="215"/>
      <point x="194" y="241" type="curve"/>
      <point x="201" y="241" type="line" smooth="yes"/>
      <point x="354" y="241"/>
      <point x="451" y="315"/>
      <point x="451" y="435" type="curve" smooth="yes"/>
      <point x="451" y="509"/>
      <point x="407" y="546"/>
      <point x="342" y="546" type="curve" smooth="yes"/>
      <point x="239" y="546"/>
      <point x="159" y="439"/>
      <point x="127" y="301" type="curve"/>
      <point x="98" y="301"/>
      <point x="83" y="311"/>
      <point x="83" y="338" type="curve" smooth="yes"/>
      <point x="83" y="356"/>
      <point x="90" y="380"/>
      <point x="106" y="408" type="curve"/>
      <point x="41" y="408" type="line"/>
      <point x="24" y="380"/>
      <point x="13" y="351"/>
      <point x="13" y="323" type="curve" smooth="yes"/>
      <point x="13" y="272"/>
      <point x="41" y="243"/>
      <point x="115" y="241" type="curve"/>
      <point x="112" y="215"/>
      <point x="109" y="185"/>
      <point x="109" y="154" type="curve" smooth="yes"/>
      <point x="109" y="67"/>
      <point x="145" y="12"/>
      <point x="206" y="-3" type="curve"/>
    </contour>
    <contour>
      <point x="206" y="301" type="line"/>
      <point x="231" y="406"/>
      <point x="280" y="481"/>
      <point x="332" y="481" type="curve" smooth="yes"/>
      <point x="364" y="481"/>
      <point x="378" y="462"/>
      <point x="378" y="431" type="curve" smooth="yes"/>
      <point x="378" y="353"/>
      <point x="329" y="301"/>
      <point x="210" y="301" type="curve" smooth="yes"/>
    </contour>
  </outline>
</glyph>
<glyph name="uni04F7" format="2">
  <advance width="288"/>
  <unicode hex="04F7"/>
  <anchor x="49" y="-185" name="bottom"/>
  <anchor x="200" y="529" name="top"/>
  <outline>
    <contour>
      <point x="10" y="-185" type="line"/>
      <point x="86" y="-185" type="line"/>
      <point x="140" y="68" type="line"/>
      <point x="87" y="68" type="line"/>
      <point x="173" y="468" type="line"/>
      <point x="317" y="468" type="line"/>
      <point x="331" y="536" type="line"/>
      <point x="110" y="536" type="line"/>
      <point x="-4" y="0" type="line"/>
      <point x="50" y="0" type="line"/>
    </contour>
  </outline>
</glyph>
<glyph name="uni04FF" format="2">
  <advance width="344"/>
  <unicode hex="04FF"/>
  <anchor x="116" y="0" name="bottom"/>
  <anchor x="228" y="529" name="top"/>
  <outline>
    <contour>
      <point x="-46" y="0" type="line"/>
      <point x="37" y="0" type="line"/>
      <point x="156" y="205" type="line"/>
      <point x="191" y="0" type="line"/>
      <point x="274" y="0" type="line"/>
      <point x="224" y="243" type="line"/>
      <point x="302" y="243" type="line"/>
      <point x="315" y="308" type="line"/>
      <point x="240" y="308" type="line"/>
      <point x="382" y="536" type="line"/>
      <point x="298" y="536" type="line"/>
      <point x="188" y="345" type="line"/>
      <point x="157" y="536" type="line"/>
      <point x="74" y="536" type="line"/>
      <point x="120" y="308" type="line"/>
      <point x="44" y="308" type="line"/>
      <point x="30" y="243" type="line"/>
      <point x="104" y="243" type="line"/>
    </contour>
  </outline>
</glyph>
<glyph name="uni0512" format="2">
  <advance width="486"/>
  <unicode hex="0512"/>
  <anchor x="147" y="-190" name="bottom"/>
  <anchor x="339" y="714" name="top"/>
  <outline>
    <contour>
      <point x="283" y="-190" type="curve" smooth="yes"/>
      <point x="352" y="-190"/>
      <point x="388" y="-136"/>
      <point x="403" y="-63" type="curve" smooth="yes"/>
      <point x="433" y="78" type="line"/>
      <point x="350" y="78" type="line"/>
      <point x="486" y="714" type="line"/>
      <point x="227" y="714" type="line"/>
      <point x="132" y="390"/>
      <point x="104" y="295"/>
      <point x="76" y="215" type="curve" smooth="yes"/>
      <point x="41" y="107"/>
      <point x="21" y="65"/>
      <point x="-22" y="65" type="curve" smooth="yes"/>
      <point x="-33" y="65"/>
      <point x="-46" y="68"/>
      <point x="-58" y="73" type="curve"/>
      <point x="-58" y="1" type="line"/>
      <point x="-44" y="-4"/>
      <point x="-27" y="-6"/>
      <point x="-11" y="-6" type="curve" smooth="yes"/>
      <point x="73" y="-6"/>
      <point x="108" y="70"/>
      <point x="149" y="197" type="curve" smooth="yes"/>
      <point x="178" y="285"/>
      <point x="230" y="462"/>
      <point x="281" y="638" type="curve"/>
      <point x="390" y="638" type="line"/>
      <point x="254" y="0" type="line"/>
      <point x="338" y="0" type="line"/>
      <point x="325" y="-63" type="line" smooth="yes"/>
      <point x="318" y="-98"/>
      <point x="305" y="-122"/>
      <point x="273" y="-122" type="curve" smooth="yes"/>
      <point x="260" y="-122"/>
      <point x="245" y="-119"/>
      <point x="230" y="-113" type="curve"/>
      <point x="230" y="-180" type="line"/>
      <point x="244" y="-186"/>
      <point x="259" y="-190"/>
    </contour>
  </outline>
</glyph>
<glyph name="uni052A" format="2">
  <advance width="910"/>
  <unicode hex="052A"/>
  <anchor x="358" y="-191" name="bottom"/>
  <anchor x="550" y="714" name="top"/>
  <outline>
    <contour>
      <point x="389" y="335" type="line"/>
      <point x="599" y="335" type="line"/>
      <point x="614" y="408" type="line"/>
      <point x="405" y="408" type="line"/>
    </contour>
    <component base="afii10021"/>
    <component base="afii10028" xOffset="508"/>
  </outline>
</glyph>
<glyph name="uni052F" format="2">
  <advance width="406"/>
  <unicode hex="052F"/>
  <anchor x="108" y="-185" name="bottom"/>
  <anchor x="259" y="529" name="top"/>
  <outline>
    <contour>
      <point x="220" y="-185" type="line"/>
      <point x="295" y="-185" type="line"/>
      <point x="349" y="68" type="line"/>
      <point x="274" y="68" type="line"/>
      <point x="223" y="0" type="line"/>
      <point x="259" y="0" type="line"/>
    </contour>
    <component base="afii10077"/>
  </outline>
</glyph>
<glyph name="uni1AB8" format="2">
  <unicode hex="1AB8"/>
  <anchor x="-61" y="0" name="_bottom"/>
  <anchor x="-101" y="-225" name="bottom"/>
  <outline>
    <contour>
      <point x="12" y="-225" type="curve"/>
      <point x="25" y="-167" type="line"/>
      <point x="11" y="-167"/>
      <point x="2" y="-163"/>
      <point x="2" y="-144" type="curve" smooth="yes"/>
      <point x="2" y="-140"/>
      <point x="3" y="-131"/>
      <point x="5" y="-122" type="curve" smooth="yes"/>
      <point x="26" y="-36" type="line"/>
      <point x="-41" y="-36" type="line"/>
      <point x="-62" y="-122" type="line" smooth="yes"/>
      <point x="-66" y="-138"/>
      <point x="-67" y="-151"/>
      <point x="-67" y="-158" type="curve" smooth="yes"/>
      <point x="-67" y="-196"/>
      <point x="-48" y="-225"/>
    </contour>
    <contour>
      <point x="-127" y="-225" type="curve"/>
      <point x="-113" y="-167" type="line"/>
      <point x="-128" y="-167"/>
      <point x="-136" y="-163"/>
      <point x="-136" y="-144" type="curve" smooth="yes"/>
      <point x="-136" y="-140"/>
      <point x="-135" y="-131"/>
      <point x="-133" y="-122" type="curve" smooth="yes"/>
      <point x="-113" y="-36" type="line"/>
      <point x="-180" y="-36" type="line"/>
      <point x="-201" y="-122" type="line" smooth="yes"/>
      <point x="-205" y="-138"/>
      <point x="-205" y="-151"/>
      <point x="-205" y="-158" type="curve" smooth="yes"/>
      <point x="-205" y="-196"/>
      <point x="-187" y="-225"/>
    </contour>
  </outline>
</glyph>
<glyph name="uni1ABA" format="2">
  <unicode hex="1ABA"/>
  <anchor x="-50" y="0" name="_bottom"/>
  <anchor x="-92" y="-240" name="bottom"/>
  <outline>
    <contour>
      <point x="-171" y="-188" type="line"/>
      <point x="-107" y="-188" type="line"/>
      <point x="33" y="40" type="line"/>
      <point x="-32" y="40" type="line"/>
    </contour>
    <contour>
      <point x="-137" y="-240" type="curve" smooth="yes"/>
      <point x="-102" y="-240"/>
      <point x="-82" y="-206"/>
      <point x="-82" y="-166" type="curve" smooth="yes"/>
      <point x="-82" y="-140"/>
      <point x="-94" y="-127"/>
      <point x="-119" y="-127" type="curve" smooth="yes"/>
      <point x="-155" y="-127"/>
      <point x="-176" y="-161"/>
      <point x="-176" y="-199" type="curve" smooth="yes"/>
      <point x="-176" y="-225"/>
      <point x="-163" y="-240"/>
    </contour>
  </outline>
</glyph>
<glyph name="uni1ABC" format="2">
  <unicode hex="1ABC"/>
  <anchor x="56" y="529" name="_top"/>
  <anchor x="115" y="835" name="top"/>
  <outline>
    <contour>
      <point x="289" y="611" type="curve"/>
      <point x="344" y="611" type="line"/>
      <point x="397" y="647"/>
      <point x="425" y="694"/>
      <point x="425" y="747" type="curve" smooth="yes"/>
      <point x="425" y="778"/>
      <point x="414" y="812"/>
      <point x="392" y="835" type="curve"/>
      <point x="337" y="835" type="line"/>
      <point x="357" y="811"/>
      <point x="368" y="777"/>
      <point x="368" y="747" type="curve" smooth="yes"/>
      <point x="368" y="696"/>
      <point x="339" y="649"/>
    </contour>
    <contour>
      <point x="-197" y="611" type="curve"/>
      <point x="-143" y="611" type="line"/>
      <point x="-163" y="635"/>
      <point x="-173" y="669"/>
      <point x="-173" y="699" type="curve" smooth="yes"/>
      <point x="-173" y="749"/>
      <point x="-144" y="796"/>
      <point x="-95" y="835" type="curve"/>
      <point x="-150" y="835" type="line"/>
      <point x="-202" y="799"/>
      <point x="-230" y="752"/>
      <point x="-230" y="698" type="curve" smooth="yes"/>
      <point x="-230" y="668"/>
      <point x="-220" y="634"/>
    </contour>
    <contour>
      <point x="-71" y="611" type="curve"/>
      <point x="-17" y="611" type="line"/>
      <point x="-36" y="635"/>
      <point x="-47" y="669"/>
      <point x="-47" y="699" type="curve" smooth="yes"/>
      <point x="-47" y="749"/>
      <point x="-18" y="796"/>
      <point x="32" y="835" type="curve"/>
      <point x="-23" y="835" type="line"/>
      <point x="-75" y="799"/>
      <point x="-104" y="752"/>
      <point x="-104" y="698" type="curve" smooth="yes"/>
      <point x="-104" y="668"/>
      <point x="-93" y="634"/>
    </contour>
    <contour>
      <point x="162.001" y="611" type="curve"/>
      <point x="217" y="611" type="line"/>
      <point x="270" y="647"/>
      <point x="298" y="694"/>
      <point x="298" y="747" type="curve" smooth="yes"/>
      <point x="298" y="778"/>
      <point x="287" y="812"/>
      <point x="265" y="835" type="curve"/>
      <point x="210" y="835" type="line"/>
      <point x="230" y="811"/>
      <point x="241" y="777"/>
      <point x="241" y="747" type="curve" smooth="yes"/>
      <point x="241" y="696"/>
      <point x="212" y="649"/>
    </contour>
  </outline>
</glyph>
<glyph name="uni1D03" format="2">
  <advance width="368"/>
  <unicode hex="1D03"/>
  <anchor x="123" y="0" name="bottom"/>
  <anchor x="237" y="536" name="top"/>
  <outline>
    <contour>
      <point x="5" y="250" type="line"/>
      <point x="349" y="250" type="line"/>
      <point x="362" y="312" type="line"/>
      <point x="17" y="312" type="line"/>
    </contour>
    <component base="uni0299"/>
  </outline>
</glyph>
<glyph name="uni1D17" format="2">
  <advance width="415"/>
  <unicode hex="1D17"/>
  <anchor x="151" y="0" name="bottom"/>
  <anchor x="204" y="275" name="top"/>
  <outline>
    <contour>
      <point x="154" y="-10" type="curve" smooth="yes"/>
      <point x="278" y="-10"/>
      <point x="350" y="133"/>
      <point x="374" y="275" type="curve"/>
      <point x="294" y="275" type="line"/>
      <point x="275" y="167"/>
      <point x="229" y="58"/>
      <point x="162" y="58" type="curve" smooth="yes"/>
      <point x="124" y="58"/>
      <point x="104" y="91"/>
      <point x="104" y="151" type="curve" smooth="yes"/>
      <point x="104" y="184"/>
      <point x="109" y="229"/>
      <point x="118" y="275" type="curve"/>
      <point x="39" y="275" type="line"/>
      <point x="30" y="230"/>
      <point x="26" y="186"/>
      <point x="26" y="152" type="curve" smooth="yes"/>
      <point x="26" y="47"/>
      <point x="73" y="-10"/>
    </contour>
  </outline>
</glyph>
<glyph name="uni1D1B" format="2">
  <advance width="294"/>
  <unicode hex="1D1B"/>
  <anchor x="91" y="0" name="bottom"/>
  <anchor x="203" y="529" name="top"/>
  <outline>
    <contour>
      <point x="53" y="0" type="line"/>
      <point x="130" y="0" type="line"/>
      <point x="231" y="471" type="line"/>
      <point x="323" y="471" type="line"/>
      <point x="338" y="538" type="line"/>
      <point x="76" y="538" type="line"/>
      <point x="62" y="471" type="line"/>
      <point x="154" y="471" type="line"/>
    </contour>
  </outline>
</glyph>
<glyph name="uni1D22" format="2">
  <advance width="289"/>
  <unicode hex="1D22"/>
  <anchor x="89" y="0" name="bottom"/>
  <anchor x="201" y="529" name="top"/>
  <outline>
    <contour>
      <point x="-30" y="0" type="line"/>
      <point x="213" y="0" type="line"/>
      <point x="226" y="67" type="line"/>
      <point x="69" y="67" type="line"/>
      <point x="312" y="482" type="line"/>
      <point x="324" y="538" type="line"/>
      <point x="90" y="538" type="line"/>
      <point x="76" y="471" type="line"/>
      <point x="224" y="471" type="line"/>
      <point x="-18" y="56" type="line"/>
    </contour>
  </outline>
</glyph>
<glyph name="uni1D24" format="2">
  <advance width="323"/>
  <unicode hex="1D24"/>
  <anchor x="106" y="0" name="bottom"/>
  <anchor x="218" y="529" name="top"/>
  <outline>
    <contour>
      <point x="133" y="-9" type="curve" smooth="yes"/>
      <point x="174" y="-9"/>
      <point x="213" y="0"/>
      <point x="247" y="19" type="curve"/>
      <point x="247" y="89" type="line"/>
      <point x="217" y="71"/>
      <point x="182" y="58"/>
      <point x="147" y="58" type="curve" smooth="yes"/>
      <point x="106" y="58"/>
      <point x="81" y="79"/>
      <point x="81" y="119" type="curve" smooth="yes"/>
      <point x="81" y="180"/>
      <point x="109" y="206"/>
      <point x="191" y="255" type="curve" smooth="yes"/>
      <point x="264" y="297"/>
      <point x="316" y="341"/>
      <point x="316" y="430" type="curve" smooth="yes"/>
      <point x="316" y="502"/>
      <point x="273" y="545"/>
      <point x="195" y="545" type="curve" smooth="yes"/>
      <point x="153" y="545"/>
      <point x="114" y="533"/>
      <point x="78" y="512" type="curve"/>
      <point x="98" y="452" type="line"/>
      <point x="123" y="466"/>
      <point x="151" y="478"/>
      <point x="183" y="478" type="curve" smooth="yes"/>
      <point x="217" y="478"/>
      <point x="237" y="461"/>
      <point x="237" y="428" type="curve" smooth="yes"/>
      <point x="237" y="368"/>
      <point x="195" y="341"/>
      <point x="130" y="303" type="curve" smooth="yes"/>
      <point x="52" y="256"/>
      <point x="1" y="208"/>
      <point x="1" y="114" type="curve" smooth="yes"/>
      <point x="2" y="30"/>
      <point x="56" y="-9"/>
    </contour>
  </outline>
</glyph>
<glyph name="uni1D28" format="2">
  <advance width="397"/>
  <unicode hex="1D28"/>
  <outline>
    <contour>
      <point x="0" y="0" type="line"/>
      <point x="76" y="0" type="line"/>
      <point x="178" y="471" type="line"/>
      <point x="310" y="471" type="line"/>
      <point x="208" y="0" type="line"/>
      <point x="284" y="0" type="line"/>
      <point x="400" y="538" type="line"/>
      <point x="116" y="538" type="line"/>
    </contour>
  </outline>
</glyph>
<glyph name="uni1D2F" format="2">
  <advance width="280"/>
  <unicode hex="1D2F"/>
  <anchor x="158.95" y="287.0" name="bottom"/>
  <anchor x="255.15" y="715.4" name="top"/>
  <anchor x="381.25" y="715.4" name="topright"/>
  <outline>
    <contour>
      <point x="54" y="491" type="line"/>
      <point x="337" y="491" type="line"/>
      <point x="346" y="531" type="line"/>
      <point x="63" y="531" type="line"/>
    </contour>
    <component base="B" xScale="0.65" yScale="0.6" xOffset="53" yOffset="287"/>
  </outline>
</glyph>
<glyph name="uni1D7A" format="2">
  <advance width="647"/>
  <unicode hex="1D7A"/>
  <anchor x="73" y="0" name="bottom_1"/>
  <anchor x="386" y="0" name="bottom_2"/>
  <anchor x="127" y="265" name="center_1"/>
  <anchor x="459" y="265" name="center_2"/>
  <anchor x="203" y="658" name="top_1"/>
  <anchor x="547" y="760" name="top_2"/>
  <anchor x="273" y="840" name="topright_1"/>
  <anchor x="682" y="760" name="topright_2"/>
  <outline>
    <contour>
      <point x="-87" y="-78" type="line"/>
      <point x="-12" y="-78" type="line"/>
      <point x="662" y="760" type="line"/>
      <point x="587" y="760" type="line"/>
    </contour>
    <component base="t"/>
    <component base="h" xOffset="236"/>
  </outline>
</glyph>
<glyph name="uni1D7B" format="2">
  <advance width="240"/>
  <unicode hex="1D7B"/>
  <anchor x="64" y="0" name="bottom"/>
  <anchor x="176" y="529" name="top"/>
  <outline>
    <contour>
      <point x="15" y="247" type="line"/>
      <point x="204" y="247" type="line"/>
      <point x="218" y="310" type="line"/>
      <point x="28" y="310" type="line"/>
    </contour>
    <component base="uni026A"/>
  </outline>
</glyph>
<glyph name="uni1D7D" format="2">
  <advance width="417"/>
  <unicode hex="1D7D"/>
  <anchor x="103" y="-233" name="bottom"/>
  <anchor x="265" y="529" name="top"/>
  <anchor x="453" y="529" name="topright"/>
  <outline>
    <contour>
      <point x="-4" y="245" type="line"/>
      <point x="414" y="245" type="line"/>
      <point x="428" y="308" type="line"/>
      <point x="10" y="308" type="line"/>
    </contour>
    <component base="p"/>
  </outline>
</glyph>
<glyph name="suspensionmark" format="2">
  <unicode hex="1DC3"/>
  <anchor x="66" y="529" name="_top"/>
  <anchor x="103" y="729" name="top"/>
  <outline>
    <contour>
      <point x="27" y="609" type="curve" smooth="yes"/>
      <point x="81" y="609"/>
      <point x="140" y="667"/>
      <point x="212" y="667" type="curve"/>
      <point x="216" y="667" type="line"/>
      <point x="229" y="726" type="line"/>
      <point x="223" y="726" type="line" smooth="yes"/>
      <point x="136" y="726"/>
      <point x="82" y="671"/>
      <point x="42" y="671" type="curve" smooth="yes"/>
      <point x="25" y="671"/>
      <point x="16" y="682"/>
      <point x="16" y="704" type="curve" smooth="yes"/>
      <point x="16" y="711"/>
      <point x="17" y="720"/>
      <point x="18" y="729" type="curve"/>
      <point x="-33" y="729" type="line"/>
      <point x="-36" y="710"/>
      <point x="-38" y="695"/>
      <point x="-39" y="682" type="curve" smooth="yes"/>
      <point x="-39" y="634"/>
      <point x="-10" y="609"/>
    </contour>
  </outline>
</glyph>
<glyph name="gravemacron" format="2">
  <unicode hex="1DC5"/>
  <anchor x="57" y="536" name="_top"/>
  <anchor x="62" y="719" name="top"/>
  <outline>
    <contour>
      <point x="71" y="606" type="line"/>
      <point x="184" y="606" type="line"/>
      <point x="184" y="661" type="line"/>
      <point x="87" y="661" type="line"/>
      <point x="7" y="717" type="line"/>
      <point x="-25" y="672" type="line"/>
    </contour>
  </outline>
</glyph>
<glyph name="zigzagbelow" format="2">
  <unicode hex="1DCF"/>
  <anchor x="-228" y="0" name="_bottom"/>
  <anchor x="-268" y="-231" name="bottom"/>
  <outline>
    <contour>
      <point x="-264" y="-231" type="line"/>
      <point x="-219" y="-231" type="line"/>
      <point x="-169" y="-114" type="line"/>
      <point x="-280" y="-114" type="line"/>
      <point x="-248" y="-42" type="line"/>
      <point x="-294" y="-42" type="line"/>
      <point x="-345" y="-159" type="line"/>
      <point x="-234" y="-159" type="line"/>
    </contour>
  </outline>
</glyph>
<glyph name="uni1E10" format="2">
  <advance width="465"/>
  <unicode hex="1E10"/>
  <anchor x="122" y="-240" name="bottom"/>
  <anchor x="328" y="714" name="top"/>
  <anchor x="258" y="357" name="center"/>
  <anchor x="539" y="714" name="topright"/>
  <outline>
    <contour>
      <point x="103" y="-240" type="curve" smooth="yes"/>
      <point x="174" y="-240"/>
      <point x="228" y="-200"/>
      <point x="228" y="-127" type="curve" smooth="yes"/>
      <point x="228" y="-87"/>
      <point x="202" y="-60"/>
      <point x="159" y="-51" type="curve"/>
      <point x="218" y="34" type="line"/>
      <point x="170" y="34" type="line"/>
      <point x="95" y="-80" type="line"/>
      <point x="142" y="-86"/>
      <point x="164" y="-102"/>
      <point x="164" y="-131" type="curve" smooth="yes"/>
      <point x="164" y="-166"/>
      <point x="138" y="-189"/>
      <point x="94" y="-189" type="curve" smooth="yes"/>
      <point x="69" y="-189"/>
      <point x="51" y="-186"/>
      <point x="40" y="-182" type="curve"/>
      <point x="40" y="-233" type="line"/>
      <point x="59" y="-238"/>
      <point x="80" y="-240"/>
    </contour>
    <component base="D"/>
  </outline>
</glyph>
<glyph name="longsdiagonalstroke" format="2">
  <advance width="202"/>
  <unicode hex="1E9C"/>
  <anchor x="-6" y="-240" name="bottom"/>
  <anchor x="208" y="765" name="top"/>
  <outline>
    <contour>
      <point x="41" y="394" type="line"/>
      <point x="272" y="497" type="line"/>
      <point x="252" y="540" type="line"/>
      <point x="21" y="437" type="line"/>
    </contour>
    <component base="longs"/>
  </outline>
</glyph>
<glyph name="longshighstroke" format="2">
  <advance width="202"/>
  <unicode hex="1E9D"/>
  <anchor x="-6" y="-240" name="bottom"/>
  <anchor x="208" y="765" name="top"/>
  <outline>
    <contour>
      <point x="52" y="516" type="line"/>
      <point x="258" y="516" type="line"/>
      <point x="268" y="564" type="line"/>
      <point x="62" y="564" type="line"/>
    </contour>
    <component base="longs"/>
  </outline>
</glyph>
<glyph name="LL-middleWelsh" format="2">
  <advance width="545"/>
  <unicode hex="1EFA"/>
  <anchor x="320" y="0" name="bottom"/>
  <anchor x="472" y="714" name="top"/>
  <anchor x="402" y="357" name="center"/>
  <anchor x="563" y="714" name="topright"/>
  <outline>
    <contour>
      <point x="0" y="0" type="line"/>
      <point x="80" y="0" type="line"/>
      <point x="231" y="714" type="line"/>
      <point x="151" y="714" type="line"/>
    </contour>
    <component base="L" xOffset="208"/>
  </outline>
</glyph>
<glyph name="ll-middleWelsh" format="2">
  <advance width="382"/>
  <unicode hex="1EFB"/>
  <anchor x="39" y="0" name="bottom"/>
  <anchor x="200" y="760" name="top"/>
  <anchor x="303" y="265" name="center_1"/>
  <anchor x="112" y="265" name="center_2"/>
  <anchor x="466" y="760" name="topright_1"/>
  <anchor x="275" y="760" name="topright_2"/>
  <outline>
    <contour>
      <point x="73" y="596" type="line"/>
      <point x="449" y="596" type="line"/>
      <point x="459" y="644" type="line"/>
      <point x="83" y="644" type="line"/>
    </contour>
    <component base="l" xOffset="191"/>
    <component base="l"/>
  </outline>
</glyph>
<glyph name="uni1FC1" format="2">
  <advance width="417"/>
  <unicode hex="1FC1"/>
  <anchor x="266" y="536" name="_top"/>
  <outline>
    <contour>
      <point x="171" y="735" type="curve"/>
      <point x="209" y="735" type="line"/>
      <point x="218" y="770"/>
      <point x="233" y="781"/>
      <point x="257" y="781" type="curve" smooth="yes"/>
      <point x="291" y="781"/>
      <point x="323" y="736"/>
      <point x="368" y="736" type="curve" smooth="yes"/>
      <point x="408" y="736"/>
      <point x="436" y="761"/>
      <point x="452" y="834" type="curve"/>
      <point x="413" y="834" type="line"/>
      <point x="405" y="802"/>
      <point x="391" y="788"/>
      <point x="369" y="788" type="curve" smooth="yes"/>
      <point x="336" y="788"/>
      <point x="304" y="833"/>
      <point x="259" y="833" type="curve" smooth="yes"/>
      <point x="218" y="833"/>
      <point x="188" y="812"/>
    </contour>
    <contour>
      <point x="205" y="609" type="curve" smooth="yes"/>
      <point x="234" y="609"/>
      <point x="252" y="636"/>
      <point x="252" y="671" type="curve" smooth="yes"/>
      <point x="252" y="693"/>
      <point x="241" y="704"/>
      <point x="223" y="704" type="curve" smooth="yes"/>
      <point x="194" y="704"/>
      <point x="175" y="678"/>
      <point x="175" y="643" type="curve" smooth="yes"/>
      <point x="175" y="620"/>
      <point x="185" y="609"/>
    </contour>
    <contour>
      <point x="350" y="609" type="curve" smooth="yes"/>
      <point x="378" y="609"/>
      <point x="396" y="636"/>
      <point x="396" y="671" type="curve" smooth="yes"/>
      <point x="396" y="693"/>
      <point x="386" y="704"/>
      <point x="368" y="704" type="curve" smooth="yes"/>
      <point x="339" y="704"/>
      <point x="320" y="677"/>
      <point x="320" y="643" type="curve" smooth="yes"/>
      <point x="320" y="620"/>
      <point x="330" y="609"/>
    </contour>
  </outline>
</glyph>
<glyph name="uni1FCD" format="2">
  <advance width="417"/>
  <unicode hex="1FCD"/>
  <outline>
    <contour>
      <point x="180" y="623" type="curve"/>
      <point x="174" y="594" type="line"/>
      <point x="236" y="599"/>
      <point x="279" y="655"/>
      <point x="279" y="702" type="curve" smooth="yes"/>
      <point x="279" y="737"/>
      <point x="264" y="750"/>
      <point x="241" y="750" type="curve" smooth="yes"/>
      <point x="215" y="750"/>
      <point x="198" y="729"/>
      <point x="198" y="704" type="curve" smooth="yes"/>
      <point x="198" y="680"/>
      <point x="212" y="670"/>
      <point x="228" y="670" type="curve"/>
      <point x="222" y="646"/>
      <point x="200" y="627"/>
    </contour>
    <contour>
      <point x="334" y="598" type="curve"/>
      <point x="372" y="598" type="line"/>
      <point x="374" y="609" type="line"/>
      <point x="373" y="635"/>
      <point x="369" y="712"/>
      <point x="370" y="744" type="curve"/>
      <point x="302" y="744" type="line"/>
      <point x="301" y="734" type="line"/>
      <point x="306" y="693"/>
      <point x="319" y="642"/>
    </contour>
  </outline>
</glyph>
<glyph name="uni1FCE" format="2">
  <advance width="417"/>
  <unicode hex="1FCE"/>
  <outline>
    <contour>
      <point x="280" y="610" type="curve"/>
      <point x="280" y="598" type="line"/>
      <point x="315" y="598" type="line"/>
      <point x="349" y="641"/>
      <point x="383" y="692"/>
      <point x="406" y="734" type="curve"/>
      <point x="406" y="744" type="line"/>
      <point x="337" y="744" type="line"/>
      <point x="320" y="697"/>
      <point x="297" y="646"/>
    </contour>
    <contour>
      <point x="183" y="623" type="curve"/>
      <point x="177" y="594" type="line"/>
      <point x="238" y="597"/>
      <point x="282" y="655"/>
      <point x="282" y="702" type="curve" smooth="yes"/>
      <point x="282" y="737"/>
      <point x="267" y="750"/>
      <point x="244" y="750" type="curve" smooth="yes"/>
      <point x="218" y="750"/>
      <point x="201" y="728"/>
      <point x="201" y="703" type="curve" smooth="yes"/>
      <point x="201" y="679"/>
      <point x="216" y="669"/>
      <point x="230" y="669" type="curve"/>
      <point x="225" y="646"/>
      <point x="203" y="626"/>
    </contour>
  </outline>
</glyph>
<glyph name="uni1FCF" format="2">
  <advance width="417"/>
  <unicode hex="1FCF"/>
  <anchor x="262" y="529" name="_top"/>
  <anchor x="321" y="853" name="top"/>
  <outline>
    <contour>
      <point x="167" y="755" type="curve"/>
      <point x="205" y="755" type="line"/>
      <point x="214" y="791"/>
      <point x="227" y="800"/>
      <point x="251" y="800" type="curve" smooth="yes"/>
      <point x="286" y="800"/>
      <point x="309" y="756"/>
      <point x="357" y="756" type="curve" smooth="yes"/>
      <point x="396" y="756"/>
      <point x="423" y="780"/>
      <point x="438" y="853" type="curve"/>
      <point x="400" y="853" type="line"/>
      <point x="392" y="822"/>
      <point x="379" y="808"/>
      <point x="357" y="808" type="curve" smooth="yes"/>
      <point x="325" y="808"/>
      <point x="300" y="852"/>
      <point x="254" y="852" type="curve" smooth="yes"/>
      <point x="212" y="852"/>
      <point x="184" y="831"/>
    </contour>
    <contour>
      <point x="221" y="591" type="line"/>
      <point x="283" y="596"/>
      <point x="324" y="645"/>
      <point x="324" y="693" type="curve" smooth="yes"/>
      <point x="324" y="727"/>
      <point x="309" y="740"/>
      <point x="285" y="740" type="curve" smooth="yes"/>
      <point x="261" y="740"/>
      <point x="244" y="721"/>
      <point x="244" y="696" type="curve" smooth="yes"/>
      <point x="244" y="673"/>
      <point x="258" y="664"/>
      <point x="273" y="664" type="curve"/>
      <point x="268" y="641"/>
      <point x="247" y="623"/>
      <point x="227" y="619" type="curve"/>
    </contour>
  </outline>
</glyph>
<glyph name="uni1FDD" format="2">
  <advance width="417"/>
  <unicode hex="1FDD"/>
  <outline>
    <contour>
      <point x="237" y="594" type="curve"/>
      <point x="243" y="624" type="line"/>
      <point x="225" y="627"/>
      <point x="212" y="641"/>
      <point x="212" y="660" type="curve" smooth="yes"/>
      <point x="212" y="664"/>
      <point x="212" y="667"/>
      <point x="213" y="670" type="curve"/>
      <point x="238" y="670"/>
      <point x="258" y="692"/>
      <point x="258" y="718" type="curve" smooth="yes"/>
      <point x="258" y="736"/>
      <point x="248" y="750"/>
      <point x="225" y="750" type="curve" smooth="yes"/>
      <point x="192" y="750"/>
      <point x="173" y="710"/>
      <point x="173" y="674" type="curve" smooth="yes"/>
      <point x="173" y="626"/>
      <point x="196" y="596"/>
    </contour>
    <contour>
      <point x="312" y="598" type="curve"/>
      <point x="350" y="598" type="line"/>
      <point x="352" y="609" type="line"/>
      <point x="350" y="659"/>
      <point x="349" y="707"/>
      <point x="350" y="744" type="curve"/>
      <point x="280" y="744" type="line"/>
      <point x="279" y="734" type="line"/>
      <point x="284" y="693"/>
      <point x="297" y="642"/>
    </contour>
  </outline>
</glyph>
<glyph name="uni1FDE" format="2">
  <advance width="417"/>
  <unicode hex="1FDE"/>
  <anchor x="260" y="529" name="_top"/>
  <anchor x="302" y="750" name="top"/>
  <outline>
    <contour>
      <point x="271" y="598" type="line"/>
      <point x="306" y="598" type="line"/>
      <point x="340" y="641"/>
      <point x="374" y="692"/>
      <point x="397" y="734" type="curve"/>
      <point x="397" y="744" type="line"/>
      <point x="328" y="744" type="line"/>
      <point x="311" y="697"/>
      <point x="288" y="646"/>
      <point x="271" y="610" type="curve"/>
    </contour>
    <contour>
      <point x="248" y="594" type="curve"/>
      <point x="254" y="624" type="line"/>
      <point x="236" y="627"/>
      <point x="222" y="642"/>
      <point x="222" y="661" type="curve" smooth="yes"/>
      <point x="222" y="664"/>
      <point x="222" y="667"/>
      <point x="223" y="670" type="curve"/>
      <point x="251" y="670"/>
      <point x="268" y="693"/>
      <point x="268" y="721" type="curve" smooth="yes"/>
      <point x="268" y="739"/>
      <point x="258" y="750"/>
      <point x="238" y="750" type="curve" smooth="yes"/>
      <point x="203" y="750"/>
      <point x="183" y="708"/>
      <point x="183" y="673" type="curve" smooth="yes"/>
      <point x="183" y="627"/>
      <point x="206" y="596"/>
    </contour>
  </outline>
</glyph>
<glyph name="uni1FDF" format="2">
  <advance width="417"/>
  <unicode hex="1FDF"/>
  <outline>
    <contour>
      <point x="167" y="755" type="curve"/>
      <point x="205" y="755" type="line"/>
      <point x="214" y="791"/>
      <point x="227" y="800"/>
      <point x="251" y="800" type="curve" smooth="yes"/>
      <point x="286" y="800"/>
      <point x="309" y="756"/>
      <point x="357" y="756" type="curve" smooth="yes"/>
      <point x="396" y="756"/>
      <point x="423" y="780"/>
      <point x="438" y="853" type="curve"/>
      <point x="400" y="853" type="line"/>
      <point x="392" y="822"/>
      <point x="379" y="808"/>
      <point x="357" y="808" type="curve" smooth="yes"/>
      <point x="325" y="808"/>
      <point x="300" y="852"/>
      <point x="254" y="852" type="curve" smooth="yes"/>
      <point x="212" y="852"/>
      <point x="184" y="831"/>
    </contour>
    <contour>
      <point x="295" y="592" type="curve"/>
      <point x="301" y="619" type="line"/>
      <point x="283" y="622"/>
      <point x="272" y="637"/>
      <point x="272" y="653" type="curve" smooth="yes"/>
      <point x="272" y="657"/>
      <point x="273" y="661"/>
      <point x="274" y="664" type="curve"/>
      <point x="295" y="664"/>
      <point x="319" y="680"/>
      <point x="319" y="708" type="curve" smooth="yes"/>
      <point x="319" y="727"/>
      <point x="309" y="740"/>
      <point x="284" y="740" type="curve" smooth="yes"/>
      <point x="253" y="740"/>
      <point x="233" y="703"/>
      <point x="233" y="667" type="curve" smooth="yes"/>
      <point x="233" y="621"/>
      <point x="256" y="595"/>
    </contour>
  </outline>
</glyph>
<glyph name="uni1FED" format="2">
  <advance width="417"/>
  <unicode hex="1FED"/>
  <anchor x="258" y="529" name="_top"/>
  <outline>
    <contour>
      <point x="283" y="607" type="curve"/>
      <point x="323" y="607" type="line"/>
      <point x="325" y="618" type="line"/>
      <point x="319" y="653"/>
      <point x="315" y="727"/>
      <point x="315" y="768" type="curve"/>
      <point x="244" y="768" type="line"/>
      <point x="242" y="758" type="line"/>
      <point x="248" y="722"/>
      <point x="270" y="641"/>
    </contour>
    <contour>
      <point x="168" y="601" type="curve" smooth="yes"/>
      <point x="196" y="601"/>
      <point x="217" y="627"/>
      <point x="217" y="666" type="curve" smooth="yes"/>
      <point x="217" y="689"/>
      <point x="205" y="701"/>
      <point x="186" y="701" type="curve" smooth="yes"/>
      <point x="154" y="701"/>
      <point x="135" y="672"/>
      <point x="135" y="638" type="curve" smooth="yes"/>
      <point x="135" y="613"/>
      <point x="146" y="601"/>
    </contour>
    <contour>
      <point x="397" y="601" type="curve" smooth="yes"/>
      <point x="425" y="601"/>
      <point x="446" y="627"/>
      <point x="446" y="666" type="curve" smooth="yes"/>
      <point x="446" y="689"/>
      <point x="434" y="701"/>
      <point x="414" y="701" type="curve" smooth="yes"/>
      <point x="383" y="701"/>
      <point x="364" y="672"/>
      <point x="364" y="638" type="curve" smooth="yes"/>
      <point x="364" y="613"/>
      <point x="375" y="601"/>
    </contour>
  </outline>
</glyph>
<glyph name="uni1FEE" format="2">
  <advance width="417"/>
  <unicode hex="1FEE"/>
  <anchor x="257" y="529" name="_top"/>
  <outline>
    <contour>
      <point x="240" y="607" type="line"/>
      <point x="281" y="607" type="line"/>
      <point x="306" y="640"/>
      <point x="360" y="724"/>
      <point x="378" y="759" type="curve"/>
      <point x="380" y="769" type="line"/>
      <point x="307" y="769" type="line"/>
      <point x="295" y="730"/>
      <point x="263" y="657"/>
      <point x="242" y="618" type="curve"/>
    </contour>
    <contour>
      <point x="168" y="601" type="curve" smooth="yes"/>
      <point x="196" y="601"/>
      <point x="217" y="627"/>
      <point x="217" y="666" type="curve" smooth="yes"/>
      <point x="217" y="689"/>
      <point x="205" y="701"/>
      <point x="186" y="701" type="curve" smooth="yes"/>
      <point x="154" y="701"/>
      <point x="135" y="672"/>
      <point x="135" y="638" type="curve" smooth="yes"/>
      <point x="135" y="613"/>
      <point x="146" y="601"/>
    </contour>
    <contour>
      <point x="397" y="601" type="curve" smooth="yes"/>
      <point x="425" y="601"/>
      <point x="446" y="627"/>
      <point x="446" y="666" type="curve" smooth="yes"/>
      <point x="446" y="689"/>
      <point x="434" y="701"/>
      <point x="414" y="701" type="curve" smooth="yes"/>
      <point x="383" y="701"/>
      <point x="364" y="672"/>
      <point x="364" y="638" type="curve" smooth="yes"/>
      <point x="364" y="613"/>
      <point x="375" y="601"/>
    </contour>
  </outline>
</glyph>
<glyph name="uni1FEF" format="2">
  <advance width="417"/>
  <unicode hex="1FEF"/>
  <anchor x="263" y="529" name="_top"/>
  <outline>
    <contour>
      <point x="260" y="606" type="curve"/>
      <point x="302" y="606" type="line"/>
      <point x="305" y="617" type="line"/>
      <point x="298" y="655"/>
      <point x="292" y="741"/>
      <point x="292" y="780" type="curve"/>
      <point x="218" y="780" type="line"/>
      <point x="216" y="770" type="line"/>
      <point x="221" y="736"/>
      <point x="247" y="639"/>
    </contour>
  </outline>
</glyph>
<glyph name="uni1FFD" format="2">
  <advance width="417"/>
  <unicode hex="1FFD"/>
  <anchor x="278" y="529" name="_top"/>
  <anchor x="324" y="768" name="top"/>
  <outline>
    <contour>
      <point x="239" y="607" type="line"/>
      <point x="283" y="607" type="line"/>
      <point x="310" y="641"/>
      <point x="362" y="721"/>
      <point x="381" y="758" type="curve"/>
      <point x="383" y="768" type="line"/>
      <point x="307" y="768" type="line"/>
      <point x="295" y="728"/>
      <point x="262" y="656"/>
      <point x="241" y="618" type="curve"/>
    </contour>
  </outline>
</glyph>
<glyph name="uni1FFE" format="2">
  <advance width="417"/>
  <unicode hex="1FFE"/>
  <anchor x="244" y="529" name="_top"/>
  <anchor x="286" y="750" name="top"/>
  <outline>
    <contour>
      <point x="296" y="594" type="curve"/>
      <point x="302" y="624" type="line"/>
      <point x="284" y="627"/>
      <point x="271" y="641"/>
      <point x="271" y="660" type="curve" smooth="yes"/>
      <point x="271" y="664"/>
      <point x="271" y="667"/>
      <point x="272" y="670" type="curve"/>
      <point x="297" y="670"/>
      <point x="317" y="692"/>
      <point x="317" y="718" type="curve" smooth="yes"/>
      <point x="317" y="736"/>
      <point x="307" y="750"/>
      <point x="284" y="750" type="curve" smooth="yes"/>
      <point x="251" y="750"/>
      <point x="232" y="710"/>
      <point x="232" y="674" type="curve" smooth="yes"/>
      <point x="232" y="626"/>
      <point x="255" y="596"/>
    </contour>
  </outline>
</glyph>
<glyph name="uni2012" format="2">
  <advance width="391"/>
  <unicode hex="2012"/>
  <outline>
    <contour>
      <point x="35" y="324" type="line"/>
      <point x="367" y="324" type="line"/>
      <point x="381" y="390" type="line"/>
      <point x="49" y="390" type="line"/>
    </contour>
  </outline>
</glyph>
<glyph name="endash" format="2">
  <advance width="454"/>
  <unicode hex="2013"/>
  <outline>
    <contour>
      <point x="25" y="237" type="line"/>
      <point x="412" y="237" type="line"/>
      <point x="426" y="303" type="line"/>
      <point x="39" y="303" type="line"/>
    </contour>
  </outline>
</glyph>
<glyph name="uni2023" format="2">
  <advance width="399"/>
  <unicode hex="2023"/>
  <outline>
    <contour>
      <point x="58" y="214" type="line"/>
      <point x="361" y="373" type="line"/>
      <point x="125" y="531" type="line"/>
    </contour>
  </outline>
</glyph>
<glyph name="minute" format="2">
  <advance width="190"/>
  <unicode hex="2032"/>
  <outline>
    <contour>
      <point x="70" y="506" type="line"/>
      <point x="129" y="506" type="line"/>
      <point x="245" y="714" type="line"/>
      <point x="160" y="714" type="line"/>
    </contour>
  </outline>
</glyph>
<glyph name="primeReversed" format="2">
  <advance width="255"/>
  <unicode hex="2035"/>
  <outline>
    <contour>
      <point x="175" y="506" type="line"/>
      <point x="230" y="506" type="line"/>
      <point x="207" y="714" type="line"/>
      <point x="125" y="714" type="line"/>
    </contour>
  </outline>
</glyph>
<glyph name="caret" format="2">
  <advance width="388"/>
  <unicode hex="2038"/>
  <outline>
    <contour>
      <point x="-105" y="-239" type="line"/>
      <point x="-29" y="-239" type="line"/>
      <point x="138" y="34" type="line"/>
      <point x="196" y="-239" type="line"/>
      <point x="267" y="-239" type="line"/>
      <point x="183" y="139" type="line"/>
      <point x="130" y="139" type="line"/>
    </contour>
  </outline>
</glyph>
<glyph name="guilsinglleft" format="2">
  <advance width="246"/>
  <unicode hex="2039"/>
  <outline>
    <contour>
      <point x="120" y="61" type="line"/>
      <point x="179" y="87" type="line"/>
      <point x="111" y="262" type="line"/>
      <point x="247" y="431" type="line"/>
      <point x="195" y="464" type="line"/>
      <point x="29" y="271" type="line"/>
      <point x="27" y="258" type="line"/>
    </contour>
  </outline>
</glyph>
<glyph name="guilsinglright" format="2">
  <advance width="246"/>
  <unicode hex="203A"/>
  <outline>
    <contour>
      <point x="45" y="61" type="line"/>
      <point x="211" y="254" type="line"/>
      <point x="213" y="267" type="line"/>
      <point x="120" y="464" type="line"/>
      <point x="61" y="438" type="line"/>
      <point x="128" y="263" type="line"/>
      <point x="-7" y="95" type="line"/>
    </contour>
  </outline>
</glyph>
<glyph name="undertie" format="2">
  <advance width="511"/>
  <unicode hex="203F"/>
  <outline>
    <contour>
      <point x="153" y="-262" type="curve" smooth="yes"/>
      <point x="269" y="-262"/>
      <point x="347" y="-181"/>
      <point x="400" y="-67" type="curve"/>
      <point x="361" y="-50" type="line"/>
      <point x="315" y="-133"/>
      <point x="250" y="-202"/>
      <point x="153" y="-202" type="curve" smooth="yes"/>
      <point x="48" y="-202"/>
      <point x="12" y="-130"/>
      <point x="-4" y="-50" type="curve"/>
      <point x="-48" y="-65" type="line"/>
      <point x="-34" y="-179"/>
      <point x="32" y="-262"/>
    </contour>
  </outline>
</glyph>
<glyph name="caretinsertionpoint" format="2">
  <advance width="388"/>
  <unicode hex="2041"/>
  <outline>
    <contour>
      <point x="-105" y="-240" type="line"/>
      <point x="-29" y="-240" type="line"/>
      <point x="344" y="402" type="line"/>
      <point x="268" y="402" type="line"/>
    </contour>
    <contour>
      <point x="196" y="-240" type="line"/>
      <point x="267" y="-240" type="line"/>
      <point x="181" y="148" type="line"/>
      <point x="128" y="139" type="line"/>
      <point x="130" y="70" type="line"/>
    </contour>
  </outline>
</glyph>
<glyph name="hyphenbullet" format="2">
  <advance width="248"/>
  <unicode hex="2043"/>
  <outline>
    <contour>
      <point x="14" y="231" type="line"/>
      <point x="214" y="231" type="line"/>
      <point x="231" y="308" type="line"/>
      <point x="31" y="308" type="line"/>
    </contour>
  </outline>
</glyph>
<glyph name="bracketleftwithquill" format="2">
  <advance width="307"/>
  <unicode hex="2045"/>
  <outline>
    <contour>
      <point x="66" y="252" type="line"/>
      <point x="251" y="252" type="line"/>
      <point x="264" y="318" type="line"/>
      <point x="80" y="318" type="line"/>
    </contour>
    <component base="bracketleft"/>
  </outline>
</glyph>
<glyph name="bracketrightwithquill" format="2">
  <advance width="284"/>
  <unicode hex="2046"/>
  <outline>
    <contour>
      <point x="22" y="252" type="line"/>
      <point x="204" y="252" type="line"/>
      <point x="218" y="318" type="line"/>
      <point x="36" y="318" type="line"/>
    </contour>
    <component base="bracketright"/>
  </outline>
</glyph>
<glyph name="tironiansignet" format="2">
  <advance width="600"/>
  <unicode hex="204A"/>
  <outline>
    <contour>
      <point x="447" y="0" type="line"/>
      <point x="511" y="0" type="line"/>
      <point x="511" y="537" type="line"/>
      <point x="35" y="537" type="line"/>
      <point x="35" y="473" type="line"/>
      <point x="447" y="473" type="line"/>
    </contour>
  </outline>
</glyph>
<glyph name="twodotpunctuation" format="2">
  <advance width="214"/>
  <unicode hex="205A"/>
  <outline>
    <contour>
      <point x="107" y="607" type="curve" smooth="yes"/>
      <point x="142" y="607"/>
      <point x="164" y="626"/>
      <point x="164" y="667" type="curve" smooth="yes"/>
      <point x="164" y="709"/>
      <point x="142" y="728"/>
      <point x="107" y="728" type="curve" smooth="yes"/>
      <point x="73" y="728"/>
      <point x="51" y="709"/>
      <point x="51" y="667" type="curve" smooth="yes"/>
      <point x="51" y="626"/>
      <point x="73" y="607"/>
    </contour>
    <contour>
      <point x="107" y="-14" type="curve" smooth="yes"/>
      <point x="142" y="-14"/>
      <point x="164" y="5"/>
      <point x="164" y="46" type="curve" smooth="yes"/>
      <point x="164" y="88"/>
      <point x="142" y="107"/>
      <point x="107" y="107" type="curve" smooth="yes"/>
      <point x="73" y="107"/>
      <point x="51" y="88"/>
      <point x="51" y="46" type="curve" smooth="yes"/>
      <point x="51" y="5"/>
      <point x="73" y="-14"/>
    </contour>
  </outline>
</glyph>
<glyph name="plussuperior" format="2">
  <advance width="287"/>
  <unicode hex="207A"/>
  <outline>
    <contour>
      <point x="175" y="398" type="line"/>
      <point x="222" y="398" type="line"/>
      <point x="222" y="500" type="line"/>
      <point x="314" y="500" type="line"/>
      <point x="314" y="546" type="line"/>
      <point x="222" y="546" type="line"/>
      <point x="222" y="648" type="line"/>
      <point x="175" y="648" type="line"/>
      <point x="175" y="546" type="line"/>
      <point x="84" y="546" type="line"/>
      <point x="84" y="500" type="line"/>
      <point x="175" y="500" type="line"/>
    </contour>
  </outline>
</glyph>
<glyph name="minussuperior" format="2">
  <advance width="287"/>
  <unicode hex="207B"/>
  <outline>
    <contour>
      <point x="82" y="499" type="line"/>
      <point x="315" y="499" type="line"/>
      <point x="315" y="546" type="line"/>
      <point x="82" y="546" type="line"/>
    </contour>
  </outline>
</glyph>
<glyph name="parenleftsuperior" format="2">
  <advance width="184"/>
  <unicode hex="207D"/>
  <outline>
    <contour>
      <point x="105" y="230" type="curve"/>
      <point x="151" y="230" type="line"/>
      <point x="133" y="276"/>
      <point x="124" y="342"/>
      <point x="124" y="395" type="curve" smooth="yes"/>
      <point x="124" y="532"/>
      <point x="179" y="661"/>
      <point x="265" y="767" type="curve"/>
      <point x="217" y="767" type="line"/>
      <point x="124" y="665"/>
      <point x="71" y="533"/>
      <point x="71" y="397" type="curve" smooth="yes"/>
      <point x="71" y="341"/>
      <point x="83" y="274"/>
    </contour>
  </outline>
</glyph>
<glyph name="parenrightsuperior" format="2">
  <advance width="183"/>
  <unicode hex="207E"/>
  <outline>
    <contour>
      <point x="17" y="230" type="curve"/>
      <point x="66" y="230" type="line"/>
      <point x="158" y="332"/>
      <point x="211" y="463"/>
      <point x="211" y="600" type="curve" smooth="yes"/>
      <point x="211" y="658"/>
      <point x="200" y="722"/>
      <point x="177" y="767" type="curve"/>
      <point x="131" y="767" type="line"/>
      <point x="148" y="722"/>
      <point x="158" y="654"/>
      <point x="158" y="601" type="curve" smooth="yes"/>
      <point x="158" y="465"/>
      <point x="104" y="336"/>
    </contour>
  </outline>
</glyph>
<glyph name="uni20A9" format="2">
  <advance width="653"/>
  <unicode hex="20A9"/>
  <outline>
    <contour>
      <point x="73" y="0" type="line"/>
      <point x="167" y="0" type="line"/>
      <point x="265" y="263" type="line"/>
      <point x="375" y="263" type="line"/>
      <point x="365" y="0" type="line"/>
      <point x="458" y="0" type="line"/>
      <point x="560" y="263" type="line"/>
      <point x="643" y="263" type="line"/>
      <point x="654" y="313" type="line"/>
      <point x="579" y="313" type="line"/>
      <point x="615" y="404" type="line"/>
      <point x="672" y="404" type="line"/>
      <point x="683" y="455" type="line"/>
      <point x="634" y="455" type="line"/>
      <point x="734" y="714" type="line"/>
      <point x="653" y="714" type="line"/>
      <point x="558" y="455" type="line"/>
      <point x="440" y="455" type="line"/>
      <point x="449" y="714" type="line"/>
      <point x="376" y="714" type="line"/>
      <point x="277" y="455" type="line"/>
      <point x="157" y="455" type="line"/>
      <point x="165" y="714" type="line"/>
      <point x="89" y="714" type="line"/>
      <point x="83" y="455" type="line"/>
      <point x="34" y="455" type="line"/>
      <point x="23" y="404" type="line"/>
      <point x="82" y="404" type="line"/>
      <point x="80" y="313" type="line"/>
      <point x="5" y="313" type="line"/>
      <point x="-6" y="263" type="line"/>
      <point x="79" y="263" type="line"/>
    </contour>
    <contour>
      <point x="142" y="94" type="line"/>
      <point x="150" y="263" type="line"/>
      <point x="205" y="263" type="line"/>
    </contour>
    <contour>
      <point x="152" y="313" type="line"/>
      <point x="154" y="404" type="line"/>
      <point x="257" y="404" type="line"/>
      <point x="222" y="313" type="line"/>
    </contour>
    <contour>
      <point x="425" y="93" type="line"/>
      <point x="434" y="263" type="line"/>
      <point x="487" y="263" type="line"/>
    </contour>
    <contour>
      <point x="284" y="313" type="line"/>
      <point x="319" y="404" type="line"/>
      <point x="380" y="404" type="line"/>
      <point x="376" y="313" type="line"/>
    </contour>
    <contour>
      <point x="435" y="313" type="line"/>
      <point x="438" y="404" type="line"/>
      <point x="539" y="404" type="line"/>
      <point x="504" y="313" type="line"/>
    </contour>
    <contour>
      <point x="335" y="455" type="line"/>
      <point x="390" y="609" type="line"/>
      <point x="381" y="455" type="line"/>
    </contour>
  </outline>
</glyph>
<glyph name="CDoubleStruck" format="2">
  <advance width="632"/>
  <unicode hex="2102"/>
  <outline>
    <contour>
      <point x="344" y="-10" type="curve" smooth="yes"/>
      <point x="407" y="-10"/>
      <point x="461" y="-6"/>
      <point x="524" y="8" type="curve"/>
      <point x="524" y="67" type="line"/>
      <point x="468" y="52"/>
      <point x="408" y="43"/>
      <point x="353" y="43" type="curve" smooth="yes"/>
      <point x="294" y="43"/>
      <point x="244" y="54"/>
      <point x="204" y="74" type="curve"/>
      <point x="204" y="636" type="line"/>
      <point x="245" y="659"/>
      <point x="295" y="672"/>
      <point x="353" y="672" type="curve" smooth="yes"/>
      <point x="407" y="672"/>
      <point x="466" y="660"/>
      <point x="518" y="638" type="curve"/>
      <point x="544" y="694" type="line"/>
      <point x="480" y="719"/>
      <point x="419" y="725"/>
      <point x="355" y="725" type="curve" smooth="yes"/>
      <point x="134" y="725"/>
      <point x="12" y="574"/>
      <point x="12" y="358" type="curve" smooth="yes"/>
      <point x="12" y="133"/>
      <point x="121" y="-10"/>
    </contour>
    <contour>
      <point x="151" y="112" type="line"/>
      <point x="95" y="166"/>
      <point x="68" y="249"/>
      <point x="68" y="355" type="curve" smooth="yes"/>
      <point x="68" y="458"/>
      <point x="97" y="542"/>
      <point x="151" y="596" type="curve"/>
    </contour>
  </outline>
</glyph>
<glyph name="NDoubleStruck" format="2">
  <advance width="778"/>
  <unicode hex="2115"/>
  <outline>
    <contour>
      <point x="59" y="0" type="line"/>
      <point x="112" y="0" type="line"/>
      <point x="112" y="491" type="line"/>
      <point x="566" y="0" type="line"/>
      <point x="643" y="0" type="line"/>
      <point x="643" y="714" type="line"/>
      <point x="590" y="714" type="line"/>
      <point x="590" y="224" type="line"/>
      <point x="135" y="714" type="line"/>
      <point x="59" y="714" type="line"/>
    </contour>
    <contour>
      <point x="590" y="53" type="line"/>
      <point x="112" y="562" type="line"/>
      <point x="112" y="661" type="line"/>
      <point x="590" y="151" type="line"/>
    </contour>
  </outline>
</glyph>
<glyph name="versicle" format="2">
  <advance width="404"/>
  <unicode hex="2123"/>
  <anchor x="146" y="0" name="bottom"/>
  <anchor x="297" y="714" name="top"/>
  <anchor x="479" y="714" name="topright"/>
  <outline>
    <contour>
      <point x="15" y="-145" type="line"/>
      <point x="64" y="-145" type="line"/>
      <point x="350" y="803" type="line"/>
      <point x="134" y="857" type="line"/>
      <point x="123" y="814" type="line"/>
      <point x="293" y="773" type="line"/>
    </contour>
    <component base="V"/>
  </outline>
</glyph>
<glyph name="Escript" format="2">
  <advance width="603"/>
  <unicode hex="2130"/>
  <outline>
    <contour>
      <point x="189" y="-7" type="curve" smooth="yes"/>
      <point x="315" y="-7"/>
      <point x="433" y="87"/>
      <point x="433" y="208" type="curve" smooth="yes"/>
      <point x="433" y="236"/>
      <point x="423" y="302"/>
      <point x="350" y="302" type="curve" smooth="yes"/>
      <point x="270" y="302"/>
      <point x="210" y="235"/>
      <point x="210" y="156" type="curve" smooth="yes"/>
      <point x="210" y="132"/>
      <point x="211" y="108"/>
      <point x="216" y="84" type="curve"/>
      <point x="234" y="88" type="line"/>
      <point x="221" y="193"/>
      <point x="293" y="284"/>
      <point x="352" y="284" type="curve" smooth="yes"/>
      <point x="388" y="284"/>
      <point x="415" y="257"/>
      <point x="415" y="208" type="curve" smooth="yes"/>
      <point x="415" y="100"/>
      <point x="303" y="11"/>
      <point x="197" y="11" type="curve" smooth="yes"/>
      <point x="169" y="11"/>
      <point x="86" y="9"/>
      <point x="86" y="135" type="curve" smooth="yes"/>
      <point x="86" y="259"/>
      <point x="173" y="387"/>
      <point x="267" y="415" type="curve"/>
      <point x="295" y="387"/>
      <point x="338" y="374"/>
      <point x="364" y="374" type="curve" smooth="yes"/>
      <point x="366" y="374"/>
      <point x="409" y="371"/>
      <point x="409" y="400" type="curve" smooth="yes"/>
      <point x="409" y="430"/>
      <point x="347" y="441"/>
      <point x="294" y="443" type="curve"/>
      <point x="290" y="454"/>
      <point x="288" y="466"/>
      <point x="288" y="483" type="curve" smooth="yes"/>
      <point x="288" y="616"/>
      <point x="359" y="701"/>
      <point x="453" y="701" type="curve" smooth="yes"/>
      <point x="492" y="701"/>
      <point x="552" y="672"/>
      <point x="552" y="584" type="curve" smooth="yes"/>
      <point x="552" y="516"/>
      <point x="514" y="478"/>
      <point x="469" y="478" type="curve" smooth="yes"/>
      <point x="464" y="478"/>
      <point x="424" y="477"/>
      <point x="424" y="531" type="curve" smooth="yes"/>
      <point x="424" y="585"/>
      <point x="484" y="627"/>
      <point x="482" y="627" type="curve"/>
      <point x="477" y="637" type="line"/>
      <point x="417" y="613"/>
      <point x="397" y="569"/>
      <point x="397" y="530" type="curve" smooth="yes"/>
      <point x="397" y="491"/>
      <point x="422" y="460"/>
      <point x="467" y="460" type="curve" smooth="yes"/>
      <point x="541" y="460"/>
      <point x="576" y="535"/>
      <point x="576" y="582" type="curve" smooth="yes"/>
      <point x="576" y="636"/>
      <point x="548" y="728"/>
      <point x="421" y="728" type="curve" smooth="yes"/>
      <point x="294" y="728"/>
      <point x="203" y="640"/>
      <point x="198" y="557" type="curve" smooth="yes"/>
      <point x="194" y="497"/>
      <point x="223" y="457"/>
      <point x="240" y="440" type="curve"/>
      <point x="106" y="421"/>
      <point x="-9" y="318"/>
      <point x="-9" y="196" type="curve" smooth="yes"/>
      <point x="-9" y="78"/>
      <point x="67" y="-7"/>
    </contour>
    <contour>
      <point x="358" y="390" type="curve" smooth="yes"/>
      <point x="343" y="392"/>
      <point x="318" y="402"/>
      <point x="303" y="423" type="curve"/>
      <point x="313" y="425"/>
      <point x="330" y="424"/>
      <point x="342" y="422" type="curve" smooth="yes"/>
      <point x="357" y="420"/>
      <point x="390" y="411"/>
      <point x="390" y="400" type="curve" smooth="yes"/>
      <point x="390" y="389"/>
      <point x="372" y="388"/>
    </contour>
  </outline>
</glyph>
<glyph name="daletsymbol" format="2">
  <advance width="399"/>
  <unicode hex="2138"/>
  <outline>
    <contour>
      <point x="247" y="0" type="line"/>
      <point x="323" y="0" type="line"/>
      <point x="323" y="515" type="line"/>
      <point x="388" y="515" type="line"/>
      <point x="388" y="582" type="line"/>
      <point x="2" y="582" type="line"/>
      <point x="2" y="515" type="line"/>
      <point x="247" y="515" type="line"/>
    </contour>
  </outline>
</glyph>
<glyph name="summationDoubleStruck" format="2">
  <advance width="620"/>
  <unicode hex="2140"/>
  <outline>
    <contour>
      <point x="-11" y="-240" type="line"/>
      <point x="583" y="-240" type="line"/>
      <point x="583" y="-74" type="line"/>
      <point x="154" y="-74" type="line"/>
      <point x="453" y="260" type="line"/>
      <point x="202" y="659" type="line"/>
      <point x="567" y="659" type="line"/>
      <point x="567" y="714" type="line"/>
      <point x="1" y="714" type="line"/>
      <point x="1" y="659" type="line"/>
      <point x="306" y="177" type="line"/>
      <point x="-11" y="-177" type="line"/>
    </contour>
    <contour>
      <point x="49" y="-188" type="line"/>
      <point x="106" y="-126" type="line"/>
      <point x="533" y="-126" type="line"/>
      <point x="533" y="-188" type="line"/>
    </contour>
    <contour>
      <point x="341" y="217" type="line"/>
      <point x="63" y="659" type="line"/>
      <point x="138" y="659" type="line"/>
      <point x="386" y="266" type="line"/>
    </contour>
  </outline>
</glyph>
<glyph name="uni214E" format="2">
  <advance width="285"/>
  <unicode hex="214E"/>
  <outline>
    <contour>
      <point x="-45" y="0" type="line"/>
      <point x="165" y="0" type="line"/>
      <point x="282" y="538" type="line"/>
      <point x="206" y="538" type="line"/>
      <point x="157" y="312" type="line"/>
      <point x="32" y="312" type="line"/>
      <point x="17" y="246" type="line"/>
      <point x="142" y="246" type="line"/>
      <point x="103" y="67" type="line"/>
      <point x="-31" y="67" type="line"/>
    </contour>
  </outline>
</glyph>
<glyph name="uni2C61" format="2">
  <advance width="191"/>
  <unicode hex="2C61"/>
  <anchor x="40" y="0" name="bottom"/>
  <anchor x="201" y="760" name="top"/>
  <outline>
    <contour>
      <point x="0" y="0" type="line"/>
      <point x="77" y="0" type="line"/>
      <point x="134" y="266" type="line"/>
      <point x="190" y="266" type="line"/>
      <point x="201" y="317" type="line"/>
      <point x="144" y="317" type="line"/>
      <point x="164" y="406" type="line"/>
      <point x="219" y="406" type="line"/>
      <point x="230" y="457" type="line"/>
      <point x="175" y="457" type="line"/>
      <point x="239" y="760" type="line"/>
      <point x="162" y="760" type="line"/>
      <point x="97" y="457" type="line"/>
      <point x="43" y="457" type="line"/>
      <point x="31" y="406" type="line"/>
      <point x="86" y="406" type="line"/>
      <point x="67" y="317" type="line"/>
      <point x="13" y="317" type="line"/>
      <point x="2" y="266" type="line"/>
      <point x="57" y="266" type="line"/>
    </contour>
  </outline>
</glyph>
<glyph name="uni2C66" format="2">
  <advance width="238"/>
  <unicode hex="2C66"/>
  <anchor x="19" y="-208" name="bottom"/>
  <anchor x="225" y="760" name="top"/>
  <anchor x="127" y="265" name="center"/>
  <anchor x="304" y="658" name="topright"/>
  <outline>
    <contour>
      <point x="-3" y="-208" type="line"/>
      <point x="41" y="-208" type="line"/>
      <point x="323" y="760" type="line"/>
      <point x="279" y="760" type="line" smooth="yes"/>
    </contour>
    <component base="t"/>
  </outline>
</glyph>
<glyph name="uni2C6A" format="2">
  <advance width="391"/>
  <unicode hex="2C6A"/>
  <anchor x="100" y="-185" name="bottom"/>
  <anchor x="301" y="760" name="top"/>
  <outline>
    <contour>
      <point x="201" y="-185" type="line"/>
      <point x="277" y="-185" type="line"/>
      <point x="331" y="69" type="line"/>
      <point x="287" y="69" type="line"/>
      <point x="244" y="319" type="line"/>
      <point x="405" y="536" type="line"/>
      <point x="321" y="536" type="line"/>
      <point x="136" y="286" type="line"/>
      <point x="134" y="286" type="line"/>
      <point x="146" y="330"/>
      <point x="154" y="366"/>
      <point x="160" y="393" type="curve" smooth="yes"/>
      <point x="239" y="760" type="line"/>
      <point x="162" y="760" type="line"/>
      <point x="0" y="0" type="line"/>
      <point x="77" y="0" type="line"/>
      <point x="116" y="189" type="line"/>
      <point x="177" y="255" type="line"/>
      <point x="219" y="0" type="line"/>
      <point x="240" y="0" type="line"/>
    </contour>
  </outline>
</glyph>
<glyph name="uni2C6B" format="2">
  <advance width="335"/>
  <unicode hex="2C6B"/>
  <anchor x="71" y="-191" name="bottom"/>
  <anchor x="263" y="714" name="top"/>
  <outline>
    <contour>
      <point x="134" y="-191" type="line"/>
      <point x="212" y="-191" type="line"/>
      <point x="269" y="72" type="line"/>
      <point x="62" y="72" type="line"/>
      <point x="384" y="651" type="line"/>
      <point x="397" y="714" type="line"/>
      <point x="115" y="714" type="line"/>
      <point x="100" y="642" type="line"/>
      <point x="292" y="642" type="line"/>
      <point x="-28" y="62" type="line"/>
      <point x="-41" y="0" type="line"/>
      <point x="174" y="0" type="line"/>
    </contour>
  </outline>
</glyph>
<glyph name="uni2C76" format="2">
  <advance width="302"/>
  <unicode hex="2C76"/>
  <anchor x="95" y="0" name="bottom"/>
  <anchor x="207" y="529" name="top"/>
  <outline>
    <contour>
      <point x="0" y="0" type="line"/>
      <point x="77" y="0" type="line"/>
      <point x="129" y="245" type="line"/>
      <point x="280" y="245" type="line"/>
      <point x="294" y="312" type="line"/>
      <point x="144" y="312" type="line"/>
      <point x="191" y="536" type="line"/>
      <point x="114" y="536" type="line"/>
    </contour>
  </outline>
</glyph>
<glyph name="downwardsancora" format="2">
  <advance width="750"/>
  <unicode hex="2E14"/>
  <outline>
    <contour>
      <point x="462" y="82" type="curve"/>
      <point x="422" y="122" type="line"/>
      <point x="368" y="101"/>
      <point x="320" y="108"/>
      <point x="267" y="151" type="curve"/>
      <point x="655" y="539" type="line"/>
      <point x="619" y="575" type="line"/>
      <point x="232" y="187" type="line"/>
      <point x="188" y="240"/>
      <point x="181" y="288"/>
      <point x="202" y="342" type="curve"/>
      <point x="162" y="382" type="line"/>
      <point x="118" y="288"/>
      <point x="141" y="205"/>
      <point x="213" y="133" type="curve"/>
      <point x="285" y="61"/>
      <point x="368" y="38"/>
    </contour>
  </outline>
</glyph>
<glyph name="leftverticalbarwithquill" format="2">
  <advance width="551"/>
  <unicode hex="2E20"/>
  <outline>
    <contour>
      <point x="162" y="-241" type="line"/>
      <point x="222" y="-241" type="line"/>
      <point x="222" y="232" type="line"/>
      <point x="377" y="232" type="line"/>
      <point x="377" y="287" type="line"/>
      <point x="222" y="287" type="line"/>
      <point x="222" y="760" type="line"/>
      <point x="162" y="760" type="line"/>
    </contour>
  </outline>
</glyph>
<glyph name="rightverticalbarwithquill" format="2">
  <advance width="551"/>
  <unicode hex="2E21"/>
  <outline>
    <contour>
      <point x="329" y="-241" type="line"/>
      <point x="389" y="-241" type="line"/>
      <point x="389" y="760" type="line"/>
      <point x="329" y="760" type="line"/>
      <point x="329" y="287" type="line"/>
      <point x="174" y="287" type="line"/>
      <point x="174" y="232" type="line"/>
      <point x="329" y="232" type="line"/>
    </contour>
  </outline>
</glyph>
<glyph name="verticaltilde" format="2">
  <advance width="486"/>
  <unicode hex="2E2F"/>
  <outline>
    <contour>
      <point x="246" y="632" type="line"/>
      <point x="332" y="639"/>
      <point x="376" y="679"/>
      <point x="376" y="736" type="curve" smooth="yes"/>
      <point x="376" y="795"/>
      <point x="308" y="843"/>
      <point x="308" y="888" type="curve" smooth="yes"/>
      <point x="308" y="913"/>
      <point x="326" y="931"/>
      <point x="377" y="941" type="curve"/>
      <point x="377" y="992" type="line"/>
      <point x="288" y="983"/>
      <point x="246" y="944"/>
      <point x="246" y="888" type="curve" smooth="yes"/>
      <point x="246" y="830"/>
      <point x="314" y="784"/>
      <point x="314" y="736" type="curve" smooth="yes"/>
      <point x="314" y="712"/>
      <point x="299" y="693"/>
      <point x="246" y="683" type="curve"/>
    </contour>
  </outline>
</glyph>
<glyph name="ringpoint" format="2">
  <advance width="572"/>
  <unicode hex="2E30"/>
  <outline>
    <contour>
      <point x="289" y="165" type="curve" smooth="yes"/>
      <point x="390" y="165"/>
      <point x="472" y="248"/>
      <point x="472" y="350" type="curve" smooth="yes"/>
      <point x="472" y="453"/>
      <point x="390" y="535"/>
      <point x="289" y="535" type="curve" smooth="yes"/>
      <point x="187" y="535"/>
      <point x="104" y="453"/>
      <point x="104" y="350" type="curve" smooth="yes"/>
      <point x="104" y="248"/>
      <point x="187" y="165"/>
    </contour>
    <contour>
      <point x="289" y="225" type="curve" smooth="yes"/>
      <point x="218" y="225"/>
      <point x="163" y="282"/>
      <point x="163" y="351" type="curve" smooth="yes"/>
      <point x="163" y="419"/>
      <point x="218" y="476"/>
      <point x="289" y="476" type="curve" smooth="yes"/>
      <point x="357" y="476"/>
      <point x="412" y="419"/>
      <point x="412" y="351" type="curve" smooth="yes"/>
      <point x="412" y="282"/>
      <point x="357" y="225"/>
    </contour>
  </outline>
</glyph>
<glyph name="daggerwithrightguard" format="2">
  <advance width="363"/>
  <unicode hex="2E37"/>
  <outline>
    <contour>
      <point x="50" y="0" type="line"/>
      <point x="131" y="0" type="line"/>
      <point x="224" y="501" type="line"/>
      <point x="350" y="492" type="line"/>
      <point x="365" y="562" type="line"/>
      <point x="234" y="552" type="line"/>
      <point x="293" y="760" type="line"/>
      <point x="212" y="760" type="line"/>
      <point x="181" y="552" type="line"/>
      <point x="171" y="501" type="line"/>
    </contour>
  </outline>
</glyph>
<glyph name="twoemdash" format="2">
  <advance width="1731"/>
  <unicode hex="2E3A"/>
  <outline>
    <contour>
      <point x="25" y="237" type="line"/>
      <point x="1690" y="237" type="line"/>
      <point x="1704" y="303" type="line"/>
      <point x="39" y="303" type="line"/>
    </contour>
  </outline>
</glyph>
<glyph name="uni2E3C" format="2">
  <unicode hex="2E3C"/>
  <outline>
    <contour>
      <point x="-142" y="-199" type="line"/>
      <point x="-89" y="-155" type="line"/>
      <point x="-55" y="-199" type="line"/>
      <point x="-21" y="-172" type="line"/>
      <point x="-57" y="-127" type="line"/>
      <point x="-3" y="-83" type="line"/>
      <point x="-25" y="-56" type="line"/>
      <point x="-78" y="-101" type="line"/>
      <point x="-113" y="-56" type="line"/>
      <point x="-146" y="-83" type="line"/>
      <point x="-111" y="-127" type="line"/>
      <point x="-165" y="-172" type="line"/>
    </contour>
  </outline>
</glyph>
<glyph name="uni2E41" format="2">
  <advance width="207"/>
  <unicode hex="2E41"/>
  <outline>
    <contour>
      <point x="27" y="-132" type="curve"/>
      <point x="89" y="-132" type="line"/>
      <point x="84" y="-65"/>
      <point x="83" y="38"/>
      <point x="90" y="112" type="curve"/>
      <point x="12" y="112" type="line"/>
      <point x="4" y="101" type="line"/>
      <point x="6" y="25"/>
      <point x="13" y="-58"/>
    </contour>
  </outline>
</glyph>
<glyph name="uni2E42" format="2">
  <advance width="357"/>
  <unicode hex="2E42"/>
  <outline>
    <contour>
      <point x="27" y="-132" type="curve"/>
      <point x="89" y="-132" type="line"/>
      <point x="83" y="-65"/>
      <point x="83" y="38"/>
      <point x="90" y="112" type="curve"/>
      <point x="12" y="112" type="line"/>
      <point x="4" y="101" type="line"/>
      <point x="6" y="25"/>
      <point x="11" y="-58"/>
    </contour>
    <contour>
      <point x="178" y="-132" type="curve"/>
      <point x="240" y="-132" type="line"/>
      <point x="234" y="-65"/>
      <point x="234" y="38"/>
      <point x="241" y="112" type="curve"/>
      <point x="163" y="112" type="line"/>
      <point x="155" y="101" type="line"/>
      <point x="156" y="25"/>
      <point x="162" y="-58"/>
    </contour>
  </outline>
</glyph>
<glyph name="uni2E43" format="2">
  <advance width="704"/>
  <unicode hex="2E43"/>
  <outline>
    <contour>
      <point x="228" y="237" type="curve" smooth="yes"/>
      <point x="663" y="237" type="line"/>
      <point x="676" y="303" type="line"/>
      <point x="218" y="303" type="line" smooth="yes"/>
      <point x="164" y="303"/>
      <point x="149" y="321"/>
      <point x="149" y="354" type="curve" smooth="yes"/>
      <point x="149" y="382"/>
      <point x="163" y="396"/>
      <point x="163" y="426" type="curve" smooth="yes"/>
      <point x="163" y="452"/>
      <point x="148" y="470"/>
      <point x="122" y="470" type="curve" smooth="yes"/>
      <point x="82" y="470"/>
      <point x="58" y="434"/>
      <point x="58" y="376" type="curve" smooth="yes"/>
      <point x="58" y="289"/>
      <point x="111" y="237"/>
    </contour>
  </outline>
</glyph>
<glyph name="uniA641" format="2">
  <advance width="283"/>
  <unicode hex="A641"/>
  <outline>
    <contour>
      <point x="-82" y="-215" type="line"/>
      <point x="-71" y="-204"/>
      <point x="-41" y="-197"/>
      <point x="-18" y="-197" type="curve" smooth="yes"/>
      <point x="11" y="-197"/>
      <point x="33" y="-204"/>
      <point x="76" y="-204" type="curve" smooth="yes"/>
      <point x="160" y="-204"/>
      <point x="224" y="-144"/>
      <point x="224" y="-49" type="curve" smooth="yes"/>
      <point x="224" y="36"/>
      <point x="171" y="67"/>
      <point x="93" y="67" type="curve" smooth="yes"/>
      <point x="65" y="67" type="line"/>
      <point x="301" y="481" type="line"/>
      <point x="313" y="536" type="line"/>
      <point x="88" y="536" type="line"/>
      <point x="73" y="470" type="line"/>
      <point x="213" y="470" type="line"/>
      <point x="-25" y="52" type="line"/>
      <point x="-35" y="0" type="line"/>
      <point x="64" y="0" type="line" smooth="yes"/>
      <point x="121" y="0"/>
      <point x="146" y="-19"/>
      <point x="146" y="-56" type="curve" smooth="yes"/>
      <point x="146" y="-106"/>
      <point x="118" y="-136"/>
      <point x="65" y="-136" type="curve" smooth="yes"/>
      <point x="35" y="-136"/>
      <point x="19" y="-129"/>
      <point x="-7" y="-129" type="curve" smooth="yes"/>
      <point x="-36" y="-129"/>
      <point x="-55" y="-135"/>
      <point x="-67" y="-146" type="curve"/>
    </contour>
  </outline>
</glyph>
<glyph name="uniA643" format="2">
  <advance width="283"/>
  <unicode hex="A643"/>
  <outline>
    <contour>
      <point x="29" y="247" type="line"/>
      <point x="249" y="247" type="line"/>
      <point x="263" y="310" type="line"/>
      <point x="43" y="310" type="line"/>
    </contour>
    <component base="uniA641"/>
  </outline>
</glyph>
<glyph name="uniA650" format="2">
  <advance width="681"/>
  <unicode hex="A650"/>
  <anchor x="320" y="0" name="bottom"/>
  <anchor x="472" y="714" name="top"/>
  <outline>
    <contour>
      <point x="80" y="641" type="line"/>
      <point x="205" y="641" type="line"/>
      <point x="300" y="714" type="line"/>
      <point x="95" y="714" type="line"/>
    </contour>
    <component base="afii10045" xOffset="70"/>
  </outline>
</glyph>
<glyph name="uniA651" format="2">
  <advance width="594"/>
  <unicode hex="A651"/>
  <anchor x="267" y="0" name="bottom"/>
  <anchor x="375" y="536" name="top"/>
  <outline>
    <contour>
      <point x="46" y="467" type="line"/>
      <point x="153" y="467" type="line"/>
      <point x="240" y="536" type="line"/>
      <point x="61" y="536" type="line"/>
    </contour>
    <component base="afii10093" xOffset="51"/>
  </outline>
</glyph>
<glyph name="uniA655" format="2">
  <advance width="582"/>
  <unicode hex="A655"/>
  <anchor x="148" y="0" name="bottom"/>
  <anchor x="221" y="265" name="center"/>
  <anchor x="260" y="529" name="top"/>
  <anchor x="443" y="529" name="topright"/>
  <outline>
    <contour>
      <point x="348" y="312" type="line"/>
      <point x="334" y="245" type="line"/>
      <point x="440" y="245" type="line"/>
      <point x="388" y="0" type="line"/>
      <point x="464" y="0" type="line"/>
      <point x="578" y="536" type="line"/>
      <point x="502" y="536" type="line"/>
      <point x="454" y="312" type="line"/>
    </contour>
    <component base="o"/>
  </outline>
</glyph>
<glyph name="uniA657" format="2">
  <advance width="521"/>
  <unicode hex="A657"/>
  <anchor x="193" y="3" name="bottom"/>
  <anchor x="294" y="537" name="top"/>
  <outline>
    <contour>
      <point x="127" y="0" type="line"/>
      <point x="208" y="0" type="line"/>
      <point x="305" y="240" type="line"/>
      <point x="385" y="240" type="line"/>
      <point x="383" y="0" type="line"/>
      <point x="460" y="0" type="line"/>
      <point x="452" y="536" type="line"/>
      <point x="359" y="536" type="line"/>
    </contour>
    <contour>
      <point x="-1" y="0" type="line"/>
      <point x="76" y="0" type="line"/>
      <point x="127" y="240" type="line"/>
      <point x="263" y="240" type="line"/>
      <point x="278" y="304" type="line"/>
      <point x="141" y="304" type="line"/>
      <point x="190" y="536" type="line"/>
      <point x="114" y="536" type="line"/>
    </contour>
    <contour>
      <point x="328" y="301" type="line"/>
      <point x="355" y="371" type="line" smooth="yes"/>
      <point x="366" y="400"/>
      <point x="377" y="428"/>
      <point x="387" y="461" type="curve"/>
      <point x="391" y="461" type="line"/>
      <point x="389" y="438"/>
      <point x="386" y="372"/>
      <point x="385" y="345" type="curve" smooth="yes"/>
      <point x="384" y="301" type="line"/>
    </contour>
  </outline>
</glyph>
<glyph name="uniA659" format="2">
  <advance width="340"/>
  <unicode hex="A659"/>
  <outline>
    <contour>
      <point x="-56" y="0" type="line"/>
      <point x="25" y="0" type="line"/>
      <point x="122" y="240" type="line"/>
      <point x="202" y="240" type="line"/>
      <point x="200" y="0" type="line"/>
      <point x="277" y="0" type="line"/>
      <point x="269" y="536" type="line"/>
      <point x="176" y="536" type="line"/>
    </contour>
    <contour>
      <point x="-16" y="0" type="line"/>
      <point x="233" y="0" type="line"/>
      <point x="233" y="61" type="line"/>
      <point x="9" y="61" type="line"/>
    </contour>
    <contour>
      <point x="146" y="301" type="line"/>
      <point x="173" y="371" type="line" smooth="yes"/>
      <point x="184" y="400"/>
      <point x="195" y="428"/>
      <point x="205" y="461" type="curve"/>
      <point x="209" y="461" type="line"/>
      <point x="207" y="438"/>
      <point x="204" y="372"/>
      <point x="203" y="345" type="curve" smooth="yes"/>
      <point x="202" y="301" type="line"/>
    </contour>
  </outline>
</glyph>
<glyph name="uniA65C" format="2">
  <advance width="620"/>
  <unicode hex="A65C"/>
  <outline>
    <contour>
      <point x="202" y="0" type="line"/>
      <point x="496" y="0" type="line"/>
      <point x="502" y="67" type="line"/>
      <point x="220" y="67" type="line"/>
    </contour>
    <component base="uniA656"/>
  </outline>
</glyph>
<glyph name="uniA661" format="2">
  <advance width="424"/>
  <unicode hex="A661"/>
  <outline>
    <contour>
      <point x="-71" y="-186" type="line"/>
      <point x="4" y="-186" type="line"/>
      <point x="44" y="0" type="line"/>
      <point x="306" y="0" type="line"/>
      <point x="420" y="536" type="line"/>
      <point x="343" y="536" type="line"/>
      <point x="243" y="67" type="line"/>
      <point x="101" y="67" type="line"/>
      <point x="201" y="536" type="line"/>
      <point x="124" y="536" type="line"/>
      <point x="25" y="67" type="line"/>
      <point x="-17" y="67" type="line"/>
    </contour>
  </outline>
</glyph>
<glyph name="uniA662" format="2">
  <advance width="566"/>
  <unicode hex="A662"/>
  <anchor x="126" y="-195" name="bottom"/>
  <anchor x="327" y="714" name="top"/>
  <outline>
    <contour>
      <point x="252" y="0" type="line"/>
      <point x="332" y="0" type="line"/>
      <point x="468" y="641" type="line"/>
      <point x="627" y="641" type="line"/>
      <point x="643" y="714" type="line"/>
      <point x="404" y="714" type="line"/>
    </contour>
    <component base="afii10021"/>
  </outline>
</glyph>
<glyph name="uniA663" format="2">
  <advance width="515"/>
  <unicode hex="A663"/>
  <outline>
    <contour>
      <point x="-78" y="-186" type="line"/>
      <point x="-3" y="-186" type="line"/>
      <point x="36" y="0" type="line"/>
      <point x="270" y="0" type="line"/>
      <point x="230" y="-186" type="line"/>
      <point x="306" y="-186" type="line"/>
      <point x="359" y="68" type="line"/>
      <point x="307" y="68" type="line"/>
      <point x="393" y="469" type="line"/>
      <point x="541" y="469" type="line"/>
      <point x="556" y="536" type="line"/>
      <point x="167" y="536" type="line"/>
      <point x="136" y="378"/>
      <point x="83" y="220"/>
      <point x="8" y="68" type="curve"/>
      <point x="-25" y="68" type="line"/>
    </contour>
    <contour>
      <point x="86" y="68" type="line"/>
      <point x="150" y="199"/>
      <point x="195" y="334"/>
      <point x="224" y="469" type="curve"/>
      <point x="316" y="469" type="line"/>
      <point x="230" y="68" type="line"/>
    </contour>
  </outline>
</glyph>
<glyph name="uniA664" format="2">
  <advance width="569"/>
  <unicode hex="A664"/>
  <anchor x="171" y="0" name="bottom"/>
  <anchor x="322" y="714" name="top"/>
  <outline>
    <contour>
      <point x="450" y="641" type="line"/>
      <point x="630" y="641" type="line"/>
      <point x="645.997" y="714" type="line"/>
      <point x="392" y="714" type="line"/>
    </contour>
    <component base="afii10029"/>
  </outline>
</glyph>
<glyph name="uniA665" format="2">
  <advance width="497"/>
  <unicode hex="A665"/>
  <anchor x="137" y="0" name="bottom"/>
  <anchor x="249" y="529" name="top"/>
  <outline>
    <contour>
      <point x="207" y="0" type="line"/>
      <point x="284" y="0" type="line"/>
      <point x="383" y="468" type="line"/>
      <point x="527" y="468" type="line"/>
      <point x="542" y="536" type="line"/>
      <point x="321" y="536" type="line"/>
    </contour>
    <component base="afii10077"/>
  </outline>
</glyph>
<glyph name="uniA667" format="2">
  <advance width="612"/>
  <unicode hex="A667"/>
  <anchor x="200" y="0" name="bottom"/>
  <anchor x="312" y="529" name="top"/>
  <outline>
    <contour>
      <point x="481" y="468" type="line"/>
      <point x="638" y="468" type="line"/>
      <point x="653" y="536" type="line"/>
      <point x="432" y="536" type="line"/>
    </contour>
    <component base="afii10078"/>
  </outline>
</glyph>
<glyph name="uniA671" format="2">
  <unicode hex="A671"/>
  <outline>
    <contour>
      <point x="-375" y="616" type="line"/>
      <point x="-308" y="617" type="line"/>
      <point x="-284" y="731" type="line"/>
      <point x="482" y="731" type="line"/>
      <point x="457" y="616" type="line"/>
      <point x="525" y="617" type="line"/>
      <point x="564" y="801" type="line"/>
      <point x="-336" y="801" type="line"/>
    </contour>
    <contour>
      <point x="-554" y="-281" type="line"/>
      <point x="346" y="-281" type="line"/>
      <point x="385" y="-96" type="line"/>
      <point x="317" y="-97" type="line"/>
      <point x="294" y="-210" type="line"/>
      <point x="-472" y="-210" type="line"/>
      <point x="-448" y="-96" type="line"/>
      <point x="-515" y="-97" type="line"/>
    </contour>
  </outline>
</glyph>
<glyph name="uniA680" format="2">
  <advance width="463"/>
  <unicode hex="A680"/>
  <anchor x="126" y="-195" name="bottom"/>
  <anchor x="327" y="714" name="top"/>
  <outline>
    <contour>
      <point x="228" y="675" type="line"/>
      <point x="302" y="675" type="line"/>
      <point x="355" y="920" type="line"/>
      <point x="281" y="920" type="line"/>
    </contour>
    <component base="afii10021"/>
  </outline>
</glyph>
<glyph name="uniA684" format="2">
  <advance width="773"/>
  <unicode hex="A684"/>
  <anchor x="139" y="0" name="bottom_1"/>
  <anchor x="517" y="0" name="bottom_2"/>
  <anchor x="290" y="714" name="top_1"/>
  <anchor x="669" y="714" name="top_2"/>
  <outline>
    <contour>
      <point x="211" y="335" type="line"/>
      <point x="464" y="335" type="line"/>
      <point x="480" y="407" type="line"/>
      <point x="227" y="407" type="line"/>
    </contour>
    <component base="afii10025"/>
    <component base="afii10028" xOffset="373"/>
  </outline>
</glyph>
<glyph name="uniA685" format="2">
  <advance width="647"/>
  <unicode hex="A685"/>
  <anchor x="102" y="0" name="bottom_1"/>
  <anchor x="414" y="0" name="bottom_2"/>
  <anchor x="214" y="529" name="top_1"/>
  <anchor x="526" y="529" name="top_2"/>
  <outline>
    <contour>
      <point x="177" y="251" type="line"/>
      <point x="362" y="251" type="line"/>
      <point x="374" y="310" type="line"/>
      <point x="190" y="310" type="line"/>
    </contour>
    <component base="afii10073"/>
    <component base="afii10076" xOffset="292"/>
  </outline>
</glyph>
<glyph name="uniA690" format="2">
  <advance width="344"/>
  <unicode hex="A690"/>
  <anchor x="116" y="0" name="bottom"/>
  <anchor x="197" y="357" name="center"/>
  <anchor x="267" y="714" name="top"/>
  <anchor x="419" y="714" name="topright"/>
  <outline>
    <contour>
      <point x="42" y="-198" type="curve" smooth="yes"/>
      <point x="57" y="-198"/>
      <point x="70" y="-196"/>
      <point x="81" y="-195" type="curve"/>
      <point x="93" y="-136" type="line"/>
      <point x="85" y="-137"/>
      <point x="75" y="-138"/>
      <point x="64" y="-138" type="curve" smooth="yes"/>
      <point x="43" y="-138"/>
      <point x="26" y="-125"/>
      <point x="26" y="-98" type="curve" smooth="yes"/>
      <point x="26" y="-47"/>
      <point x="57" y="-6"/>
      <point x="122" y="0" type="curve"/>
      <point x="87" y="37" type="line"/>
      <point x="1" y="20"/>
      <point x="-45" y="-43"/>
      <point x="-45" y="-107" type="curve" smooth="yes"/>
      <point x="-45" y="-172"/>
      <point x="-6" y="-198"/>
    </contour>
    <component base="T"/>
  </outline>
</glyph>
<glyph name="uniA69A" format="2">
  <advance width="496"/>
  <unicode hex="A69A"/>
  <anchor x="195" y="0" name="bottom"/>
  <anchor x="346" y="714" name="top"/>
  <outline>
    <contour>
      <point x="161" y="18" type="line"/>
      <point x="216" y="18" type="line"/>
      <point x="361" y="702" type="line"/>
      <point x="306" y="702" type="line"/>
    </contour>
    <component base="uni04E8"/>
  </outline>
</glyph>
<glyph name="uniA69E" format="2">
  <unicode hex="A69E"/>
  <anchor x="-43" y="64" name="_top"/>
  <outline>
    <contour>
      <point x="-58" y="124" type="line"/>
      <point x="-1" y="124" type="line"/>
      <point x="29" y="272" type="line"/>
      <point x="137" y="278"/>
      <point x="191" y="379"/>
      <point x="191" y="487" type="curve" smooth="yes"/>
      <point x="191" y="564"/>
      <point x="159" y="605"/>
      <point x="102" y="614" type="curve"/>
      <point x="130" y="750" type="line"/>
      <point x="73" y="750" type="line"/>
      <point x="45" y="613" type="line"/>
      <point x="-57" y="609"/>
      <point x="-116" y="518"/>
      <point x="-116" y="402" type="curve" smooth="yes"/>
      <point x="-116" y="328"/>
      <point x="-85" y="281"/>
      <point x="-27" y="272" type="curve"/>
    </contour>
    <contour>
      <point x="-16" y="321" type="line"/>
      <point x="-39" y="325"/>
      <point x="-57" y="349"/>
      <point x="-57" y="404" type="curve" smooth="yes"/>
      <point x="-57" y="471"/>
      <point x="-28" y="561"/>
      <point x="33" y="565" type="curve"/>
    </contour>
    <contour>
      <point x="41" y="321" type="curve"/>
      <point x="90" y="565" type="line"/>
      <point x="115" y="561"/>
      <point x="132" y="534"/>
      <point x="132" y="483" type="curve" smooth="yes"/>
      <point x="132" y="421"/>
      <point x="103" y="324"/>
    </contour>
  </outline>
</glyph>
